%TF.GenerationSoftware,KiCad,Pcbnew,10.0.5*%
%TF.CreationDate,2026-09-25T23:13:27+05:30*%
%TF.ProjectId,Audio Amplifier,41756469-6f20-4416-9d70-6c6966696572,rev?*%
%TF.SameCoordinates,Original*%
%TF.FileFunction,Soldermask,Top*%
%TF.FilePolarity,Negative*%
%FSLAX46Y46*%
G04 Gerber Fmt 4.6, Leading zero omitted, Abs format (unit mm)*
G04 Created by KiCad (PCBNEW 10.0.5) date 2026-09-25 23:13:27*
%MOMM*%
%LPD*%
G01*
G04 APERTURE LIST*
G04 Aperture macros list*
%AMRoundRect*
0 Rectangle with rounded corners*
0 $1 Rounding radius*
0 $2 $3 $4 $5 $6 $7 $8 $9 X,Y pos of 4 corners*
0 Add a 4 corners polygon primitive as box body*
4,1,4,$2,$3,$4,$5,$6,$7,$8,$9,$2,$3,0*
0 Add four circle primitives for the rounded corners*
1,1,$1+$1,$2,$3*
1,1,$1+$1,$4,$5*
1,1,$1+$1,$6,$7*
1,1,$1+$1,$8,$9*
0 Add four rect primitives between the rounded corners*
20,1,$1+$1,$2,$3,$4,$5,0*
20,1,$1+$1,$4,$5,$6,$7,0*
20,1,$1+$1,$6,$7,$8,$9,0*
20,1,$1+$1,$8,$9,$2,$3,0*%
G04 Aperture macros list end*
%ADD10RoundRect,0.102000X-1.200000X-1.275000X1.200000X-1.275000X1.200000X1.275000X-1.200000X1.275000X0*%
%ADD11RoundRect,0.102000X-1.450000X-1.275000X1.450000X-1.275000X1.450000X1.275000X-1.450000X1.275000X0*%
%ADD12C,1.600000*%
%ADD13R,1.800000X1.800000*%
%ADD14C,1.800000*%
%ADD15RoundRect,0.249999X-0.850001X-0.850001X0.850001X-0.850001X0.850001X0.850001X-0.850001X0.850001X0*%
%ADD16C,2.200000*%
%ADD17RoundRect,0.250000X1.050000X1.050000X-1.050000X1.050000X-1.050000X-1.050000X1.050000X-1.050000X0*%
%ADD18C,2.600000*%
%ADD19C,2.340000*%
%ADD20C,1.200000*%
%ADD21RoundRect,0.249999X0.850001X-0.850001X0.850001X0.850001X-0.850001X0.850001X-0.850001X-0.850001X0*%
%ADD22RoundRect,0.250000X1.050000X-1.050000X1.050000X1.050000X-1.050000X1.050000X-1.050000X-1.050000X0*%
G04 APERTURE END LIST*
D10*
%TO.C,J3*%
X124000000Y-124875000D03*
D11*
X133300000Y-124875000D03*
D10*
X125900000Y-117525000D03*
D12*
X125100000Y-121200000D03*
X132100000Y-121200000D03*
%TD*%
D13*
%TO.C,U1*%
X149800000Y-85300000D03*
D14*
X148100000Y-89000000D03*
X146400000Y-85300000D03*
X144700000Y-89000000D03*
X143000000Y-85300000D03*
%TD*%
D15*
%TO.C,D2*%
X151120000Y-115400000D03*
D16*
X161280000Y-115400000D03*
%TD*%
D12*
%TO.C,R6*%
X151090000Y-121200000D03*
X158710000Y-121200000D03*
%TD*%
%TO.C,R2*%
X148390000Y-107600000D03*
X156010000Y-107600000D03*
%TD*%
%TO.C,C3*%
X176350000Y-104600000D03*
X178850000Y-104600000D03*
%TD*%
D17*
%TO.C,J1*%
X164880000Y-87900000D03*
D18*
X159800000Y-87900000D03*
%TD*%
D19*
%TO.C,RV1*%
X125200000Y-96300000D03*
X125200000Y-101300000D03*
X125200000Y-106300000D03*
%TD*%
D20*
%TO.C,C4*%
X138600000Y-116700000D03*
X140600000Y-116700000D03*
%TD*%
D12*
%TO.C,C5*%
X169800000Y-103750000D03*
X169800000Y-101250000D03*
%TD*%
D13*
%TO.C,D1*%
X172800000Y-88700000D03*
D14*
X175340000Y-88700000D03*
%TD*%
D12*
%TO.C,R4*%
X134200000Y-111710000D03*
X134200000Y-104090000D03*
%TD*%
%TO.C,C6*%
X155650000Y-125900000D03*
X153150000Y-125900000D03*
%TD*%
D20*
%TO.C,C2*%
X131600000Y-98300000D03*
X133600000Y-98300000D03*
%TD*%
%TO.C,C1*%
X139100000Y-107625000D03*
X141100000Y-107625000D03*
%TD*%
D21*
%TO.C,D3*%
X162700000Y-108980000D03*
D16*
X162700000Y-98820000D03*
%TD*%
D12*
%TO.C,C7*%
X169500000Y-116800000D03*
X174500000Y-116800000D03*
%TD*%
%TO.C,R7*%
X177900000Y-95500000D03*
X185520000Y-95500000D03*
%TD*%
D22*
%TO.C,J2*%
X189300000Y-112180000D03*
D18*
X189300000Y-107100000D03*
%TD*%
D12*
%TO.C,R1*%
X146700000Y-112390000D03*
X146700000Y-120010000D03*
%TD*%
%TO.C,R3*%
X130150000Y-111710000D03*
X130150000Y-104090000D03*
%TD*%
%TO.C,R5*%
X143590000Y-101700000D03*
X151210000Y-101700000D03*
%TD*%
M02*
