M48
; DRILL file KiCad 10.0.5 date 2026-09-25T23:13:30
; FORMAT={-:-/ absolute / metric / decimal}
; #@! TF.CreationDate,2026-09-25T23:13:30+05:30
; #@! TF.GenerationSoftware,Kicad,Pcbnew,10.0.5
; #@! TF.FileFunction,MixedPlating,1,2
FMAT,2
METRIC
; #@! TA.AperFunction,Plated,PTH,ComponentDrill
T1C0.600
; #@! TA.AperFunction,Plated,PTH,ComponentDrill
T2C0.800
; #@! TA.AperFunction,Plated,PTH,ComponentDrill
T3C0.900
; #@! TA.AperFunction,Plated,PTH,ComponentDrill
T4C1.100
; #@! TA.AperFunction,Plated,PTH,ComponentDrill
T5C1.300
; #@! TA.AperFunction,NonPlated,NPTH,ComponentDrill
T6C1.600
%
G90
G05
T1
X131.6Y-98.3
X133.6Y-98.3
X138.6Y-116.7
X139.1Y-107.625
X140.6Y-116.7
X141.1Y-107.625
T2
X130.15Y-104.09
X130.15Y-111.71
X134.2Y-104.09
X134.2Y-111.71
X143.59Y-101.7
X146.7Y-112.39
X146.7Y-120.01
X148.39Y-107.6
X151.09Y-121.2
X151.21Y-101.7
X153.15Y-125.9
X155.65Y-125.9
X156.01Y-107.6
X158.71Y-121.2
X169.5Y-116.8
X169.8Y-101.25
X169.8Y-103.75
X174.5Y-116.8
X176.35Y-104.6
X177.9Y-95.5
X178.85Y-104.6
X185.52Y-95.5
T3
X172.8Y-88.7
X175.34Y-88.7
T4
X143.0Y-85.3
X144.7Y-89.0
X146.4Y-85.3
X148.1Y-89.0
X149.8Y-85.3
X151.12Y-115.4
X161.28Y-115.4
X162.7Y-98.82
X162.7Y-108.98
T5
X125.2Y-96.3
X125.2Y-101.3
X125.2Y-106.3
X159.8Y-87.9
X164.88Y-87.9
X189.3Y-107.1
X189.3Y-112.18
T6
X125.1Y-121.2
X132.1Y-121.2
M30
