%TF.GenerationSoftware,KiCad,Pcbnew,10.0.5*%
%TF.CreationDate,2026-09-25T23:13:27+05:30*%
%TF.ProjectId,Audio Amplifier,41756469-6f20-4416-9d70-6c6966696572,rev?*%
%TF.SameCoordinates,Original*%
%TF.FileFunction,Copper,L2,Bot*%
%TF.FilePolarity,Positive*%
%FSLAX46Y46*%
G04 Gerber Fmt 4.6, Leading zero omitted, Abs format (unit mm)*
G04 Created by KiCad (PCBNEW 10.0.5) date 2026-09-25 23:13:27*
%MOMM*%
%LPD*%
G01*
G04 APERTURE LIST*
G04 Aperture macros list*
%AMRoundRect*
0 Rectangle with rounded corners*
0 $1 Rounding radius*
0 $2 $3 $4 $5 $6 $7 $8 $9 X,Y pos of 4 corners*
0 Add a 4 corners polygon primitive as box body*
4,1,4,$2,$3,$4,$5,$6,$7,$8,$9,$2,$3,0*
0 Add four circle primitives for the rounded corners*
1,1,$1+$1,$2,$3*
1,1,$1+$1,$4,$5*
1,1,$1+$1,$6,$7*
1,1,$1+$1,$8,$9*
0 Add four rect primitives between the rounded corners*
20,1,$1+$1,$2,$3,$4,$5,0*
20,1,$1+$1,$4,$5,$6,$7,0*
20,1,$1+$1,$6,$7,$8,$9,0*
20,1,$1+$1,$8,$9,$2,$3,0*%
G04 Aperture macros list end*
%TA.AperFunction,ComponentPad*%
%ADD10R,1.800000X1.800000*%
%TD*%
%TA.AperFunction,ComponentPad*%
%ADD11C,1.800000*%
%TD*%
%TA.AperFunction,ComponentPad*%
%ADD12RoundRect,0.249999X-0.850001X-0.850001X0.850001X-0.850001X0.850001X0.850001X-0.850001X0.850001X0*%
%TD*%
%TA.AperFunction,ComponentPad*%
%ADD13C,2.200000*%
%TD*%
%TA.AperFunction,ComponentPad*%
%ADD14C,1.600000*%
%TD*%
%TA.AperFunction,ComponentPad*%
%ADD15RoundRect,0.250000X1.050000X1.050000X-1.050000X1.050000X-1.050000X-1.050000X1.050000X-1.050000X0*%
%TD*%
%TA.AperFunction,ComponentPad*%
%ADD16C,2.600000*%
%TD*%
%TA.AperFunction,ComponentPad*%
%ADD17C,2.340000*%
%TD*%
%TA.AperFunction,ComponentPad*%
%ADD18C,1.200000*%
%TD*%
%TA.AperFunction,ComponentPad*%
%ADD19RoundRect,0.249999X0.850001X-0.850001X0.850001X0.850001X-0.850001X0.850001X-0.850001X-0.850001X0*%
%TD*%
%TA.AperFunction,ComponentPad*%
%ADD20RoundRect,0.250000X1.050000X-1.050000X1.050000X1.050000X-1.050000X1.050000X-1.050000X-1.050000X0*%
%TD*%
%TA.AperFunction,Conductor*%
%ADD21C,2.000000*%
%TD*%
%TA.AperFunction,Conductor*%
%ADD22C,1.500000*%
%TD*%
G04 APERTURE END LIST*
D10*
%TO.P,U1,1,+_1*%
%TO.N,Net-(U1-+)*%
X149800000Y-85300000D03*
D11*
%TO.P,U1,2,-_2*%
%TO.N,Net-(U1--)*%
X148100000Y-89000000D03*
%TO.P,U1,3,-Vs_3*%
%TO.N,GND*%
X146400000Y-85300000D03*
%TO.P,U1,4*%
%TO.N,Net-(D2-A)*%
X144700000Y-89000000D03*
%TO.P,U1,5,+Vs_5*%
%TO.N,Net-(D2-K)*%
X143000000Y-85300000D03*
%TD*%
D12*
%TO.P,D2,1,K_1*%
%TO.N,Net-(D2-K)*%
X151120000Y-115400000D03*
D13*
%TO.P,D2,2,A_2*%
%TO.N,Net-(D2-A)*%
X161280000Y-115400000D03*
%TD*%
D14*
%TO.P,R6,1*%
%TO.N,Net-(D2-A)*%
X151090000Y-121200000D03*
%TO.P,R6,2*%
%TO.N,Net-(C6-Pad1)*%
X158710000Y-121200000D03*
%TD*%
%TO.P,R2,1*%
%TO.N,Net-(D2-A)*%
X148390000Y-107600000D03*
%TO.P,R2,2*%
%TO.N,Net-(C1-Pad1)*%
X156010000Y-107600000D03*
%TD*%
%TO.P,C3,1*%
%TO.N,Net-(D2-A)*%
X176350000Y-104600000D03*
%TO.P,C3,2*%
%TO.N,GND*%
X178850000Y-104600000D03*
%TD*%
D15*
%TO.P,J1,1,Pin_1_1*%
%TO.N,Net-(D2-A)*%
X164880000Y-87900000D03*
D16*
%TO.P,J1,2,Pin_2_2*%
%TO.N,GND*%
X159800000Y-87900000D03*
%TD*%
D17*
%TO.P,RV1,1,1_1*%
%TO.N,Net-(J3-SLEEVE)*%
X125200000Y-96300000D03*
%TO.P,RV1,2,2_2*%
%TO.N,Net-(C2-Pad1)*%
X125200000Y-101300000D03*
%TO.P,RV1,3,3_3*%
%TO.N,GND*%
X125200000Y-106300000D03*
%TD*%
D18*
%TO.P,C4,1*%
%TO.N,Net-(C4-Pad1)*%
X138600000Y-116700000D03*
%TO.P,C4,2*%
%TO.N,GND*%
X140600000Y-116700000D03*
%TD*%
D14*
%TO.P,C5,1*%
%TO.N,Net-(D2-A)*%
X169800000Y-103750000D03*
%TO.P,C5,2*%
%TO.N,GND*%
X169800000Y-101250000D03*
%TD*%
D10*
%TO.P,D1,1,K_1*%
%TO.N,GND*%
X172800000Y-88700000D03*
D11*
%TO.P,D1,2,A_2*%
%TO.N,Net-(D1-A)*%
X175340000Y-88700000D03*
%TD*%
D14*
%TO.P,R4,1*%
%TO.N,Net-(U1--)*%
X134200000Y-111710000D03*
%TO.P,R4,2*%
%TO.N,Net-(C4-Pad1)*%
X134200000Y-104090000D03*
%TD*%
%TO.P,C6,1*%
%TO.N,Net-(C6-Pad1)*%
X155650000Y-125900000D03*
%TO.P,C6,2*%
%TO.N,GND*%
X153150000Y-125900000D03*
%TD*%
D18*
%TO.P,C2,1*%
%TO.N,Net-(C2-Pad1)*%
X131600000Y-98300000D03*
%TO.P,C2,2*%
%TO.N,Net-(U1-+)*%
X133600000Y-98300000D03*
%TD*%
%TO.P,C1,1*%
%TO.N,Net-(C1-Pad1)*%
X139100000Y-107625000D03*
%TO.P,C1,2*%
%TO.N,GND*%
X141100000Y-107625000D03*
%TD*%
D19*
%TO.P,D3,1,K_1*%
%TO.N,Net-(D2-A)*%
X162700000Y-108980000D03*
D13*
%TO.P,D3,2,A_2*%
%TO.N,GND*%
X162700000Y-98820000D03*
%TD*%
D14*
%TO.P,C7,1*%
%TO.N,Net-(D2-A)*%
X169500000Y-116800000D03*
%TO.P,C7,2*%
%TO.N,Net-(J2-Pin_1)*%
X174500000Y-116800000D03*
%TD*%
%TO.P,R7,1*%
%TO.N,Net-(D2-A)*%
X177900000Y-95500000D03*
%TO.P,R7,2*%
%TO.N,Net-(D1-A)*%
X185520000Y-95500000D03*
%TD*%
D20*
%TO.P,J2,1,Pin_1_1*%
%TO.N,Net-(J2-Pin_1)*%
X189300000Y-112180000D03*
D16*
%TO.P,J2,2,Pin_2_2*%
%TO.N,GND*%
X189300000Y-107100000D03*
%TD*%
D14*
%TO.P,R1,1*%
%TO.N,Net-(C1-Pad1)*%
X146700000Y-112390000D03*
%TO.P,R1,2*%
%TO.N,GND*%
X146700000Y-120010000D03*
%TD*%
%TO.P,R3,1*%
%TO.N,Net-(C1-Pad1)*%
X130150000Y-111710000D03*
%TO.P,R3,2*%
%TO.N,Net-(U1-+)*%
X130150000Y-104090000D03*
%TD*%
%TO.P,R5,1*%
%TO.N,GND*%
X143590000Y-101700000D03*
%TO.P,R5,2*%
%TO.N,Net-(D2-A)*%
X151210000Y-101700000D03*
%TD*%
%TO.N,GND*%
D21*
X162700000Y-98820000D02*
X162700000Y-98800000D01*
D22*
X125425000Y-106075000D02*
X139742032Y-106075000D01*
D21*
X162700000Y-98800000D02*
X172800000Y-88700000D01*
D22*
X141100000Y-107625000D02*
X141100000Y-116200000D01*
X125200000Y-106300000D02*
X125425000Y-106075000D01*
X139742032Y-106075000D02*
X141100000Y-107432968D01*
X141100000Y-107432968D02*
X141100000Y-107625000D01*
X141100000Y-116200000D02*
X140600000Y-116700000D01*
%TO.N,Net-(D2-A)*%
X153480000Y-107600000D02*
X161280000Y-115400000D01*
X148390000Y-107600000D02*
X153480000Y-107600000D01*
X144700000Y-89000000D02*
X144700000Y-95190000D01*
X176350000Y-97050000D02*
X177900000Y-95500000D01*
X176350000Y-104600000D02*
X176350000Y-97050000D01*
X148390000Y-107600000D02*
X148390000Y-104520000D01*
X148390000Y-104520000D02*
X151210000Y-101700000D01*
X144700000Y-95190000D02*
X151210000Y-101700000D01*
%TO.N,Net-(D1-A)*%
X175340000Y-88700000D02*
X178720000Y-88700000D01*
X178720000Y-88700000D02*
X185520000Y-95500000D01*
%TO.N,Net-(D2-K)*%
X142100000Y-86200000D02*
X142100000Y-97735126D01*
X142100000Y-97735126D02*
X146640000Y-102275126D01*
X146640000Y-102275126D02*
X146640000Y-109140000D01*
X151120000Y-113620000D02*
X151120000Y-115400000D01*
X146640000Y-109140000D02*
X151120000Y-113620000D01*
X143000000Y-85300000D02*
X142100000Y-86200000D01*
%TD*%
%TA.AperFunction,Conductor*%
%TO.N,GND*%
G36*
X194242539Y-82520185D02*
G01*
X194288294Y-82572989D01*
X194299500Y-82624500D01*
X194299500Y-127175500D01*
X194279815Y-127242539D01*
X194227011Y-127288294D01*
X194175500Y-127299500D01*
X156284421Y-127299500D01*
X156217382Y-127279815D01*
X156171627Y-127227011D01*
X156161683Y-127157853D01*
X156190708Y-127094297D01*
X156228126Y-127065015D01*
X156239785Y-127059073D01*
X156331610Y-127012287D01*
X156424590Y-126944732D01*
X156497213Y-126891971D01*
X156497215Y-126891968D01*
X156497219Y-126891966D01*
X156641966Y-126747219D01*
X156641968Y-126747215D01*
X156641971Y-126747213D01*
X156694732Y-126674590D01*
X156762287Y-126581610D01*
X156855220Y-126399219D01*
X156918477Y-126204534D01*
X156950500Y-126002352D01*
X156950500Y-125797648D01*
X156942257Y-125745606D01*
X156918477Y-125595465D01*
X156887458Y-125500000D01*
X156855220Y-125400781D01*
X156855218Y-125400778D01*
X156855218Y-125400776D01*
X156812750Y-125317429D01*
X156762287Y-125218390D01*
X156730092Y-125174077D01*
X156641971Y-125052786D01*
X156497213Y-124908028D01*
X156331613Y-124787715D01*
X156331612Y-124787714D01*
X156331610Y-124787713D01*
X156274653Y-124758691D01*
X156149223Y-124694781D01*
X155954534Y-124631522D01*
X155779995Y-124603878D01*
X155752352Y-124599500D01*
X155547648Y-124599500D01*
X155523329Y-124603351D01*
X155345465Y-124631522D01*
X155150776Y-124694781D01*
X154968386Y-124787715D01*
X154802786Y-124908028D01*
X154658028Y-125052786D01*
X154537714Y-125218386D01*
X154510203Y-125272379D01*
X154462227Y-125323174D01*
X154394406Y-125339968D01*
X154328272Y-125317429D01*
X154289234Y-125272376D01*
X154261861Y-125218652D01*
X154229474Y-125174077D01*
X154229474Y-125174076D01*
X153550000Y-125853551D01*
X153550000Y-125847339D01*
X153522741Y-125745606D01*
X153470080Y-125654394D01*
X153395606Y-125579920D01*
X153304394Y-125527259D01*
X153202661Y-125500000D01*
X153196446Y-125500000D01*
X153875922Y-124820524D01*
X153875921Y-124820523D01*
X153831359Y-124788147D01*
X153831350Y-124788141D01*
X153649031Y-124695244D01*
X153454417Y-124632009D01*
X153252317Y-124600000D01*
X153047683Y-124600000D01*
X152845582Y-124632009D01*
X152650968Y-124695244D01*
X152468644Y-124788143D01*
X152424077Y-124820523D01*
X152424077Y-124820524D01*
X153103554Y-125500000D01*
X153097339Y-125500000D01*
X152995606Y-125527259D01*
X152904394Y-125579920D01*
X152829920Y-125654394D01*
X152777259Y-125745606D01*
X152750000Y-125847339D01*
X152750000Y-125853553D01*
X152070524Y-125174077D01*
X152070523Y-125174077D01*
X152038143Y-125218644D01*
X151945244Y-125400968D01*
X151882009Y-125595582D01*
X151850000Y-125797682D01*
X151850000Y-126002317D01*
X151882009Y-126204417D01*
X151945244Y-126399031D01*
X152038141Y-126581350D01*
X152038147Y-126581359D01*
X152070523Y-126625921D01*
X152070524Y-126625922D01*
X152750000Y-125946446D01*
X152750000Y-125952661D01*
X152777259Y-126054394D01*
X152829920Y-126145606D01*
X152904394Y-126220080D01*
X152995606Y-126272741D01*
X153097339Y-126300000D01*
X153103553Y-126300000D01*
X152424076Y-126979474D01*
X152468650Y-127011859D01*
X152572974Y-127065015D01*
X152623770Y-127112989D01*
X152640565Y-127180810D01*
X152618028Y-127246945D01*
X152563313Y-127290397D01*
X152516679Y-127299500D01*
X118324500Y-127299500D01*
X118257461Y-127279815D01*
X118211706Y-127227011D01*
X118200500Y-127175500D01*
X118200500Y-121096530D01*
X124049500Y-121096530D01*
X124049500Y-121303469D01*
X124089868Y-121506412D01*
X124089870Y-121506420D01*
X124169058Y-121697596D01*
X124284024Y-121869657D01*
X124430342Y-122015975D01*
X124430345Y-122015977D01*
X124602402Y-122130941D01*
X124793580Y-122210130D01*
X124996530Y-122250499D01*
X124996534Y-122250500D01*
X124996535Y-122250500D01*
X125203466Y-122250500D01*
X125203467Y-122250499D01*
X125406420Y-122210130D01*
X125597598Y-122130941D01*
X125769655Y-122015977D01*
X125915977Y-121869655D01*
X126030941Y-121697598D01*
X126110130Y-121506420D01*
X126150500Y-121303465D01*
X126150500Y-121096535D01*
X126150499Y-121096530D01*
X131049500Y-121096530D01*
X131049500Y-121303469D01*
X131089868Y-121506412D01*
X131089870Y-121506420D01*
X131169058Y-121697596D01*
X131284024Y-121869657D01*
X131430342Y-122015975D01*
X131430345Y-122015977D01*
X131602402Y-122130941D01*
X131793580Y-122210130D01*
X131996530Y-122250499D01*
X131996534Y-122250500D01*
X131996535Y-122250500D01*
X132203466Y-122250500D01*
X132203467Y-122250499D01*
X132406420Y-122210130D01*
X132597598Y-122130941D01*
X132769655Y-122015977D01*
X132915977Y-121869655D01*
X133030941Y-121697598D01*
X133110130Y-121506420D01*
X133150500Y-121303465D01*
X133150500Y-121096535D01*
X133150499Y-121096530D01*
X133144507Y-121066404D01*
X133144507Y-121066401D01*
X133110131Y-120893587D01*
X133110130Y-120893580D01*
X133030941Y-120702402D01*
X132915977Y-120530345D01*
X132915975Y-120530342D01*
X132769657Y-120384024D01*
X132683626Y-120326541D01*
X132597598Y-120269059D01*
X132406420Y-120189870D01*
X132406412Y-120189868D01*
X132203469Y-120149500D01*
X132203465Y-120149500D01*
X131996535Y-120149500D01*
X131996530Y-120149500D01*
X131793587Y-120189868D01*
X131793579Y-120189870D01*
X131602403Y-120269058D01*
X131430342Y-120384024D01*
X131284024Y-120530342D01*
X131169058Y-120702403D01*
X131089870Y-120893579D01*
X131089868Y-120893587D01*
X131049500Y-121096530D01*
X126150499Y-121096530D01*
X126110130Y-120893580D01*
X126030941Y-120702402D01*
X125915977Y-120530345D01*
X125915975Y-120530342D01*
X125769657Y-120384024D01*
X125683626Y-120326541D01*
X125597598Y-120269059D01*
X125406420Y-120189870D01*
X125406412Y-120189868D01*
X125203469Y-120149500D01*
X125203465Y-120149500D01*
X124996535Y-120149500D01*
X124996530Y-120149500D01*
X124793587Y-120189868D01*
X124793579Y-120189870D01*
X124602403Y-120269058D01*
X124430342Y-120384024D01*
X124284024Y-120530342D01*
X124169058Y-120702403D01*
X124089870Y-120893579D01*
X124089868Y-120893587D01*
X124049500Y-121096530D01*
X118200500Y-121096530D01*
X118200500Y-119907682D01*
X145400000Y-119907682D01*
X145400000Y-120112317D01*
X145432009Y-120314417D01*
X145495244Y-120509031D01*
X145588141Y-120691350D01*
X145588147Y-120691359D01*
X145620523Y-120735921D01*
X145620524Y-120735922D01*
X146300000Y-120056446D01*
X146300000Y-120062661D01*
X146327259Y-120164394D01*
X146379920Y-120255606D01*
X146454394Y-120330080D01*
X146545606Y-120382741D01*
X146647339Y-120410000D01*
X146653553Y-120410000D01*
X145974076Y-121089474D01*
X146018650Y-121121859D01*
X146200968Y-121214755D01*
X146395582Y-121277990D01*
X146597683Y-121310000D01*
X146802317Y-121310000D01*
X147004417Y-121277990D01*
X147199031Y-121214755D01*
X147381349Y-121121859D01*
X147414672Y-121097648D01*
X149789500Y-121097648D01*
X149789500Y-121302352D01*
X149789677Y-121303469D01*
X149821522Y-121504534D01*
X149884781Y-121699223D01*
X149977715Y-121881613D01*
X150098028Y-122047213D01*
X150242786Y-122191971D01*
X150397749Y-122304556D01*
X150408390Y-122312287D01*
X150524607Y-122371503D01*
X150590776Y-122405218D01*
X150590778Y-122405218D01*
X150590781Y-122405220D01*
X150695137Y-122439127D01*
X150785465Y-122468477D01*
X150886557Y-122484488D01*
X150987648Y-122500500D01*
X150987649Y-122500500D01*
X151192351Y-122500500D01*
X151192352Y-122500500D01*
X151394534Y-122468477D01*
X151589219Y-122405220D01*
X151771610Y-122312287D01*
X151912217Y-122210131D01*
X151937213Y-122191971D01*
X151937215Y-122191968D01*
X151937219Y-122191966D01*
X152081966Y-122047219D01*
X152081968Y-122047215D01*
X152081971Y-122047213D01*
X152134732Y-121974590D01*
X152202287Y-121881610D01*
X152295220Y-121699219D01*
X152358477Y-121504534D01*
X152390500Y-121302352D01*
X152390500Y-121097648D01*
X157409500Y-121097648D01*
X157409500Y-121302352D01*
X157409677Y-121303469D01*
X157441522Y-121504534D01*
X157504781Y-121699223D01*
X157597715Y-121881613D01*
X157718028Y-122047213D01*
X157862786Y-122191971D01*
X158017749Y-122304556D01*
X158028390Y-122312287D01*
X158144607Y-122371503D01*
X158210776Y-122405218D01*
X158210778Y-122405218D01*
X158210781Y-122405220D01*
X158315137Y-122439127D01*
X158405465Y-122468477D01*
X158506557Y-122484488D01*
X158607648Y-122500500D01*
X158607649Y-122500500D01*
X158812351Y-122500500D01*
X158812352Y-122500500D01*
X159014534Y-122468477D01*
X159209219Y-122405220D01*
X159391610Y-122312287D01*
X159532217Y-122210131D01*
X159557213Y-122191971D01*
X159557215Y-122191968D01*
X159557219Y-122191966D01*
X159701966Y-122047219D01*
X159701968Y-122047215D01*
X159701971Y-122047213D01*
X159754732Y-121974590D01*
X159822287Y-121881610D01*
X159915220Y-121699219D01*
X159978477Y-121504534D01*
X160010500Y-121302352D01*
X160010500Y-121097648D01*
X159978477Y-120895466D01*
X159977866Y-120893587D01*
X159926638Y-120735922D01*
X159915220Y-120700781D01*
X159915218Y-120700778D01*
X159915218Y-120700776D01*
X159828378Y-120530345D01*
X159822287Y-120518390D01*
X159814556Y-120507749D01*
X159701971Y-120352786D01*
X159557213Y-120208028D01*
X159391613Y-120087715D01*
X159391612Y-120087714D01*
X159391610Y-120087713D01*
X159334653Y-120058691D01*
X159209223Y-119994781D01*
X159014534Y-119931522D01*
X158839995Y-119903878D01*
X158812352Y-119899500D01*
X158607648Y-119899500D01*
X158583329Y-119903351D01*
X158405465Y-119931522D01*
X158210776Y-119994781D01*
X158028386Y-120087715D01*
X157862786Y-120208028D01*
X157718028Y-120352786D01*
X157597715Y-120518386D01*
X157504781Y-120700776D01*
X157441522Y-120895465D01*
X157410795Y-121089474D01*
X157409500Y-121097648D01*
X152390500Y-121097648D01*
X152358477Y-120895466D01*
X152357866Y-120893587D01*
X152306638Y-120735922D01*
X152295220Y-120700781D01*
X152295218Y-120700778D01*
X152295218Y-120700776D01*
X152208378Y-120530345D01*
X152202287Y-120518390D01*
X152194556Y-120507749D01*
X152081971Y-120352786D01*
X151937213Y-120208028D01*
X151771613Y-120087715D01*
X151771612Y-120087714D01*
X151771610Y-120087713D01*
X151714653Y-120058691D01*
X151589223Y-119994781D01*
X151394534Y-119931522D01*
X151219995Y-119903878D01*
X151192352Y-119899500D01*
X150987648Y-119899500D01*
X150963329Y-119903351D01*
X150785465Y-119931522D01*
X150590776Y-119994781D01*
X150408386Y-120087715D01*
X150242786Y-120208028D01*
X150098028Y-120352786D01*
X149977715Y-120518386D01*
X149884781Y-120700776D01*
X149821522Y-120895465D01*
X149790795Y-121089474D01*
X149789500Y-121097648D01*
X147414672Y-121097648D01*
X147425922Y-121089474D01*
X146746447Y-120410000D01*
X146752661Y-120410000D01*
X146854394Y-120382741D01*
X146945606Y-120330080D01*
X147020080Y-120255606D01*
X147072741Y-120164394D01*
X147100000Y-120062661D01*
X147100000Y-120056447D01*
X147779474Y-120735921D01*
X147811859Y-120691349D01*
X147904755Y-120509031D01*
X147967990Y-120314417D01*
X148000000Y-120112317D01*
X148000000Y-119907682D01*
X147967990Y-119705582D01*
X147904755Y-119510968D01*
X147811859Y-119328650D01*
X147779474Y-119284077D01*
X147779474Y-119284076D01*
X147100000Y-119963551D01*
X147100000Y-119957339D01*
X147072741Y-119855606D01*
X147020080Y-119764394D01*
X146945606Y-119689920D01*
X146854394Y-119637259D01*
X146752661Y-119610000D01*
X146746446Y-119610000D01*
X147425922Y-118930524D01*
X147425921Y-118930523D01*
X147381359Y-118898147D01*
X147381350Y-118898141D01*
X147199031Y-118805244D01*
X147004417Y-118742009D01*
X146802317Y-118710000D01*
X146597683Y-118710000D01*
X146395582Y-118742009D01*
X146200968Y-118805244D01*
X146018644Y-118898143D01*
X145974077Y-118930523D01*
X145974077Y-118930524D01*
X146653554Y-119610000D01*
X146647339Y-119610000D01*
X146545606Y-119637259D01*
X146454394Y-119689920D01*
X146379920Y-119764394D01*
X146327259Y-119855606D01*
X146300000Y-119957339D01*
X146300000Y-119963553D01*
X145620524Y-119284077D01*
X145620523Y-119284077D01*
X145588143Y-119328644D01*
X145495244Y-119510968D01*
X145432009Y-119705582D01*
X145400000Y-119907682D01*
X118200500Y-119907682D01*
X118200500Y-116613389D01*
X137499500Y-116613389D01*
X137499500Y-116786611D01*
X137507677Y-116838239D01*
X137522972Y-116934812D01*
X137526598Y-116957701D01*
X137580127Y-117122445D01*
X137658768Y-117276788D01*
X137760586Y-117416928D01*
X137883072Y-117539414D01*
X138023212Y-117641232D01*
X138177555Y-117719873D01*
X138342299Y-117773402D01*
X138513389Y-117800500D01*
X138513390Y-117800500D01*
X138686610Y-117800500D01*
X138686611Y-117800500D01*
X138857701Y-117773402D01*
X139022445Y-117719873D01*
X139176788Y-117641232D01*
X139183591Y-117636289D01*
X140017261Y-117636289D01*
X140017262Y-117636290D01*
X140023471Y-117640801D01*
X140177742Y-117719408D01*
X140342415Y-117772914D01*
X140513429Y-117800000D01*
X140686571Y-117800000D01*
X140857584Y-117772914D01*
X141022257Y-117719408D01*
X141176525Y-117640803D01*
X141182736Y-117636289D01*
X141182737Y-117636289D01*
X140600001Y-117053553D01*
X140600000Y-117053553D01*
X140017261Y-117636289D01*
X139183591Y-117636289D01*
X139316928Y-117539414D01*
X139439414Y-117416928D01*
X139505948Y-117325351D01*
X139509268Y-117321493D01*
X139534489Y-117305157D01*
X139558280Y-117286812D01*
X139564149Y-117285946D01*
X139567912Y-117283510D01*
X139580991Y-117283463D01*
X139612999Y-117278745D01*
X139663710Y-117282736D01*
X140246446Y-116700001D01*
X140246446Y-116699999D01*
X140206951Y-116660504D01*
X140300000Y-116660504D01*
X140300000Y-116739496D01*
X140320444Y-116815796D01*
X140359940Y-116884205D01*
X140415795Y-116940060D01*
X140484204Y-116979556D01*
X140560504Y-117000000D01*
X140639496Y-117000000D01*
X140715796Y-116979556D01*
X140784205Y-116940060D01*
X140840060Y-116884205D01*
X140879556Y-116815796D01*
X140900000Y-116739496D01*
X140900000Y-116699999D01*
X140953553Y-116699999D01*
X140953553Y-116700000D01*
X141536289Y-117282736D01*
X141540803Y-117276525D01*
X141619408Y-117122257D01*
X141672914Y-116957584D01*
X141700000Y-116786571D01*
X141700000Y-116613428D01*
X141672914Y-116442415D01*
X141619408Y-116277742D01*
X141540801Y-116123471D01*
X141536290Y-116117262D01*
X141536289Y-116117261D01*
X140953553Y-116699999D01*
X140900000Y-116699999D01*
X140900000Y-116660504D01*
X140879556Y-116584204D01*
X140840060Y-116515795D01*
X140784205Y-116459940D01*
X140715796Y-116420444D01*
X140639496Y-116400000D01*
X140560504Y-116400000D01*
X140484204Y-116420444D01*
X140415795Y-116459940D01*
X140359940Y-116515795D01*
X140320444Y-116584204D01*
X140300000Y-116660504D01*
X140206951Y-116660504D01*
X139663708Y-116117261D01*
X139613004Y-116121254D01*
X139607869Y-116120175D01*
X139602830Y-116121636D01*
X139574024Y-116113067D01*
X139544626Y-116106893D01*
X139539538Y-116102809D01*
X139535861Y-116101715D01*
X139523041Y-116089564D01*
X139509269Y-116078508D01*
X139505947Y-116074647D01*
X139439414Y-115983072D01*
X139316928Y-115860586D01*
X139183587Y-115763708D01*
X140017261Y-115763708D01*
X140017261Y-115763709D01*
X140600000Y-116346446D01*
X140600001Y-116346446D01*
X141182737Y-115763709D01*
X141176525Y-115759196D01*
X141022259Y-115680592D01*
X140857584Y-115627085D01*
X140686571Y-115600000D01*
X140513429Y-115600000D01*
X140342415Y-115627085D01*
X140177740Y-115680592D01*
X140023480Y-115759193D01*
X140023463Y-115759203D01*
X140017261Y-115763708D01*
X139183587Y-115763708D01*
X139176788Y-115758768D01*
X139037337Y-115687715D01*
X139022447Y-115680128D01*
X139022446Y-115680127D01*
X139022445Y-115680127D01*
X138857701Y-115626598D01*
X138857699Y-115626597D01*
X138857698Y-115626597D01*
X138726271Y-115605781D01*
X138686611Y-115599500D01*
X138513389Y-115599500D01*
X138473728Y-115605781D01*
X138342302Y-115626597D01*
X138177552Y-115680128D01*
X138023211Y-115758768D01*
X137955403Y-115808034D01*
X137883072Y-115860586D01*
X137883070Y-115860588D01*
X137883069Y-115860588D01*
X137760588Y-115983069D01*
X137760588Y-115983070D01*
X137760586Y-115983072D01*
X137737840Y-116014379D01*
X137658768Y-116123211D01*
X137580128Y-116277552D01*
X137526597Y-116442302D01*
X137518177Y-116495465D01*
X137499500Y-116613389D01*
X118200500Y-116613389D01*
X118200500Y-111607648D01*
X128849500Y-111607648D01*
X128849500Y-111812351D01*
X128881522Y-112014534D01*
X128944781Y-112209223D01*
X129037715Y-112391613D01*
X129158028Y-112557213D01*
X129302786Y-112701971D01*
X129445085Y-112805355D01*
X129468390Y-112822287D01*
X129584607Y-112881503D01*
X129650776Y-112915218D01*
X129650778Y-112915218D01*
X129650781Y-112915220D01*
X129755137Y-112949127D01*
X129845465Y-112978477D01*
X129946557Y-112994488D01*
X130047648Y-113010500D01*
X130047649Y-113010500D01*
X130252351Y-113010500D01*
X130252352Y-113010500D01*
X130454534Y-112978477D01*
X130649219Y-112915220D01*
X130831610Y-112822287D01*
X130924590Y-112754732D01*
X130997213Y-112701971D01*
X130997215Y-112701968D01*
X130997219Y-112701966D01*
X131141966Y-112557219D01*
X131141968Y-112557215D01*
X131141971Y-112557213D01*
X131204171Y-112471600D01*
X131262287Y-112391610D01*
X131355220Y-112209219D01*
X131418477Y-112014534D01*
X131450500Y-111812352D01*
X131450500Y-111607648D01*
X132899500Y-111607648D01*
X132899500Y-111812351D01*
X132931522Y-112014534D01*
X132994781Y-112209223D01*
X133087715Y-112391613D01*
X133208028Y-112557213D01*
X133352786Y-112701971D01*
X133495085Y-112805355D01*
X133518390Y-112822287D01*
X133634607Y-112881503D01*
X133700776Y-112915218D01*
X133700778Y-112915218D01*
X133700781Y-112915220D01*
X133805137Y-112949127D01*
X133895465Y-112978477D01*
X133996557Y-112994488D01*
X134097648Y-113010500D01*
X134097649Y-113010500D01*
X134302351Y-113010500D01*
X134302352Y-113010500D01*
X134504534Y-112978477D01*
X134699219Y-112915220D01*
X134881610Y-112822287D01*
X134974590Y-112754732D01*
X135047213Y-112701971D01*
X135047215Y-112701968D01*
X135047219Y-112701966D01*
X135191966Y-112557219D01*
X135191968Y-112557215D01*
X135191971Y-112557213D01*
X135254171Y-112471600D01*
X135312287Y-112391610D01*
X135405220Y-112209219D01*
X135468477Y-112014534D01*
X135500500Y-111812352D01*
X135500500Y-111607648D01*
X135468477Y-111405466D01*
X135466060Y-111398028D01*
X135426968Y-111277715D01*
X135405220Y-111210781D01*
X135405218Y-111210778D01*
X135405218Y-111210776D01*
X135359740Y-111121522D01*
X135312287Y-111028390D01*
X135304556Y-111017749D01*
X135191971Y-110862786D01*
X135047213Y-110718028D01*
X134881613Y-110597715D01*
X134881612Y-110597714D01*
X134881610Y-110597713D01*
X134824653Y-110568691D01*
X134699223Y-110504781D01*
X134504534Y-110441522D01*
X134329995Y-110413878D01*
X134302352Y-110409500D01*
X134097648Y-110409500D01*
X134073329Y-110413351D01*
X133895465Y-110441522D01*
X133700776Y-110504781D01*
X133518386Y-110597715D01*
X133352786Y-110718028D01*
X133208028Y-110862786D01*
X133087715Y-111028386D01*
X132994781Y-111210776D01*
X132931522Y-111405465D01*
X132899500Y-111607648D01*
X131450500Y-111607648D01*
X131418477Y-111405466D01*
X131416060Y-111398028D01*
X131376968Y-111277715D01*
X131355220Y-111210781D01*
X131355218Y-111210778D01*
X131355218Y-111210776D01*
X131309740Y-111121522D01*
X131262287Y-111028390D01*
X131254556Y-111017749D01*
X131141971Y-110862786D01*
X130997213Y-110718028D01*
X130831613Y-110597715D01*
X130831612Y-110597714D01*
X130831610Y-110597713D01*
X130774653Y-110568691D01*
X130649223Y-110504781D01*
X130454534Y-110441522D01*
X130279995Y-110413878D01*
X130252352Y-110409500D01*
X130047648Y-110409500D01*
X130023329Y-110413351D01*
X129845465Y-110441522D01*
X129650776Y-110504781D01*
X129468386Y-110597715D01*
X129302786Y-110718028D01*
X129158028Y-110862786D01*
X129037715Y-111028386D01*
X128944781Y-111210776D01*
X128881522Y-111405465D01*
X128849500Y-111607648D01*
X118200500Y-111607648D01*
X118200500Y-106190548D01*
X123530000Y-106190548D01*
X123530000Y-106409451D01*
X123530001Y-106409467D01*
X123558573Y-106626496D01*
X123615234Y-106837956D01*
X123699004Y-107040198D01*
X123699012Y-107040214D01*
X123808460Y-107229782D01*
X123808466Y-107229790D01*
X123855438Y-107291007D01*
X124598958Y-106547487D01*
X124623978Y-106607890D01*
X124695112Y-106714351D01*
X124785649Y-106804888D01*
X124892110Y-106876022D01*
X124952511Y-106901041D01*
X124208991Y-107644560D01*
X124208991Y-107644561D01*
X124270200Y-107691527D01*
X124270208Y-107691532D01*
X124459792Y-107800990D01*
X124459801Y-107800995D01*
X124662043Y-107884765D01*
X124873503Y-107941426D01*
X125090532Y-107969998D01*
X125090549Y-107970000D01*
X125309451Y-107970000D01*
X125309467Y-107969998D01*
X125526496Y-107941426D01*
X125737956Y-107884765D01*
X125940198Y-107800995D01*
X125940214Y-107800987D01*
X126129785Y-107691537D01*
X126129793Y-107691531D01*
X126191007Y-107644560D01*
X126084836Y-107538389D01*
X137999500Y-107538389D01*
X137999500Y-107711611D01*
X138005580Y-107750000D01*
X138015188Y-107810665D01*
X138026598Y-107882701D01*
X138080127Y-108047445D01*
X138158768Y-108201788D01*
X138260586Y-108341928D01*
X138383072Y-108464414D01*
X138523212Y-108566232D01*
X138677555Y-108644873D01*
X138842299Y-108698402D01*
X139013389Y-108725500D01*
X139013390Y-108725500D01*
X139186610Y-108725500D01*
X139186611Y-108725500D01*
X139357701Y-108698402D01*
X139522445Y-108644873D01*
X139676788Y-108566232D01*
X139683591Y-108561289D01*
X140517261Y-108561289D01*
X140517262Y-108561290D01*
X140523471Y-108565801D01*
X140677742Y-108644408D01*
X140842415Y-108697914D01*
X141013429Y-108725000D01*
X141186571Y-108725000D01*
X141357584Y-108697914D01*
X141522257Y-108644408D01*
X141676525Y-108565803D01*
X141682736Y-108561289D01*
X141682737Y-108561289D01*
X141100001Y-107978553D01*
X141100000Y-107978553D01*
X140517261Y-108561289D01*
X139683591Y-108561289D01*
X139816928Y-108464414D01*
X139939414Y-108341928D01*
X140005948Y-108250351D01*
X140009268Y-108246493D01*
X140034489Y-108230157D01*
X140058280Y-108211812D01*
X140064149Y-108210946D01*
X140067912Y-108208510D01*
X140080991Y-108208463D01*
X140112999Y-108203745D01*
X140163710Y-108207736D01*
X140746446Y-107625001D01*
X140746446Y-107624999D01*
X140706951Y-107585504D01*
X140800000Y-107585504D01*
X140800000Y-107664496D01*
X140820444Y-107740796D01*
X140859940Y-107809205D01*
X140915795Y-107865060D01*
X140984204Y-107904556D01*
X141060504Y-107925000D01*
X141139496Y-107925000D01*
X141215796Y-107904556D01*
X141284205Y-107865060D01*
X141340060Y-107809205D01*
X141379556Y-107740796D01*
X141400000Y-107664496D01*
X141400000Y-107624999D01*
X141453553Y-107624999D01*
X141453553Y-107625000D01*
X142036289Y-108207736D01*
X142040803Y-108201525D01*
X142119408Y-108047257D01*
X142172914Y-107882584D01*
X142200000Y-107711571D01*
X142200000Y-107538428D01*
X142172914Y-107367415D01*
X142119408Y-107202742D01*
X142040801Y-107048471D01*
X142036290Y-107042262D01*
X142036289Y-107042261D01*
X141453553Y-107624999D01*
X141400000Y-107624999D01*
X141400000Y-107585504D01*
X141379556Y-107509204D01*
X141340060Y-107440795D01*
X141284205Y-107384940D01*
X141215796Y-107345444D01*
X141139496Y-107325000D01*
X141060504Y-107325000D01*
X140984204Y-107345444D01*
X140915795Y-107384940D01*
X140859940Y-107440795D01*
X140820444Y-107509204D01*
X140800000Y-107585504D01*
X140706951Y-107585504D01*
X140163708Y-107042261D01*
X140113004Y-107046254D01*
X140107869Y-107045175D01*
X140102830Y-107046636D01*
X140074024Y-107038067D01*
X140044626Y-107031893D01*
X140039538Y-107027809D01*
X140035861Y-107026715D01*
X140023041Y-107014564D01*
X140009269Y-107003508D01*
X140005947Y-106999647D01*
X139939414Y-106908072D01*
X139816928Y-106785586D01*
X139683587Y-106688708D01*
X140517261Y-106688708D01*
X140517261Y-106688709D01*
X141100000Y-107271446D01*
X141100001Y-107271446D01*
X141682737Y-106688709D01*
X141676525Y-106684196D01*
X141522259Y-106605592D01*
X141357584Y-106552085D01*
X141186571Y-106525000D01*
X141013429Y-106525000D01*
X140842415Y-106552085D01*
X140677740Y-106605592D01*
X140523480Y-106684193D01*
X140523463Y-106684203D01*
X140517261Y-106688708D01*
X139683587Y-106688708D01*
X139676788Y-106683768D01*
X139522445Y-106605127D01*
X139357701Y-106551598D01*
X139357699Y-106551597D01*
X139357698Y-106551597D01*
X139224342Y-106530476D01*
X139186611Y-106524500D01*
X139013389Y-106524500D01*
X138975658Y-106530476D01*
X138842302Y-106551597D01*
X138677552Y-106605128D01*
X138523211Y-106683768D01*
X138481118Y-106714351D01*
X138383072Y-106785586D01*
X138383070Y-106785588D01*
X138383069Y-106785588D01*
X138260588Y-106908069D01*
X138260588Y-106908070D01*
X138260586Y-106908072D01*
X138216859Y-106968256D01*
X138158768Y-107048211D01*
X138080128Y-107202552D01*
X138026597Y-107367302D01*
X138005953Y-107497648D01*
X137999500Y-107538389D01*
X126084836Y-107538389D01*
X125447488Y-106901041D01*
X125507890Y-106876022D01*
X125614351Y-106804888D01*
X125704888Y-106714351D01*
X125776022Y-106607890D01*
X125801041Y-106547488D01*
X126544560Y-107291007D01*
X126591531Y-107229793D01*
X126591537Y-107229785D01*
X126700987Y-107040214D01*
X126700995Y-107040198D01*
X126784765Y-106837956D01*
X126841426Y-106626496D01*
X126869998Y-106409467D01*
X126870000Y-106409451D01*
X126870000Y-106190548D01*
X126869998Y-106190532D01*
X126841426Y-105973503D01*
X126784765Y-105762043D01*
X126700995Y-105559801D01*
X126700990Y-105559792D01*
X126591532Y-105370208D01*
X126591527Y-105370200D01*
X126544560Y-105308991D01*
X125801041Y-106052510D01*
X125776022Y-105992110D01*
X125704888Y-105885649D01*
X125614351Y-105795112D01*
X125507890Y-105723978D01*
X125447487Y-105698957D01*
X126191007Y-104955438D01*
X126191007Y-104955437D01*
X126129790Y-104908466D01*
X126129782Y-104908460D01*
X125940214Y-104799012D01*
X125940198Y-104799004D01*
X125737956Y-104715234D01*
X125526496Y-104658573D01*
X125309467Y-104630001D01*
X125309451Y-104630000D01*
X125090549Y-104630000D01*
X125090532Y-104630001D01*
X124873503Y-104658573D01*
X124662043Y-104715234D01*
X124459801Y-104799004D01*
X124459785Y-104799012D01*
X124270215Y-104908461D01*
X124270200Y-104908471D01*
X124208990Y-104955438D01*
X124952511Y-105698958D01*
X124892110Y-105723978D01*
X124785649Y-105795112D01*
X124695112Y-105885649D01*
X124623978Y-105992110D01*
X124598958Y-106052511D01*
X123855438Y-105308990D01*
X123808471Y-105370200D01*
X123808461Y-105370215D01*
X123699012Y-105559785D01*
X123699004Y-105559801D01*
X123615234Y-105762043D01*
X123558573Y-105973503D01*
X123530001Y-106190532D01*
X123530000Y-106190548D01*
X118200500Y-106190548D01*
X118200500Y-103987648D01*
X128849500Y-103987648D01*
X128849500Y-104192351D01*
X128881522Y-104394534D01*
X128944781Y-104589223D01*
X129037715Y-104771613D01*
X129158028Y-104937213D01*
X129302786Y-105081971D01*
X129457749Y-105194556D01*
X129468390Y-105202287D01*
X129584607Y-105261503D01*
X129650776Y-105295218D01*
X129650778Y-105295218D01*
X129650781Y-105295220D01*
X129693161Y-105308990D01*
X129845465Y-105358477D01*
X129946557Y-105374488D01*
X130047648Y-105390500D01*
X130047649Y-105390500D01*
X130252351Y-105390500D01*
X130252352Y-105390500D01*
X130454534Y-105358477D01*
X130649219Y-105295220D01*
X130831610Y-105202287D01*
X130973467Y-105099223D01*
X130997213Y-105081971D01*
X130997215Y-105081968D01*
X130997219Y-105081966D01*
X131141966Y-104937219D01*
X131141968Y-104937215D01*
X131141971Y-104937213D01*
X131242384Y-104799004D01*
X131262287Y-104771610D01*
X131355220Y-104589219D01*
X131418477Y-104394534D01*
X131450500Y-104192352D01*
X131450500Y-103987648D01*
X132899500Y-103987648D01*
X132899500Y-104192351D01*
X132931522Y-104394534D01*
X132994781Y-104589223D01*
X133087715Y-104771613D01*
X133208028Y-104937213D01*
X133352786Y-105081971D01*
X133507749Y-105194556D01*
X133518390Y-105202287D01*
X133634607Y-105261503D01*
X133700776Y-105295218D01*
X133700778Y-105295218D01*
X133700781Y-105295220D01*
X133743161Y-105308990D01*
X133895465Y-105358477D01*
X133996557Y-105374488D01*
X134097648Y-105390500D01*
X134097649Y-105390500D01*
X134302351Y-105390500D01*
X134302352Y-105390500D01*
X134504534Y-105358477D01*
X134699219Y-105295220D01*
X134881610Y-105202287D01*
X135023467Y-105099223D01*
X135047213Y-105081971D01*
X135047215Y-105081968D01*
X135047219Y-105081966D01*
X135191966Y-104937219D01*
X135191968Y-104937215D01*
X135191971Y-104937213D01*
X135292384Y-104799004D01*
X135312287Y-104771610D01*
X135405220Y-104589219D01*
X135468477Y-104394534D01*
X135500500Y-104192352D01*
X135500500Y-103987648D01*
X135468477Y-103785466D01*
X135405220Y-103590781D01*
X135405218Y-103590778D01*
X135405218Y-103590776D01*
X135331178Y-103445466D01*
X135312287Y-103408390D01*
X135302736Y-103395244D01*
X135191971Y-103242786D01*
X135047213Y-103098028D01*
X134881613Y-102977715D01*
X134881612Y-102977714D01*
X134881610Y-102977713D01*
X134811353Y-102941915D01*
X134699223Y-102884781D01*
X134600133Y-102852585D01*
X134575133Y-102844462D01*
X134504534Y-102821522D01*
X134325081Y-102793100D01*
X134302352Y-102789500D01*
X134097648Y-102789500D01*
X134074919Y-102793100D01*
X133895465Y-102821522D01*
X133700776Y-102884781D01*
X133518386Y-102977715D01*
X133352786Y-103098028D01*
X133208028Y-103242786D01*
X133087715Y-103408386D01*
X132994781Y-103590776D01*
X132931522Y-103785465D01*
X132899500Y-103987648D01*
X131450500Y-103987648D01*
X131418477Y-103785466D01*
X131355220Y-103590781D01*
X131355218Y-103590778D01*
X131355218Y-103590776D01*
X131281178Y-103445466D01*
X131262287Y-103408390D01*
X131252736Y-103395244D01*
X131141971Y-103242786D01*
X130997213Y-103098028D01*
X130831613Y-102977715D01*
X130831612Y-102977714D01*
X130831610Y-102977713D01*
X130761353Y-102941915D01*
X130649223Y-102884781D01*
X130454534Y-102821522D01*
X130275081Y-102793100D01*
X130252352Y-102789500D01*
X130047648Y-102789500D01*
X130024919Y-102793100D01*
X129845465Y-102821522D01*
X129650776Y-102884781D01*
X129468386Y-102977715D01*
X129302786Y-103098028D01*
X129158028Y-103242786D01*
X129037715Y-103408386D01*
X128944781Y-103590776D01*
X128881522Y-103785465D01*
X128849500Y-103987648D01*
X118200500Y-103987648D01*
X118200500Y-101190502D01*
X123529500Y-101190502D01*
X123529500Y-101409497D01*
X123551505Y-101576631D01*
X123558083Y-101626598D01*
X123577751Y-101699999D01*
X123605175Y-101802351D01*
X123614759Y-101838117D01*
X123698560Y-102040428D01*
X123698562Y-102040433D01*
X123698565Y-102040438D01*
X123808049Y-102230070D01*
X123941355Y-102403798D01*
X123941361Y-102403805D01*
X124096194Y-102558638D01*
X124096201Y-102558644D01*
X124269929Y-102691950D01*
X124459561Y-102801434D01*
X124459563Y-102801434D01*
X124459572Y-102801440D01*
X124661883Y-102885241D01*
X124873402Y-102941917D01*
X125090510Y-102970500D01*
X125090517Y-102970500D01*
X125309483Y-102970500D01*
X125309490Y-102970500D01*
X125526598Y-102941917D01*
X125738117Y-102885241D01*
X125940428Y-102801440D01*
X126130071Y-102691950D01*
X126303800Y-102558643D01*
X126458643Y-102403800D01*
X126591950Y-102230071D01*
X126701440Y-102040428D01*
X126785241Y-101838117D01*
X126841917Y-101626598D01*
X126870500Y-101409490D01*
X126870500Y-101190510D01*
X126841917Y-100973402D01*
X126785241Y-100761883D01*
X126701440Y-100559572D01*
X126680946Y-100524076D01*
X126591950Y-100369929D01*
X126458644Y-100196201D01*
X126458638Y-100196194D01*
X126303805Y-100041361D01*
X126303798Y-100041355D01*
X126130070Y-99908049D01*
X125940438Y-99798565D01*
X125940433Y-99798562D01*
X125940428Y-99798560D01*
X125738117Y-99714759D01*
X125738118Y-99714759D01*
X125738115Y-99714758D01*
X125632357Y-99686421D01*
X125526598Y-99658083D01*
X125490314Y-99653306D01*
X125309497Y-99629500D01*
X125309490Y-99629500D01*
X125090510Y-99629500D01*
X125090502Y-99629500D01*
X124883853Y-99656707D01*
X124873402Y-99658083D01*
X124828699Y-99670060D01*
X124661884Y-99714758D01*
X124550980Y-99760697D01*
X124459572Y-99798560D01*
X124459569Y-99798561D01*
X124459561Y-99798565D01*
X124269929Y-99908049D01*
X124096201Y-100041355D01*
X124096194Y-100041361D01*
X123941361Y-100196194D01*
X123941355Y-100196201D01*
X123808049Y-100369929D01*
X123698565Y-100559561D01*
X123698561Y-100559569D01*
X123698560Y-100559572D01*
X123673313Y-100620523D01*
X123614758Y-100761884D01*
X123558084Y-100973399D01*
X123558082Y-100973410D01*
X123529500Y-101190502D01*
X118200500Y-101190502D01*
X118200500Y-98213389D01*
X130499500Y-98213389D01*
X130499500Y-98386611D01*
X130526598Y-98557701D01*
X130580127Y-98722445D01*
X130658768Y-98876788D01*
X130760586Y-99016928D01*
X130883072Y-99139414D01*
X131023212Y-99241232D01*
X131177555Y-99319873D01*
X131342299Y-99373402D01*
X131513389Y-99400500D01*
X131513390Y-99400500D01*
X131686610Y-99400500D01*
X131686611Y-99400500D01*
X131857701Y-99373402D01*
X132022445Y-99319873D01*
X132176788Y-99241232D01*
X132316928Y-99139414D01*
X132439414Y-99016928D01*
X132499682Y-98933975D01*
X132555012Y-98891311D01*
X132624626Y-98885332D01*
X132686421Y-98917938D01*
X132700315Y-98933973D01*
X132760586Y-99016928D01*
X132883072Y-99139414D01*
X133023212Y-99241232D01*
X133177555Y-99319873D01*
X133342299Y-99373402D01*
X133513389Y-99400500D01*
X133513390Y-99400500D01*
X133686610Y-99400500D01*
X133686611Y-99400500D01*
X133857701Y-99373402D01*
X134022445Y-99319873D01*
X134176788Y-99241232D01*
X134316928Y-99139414D01*
X134439414Y-99016928D01*
X134541232Y-98876788D01*
X134619873Y-98722445D01*
X134673402Y-98557701D01*
X134700500Y-98386611D01*
X134700500Y-98213389D01*
X134673402Y-98042299D01*
X134619873Y-97877555D01*
X134541232Y-97723212D01*
X134439414Y-97583072D01*
X134316928Y-97460586D01*
X134176788Y-97358768D01*
X134022445Y-97280127D01*
X133857701Y-97226598D01*
X133857699Y-97226597D01*
X133857698Y-97226597D01*
X133726271Y-97205781D01*
X133686611Y-97199500D01*
X133513389Y-97199500D01*
X133473728Y-97205781D01*
X133342302Y-97226597D01*
X133177552Y-97280128D01*
X133023211Y-97358768D01*
X132961231Y-97403800D01*
X132883072Y-97460586D01*
X132883070Y-97460588D01*
X132883069Y-97460588D01*
X132760588Y-97583069D01*
X132760581Y-97583078D01*
X132700317Y-97666023D01*
X132644987Y-97708689D01*
X132575374Y-97714667D01*
X132513579Y-97682061D01*
X132499683Y-97666023D01*
X132439418Y-97583078D01*
X132439414Y-97583072D01*
X132316928Y-97460586D01*
X132176788Y-97358768D01*
X132022445Y-97280127D01*
X131857701Y-97226598D01*
X131857699Y-97226597D01*
X131857698Y-97226597D01*
X131726271Y-97205781D01*
X131686611Y-97199500D01*
X131513389Y-97199500D01*
X131473728Y-97205781D01*
X131342302Y-97226597D01*
X131177552Y-97280128D01*
X131023211Y-97358768D01*
X130961231Y-97403800D01*
X130883072Y-97460586D01*
X130883070Y-97460588D01*
X130883069Y-97460588D01*
X130760588Y-97583069D01*
X130760588Y-97583070D01*
X130760586Y-97583072D01*
X130721616Y-97636709D01*
X130658768Y-97723211D01*
X130580128Y-97877552D01*
X130526597Y-98042302D01*
X130500700Y-98205815D01*
X130499500Y-98213389D01*
X118200500Y-98213389D01*
X118200500Y-96190502D01*
X123529500Y-96190502D01*
X123529500Y-96409497D01*
X123553306Y-96590314D01*
X123558083Y-96626598D01*
X123568534Y-96665601D01*
X123604679Y-96800500D01*
X123614759Y-96838117D01*
X123698560Y-97040428D01*
X123698562Y-97040433D01*
X123698565Y-97040438D01*
X123808049Y-97230070D01*
X123941355Y-97403798D01*
X123941361Y-97403805D01*
X124096194Y-97558638D01*
X124096201Y-97558644D01*
X124269929Y-97691950D01*
X124459561Y-97801434D01*
X124459563Y-97801434D01*
X124459572Y-97801440D01*
X124661883Y-97885241D01*
X124873402Y-97941917D01*
X125090510Y-97970500D01*
X125090517Y-97970500D01*
X125309483Y-97970500D01*
X125309490Y-97970500D01*
X125526598Y-97941917D01*
X125738117Y-97885241D01*
X125940428Y-97801440D01*
X126130071Y-97691950D01*
X126303800Y-97558643D01*
X126458643Y-97403800D01*
X126591950Y-97230071D01*
X126701440Y-97040428D01*
X126785241Y-96838117D01*
X126841917Y-96626598D01*
X126870500Y-96409490D01*
X126870500Y-96190510D01*
X126841917Y-95973402D01*
X126785241Y-95761883D01*
X126701440Y-95559572D01*
X126591950Y-95369929D01*
X126458643Y-95196200D01*
X126458638Y-95196194D01*
X126303805Y-95041361D01*
X126303798Y-95041355D01*
X126130070Y-94908049D01*
X125940438Y-94798565D01*
X125940433Y-94798562D01*
X125940428Y-94798560D01*
X125738117Y-94714759D01*
X125738118Y-94714759D01*
X125738115Y-94714758D01*
X125632357Y-94686421D01*
X125526598Y-94658083D01*
X125486326Y-94652781D01*
X125309497Y-94629500D01*
X125309490Y-94629500D01*
X125090510Y-94629500D01*
X125090502Y-94629500D01*
X124883853Y-94656707D01*
X124873402Y-94658083D01*
X124828699Y-94670060D01*
X124661884Y-94714758D01*
X124543374Y-94763847D01*
X124459572Y-94798560D01*
X124459569Y-94798561D01*
X124459561Y-94798565D01*
X124269929Y-94908049D01*
X124096201Y-95041355D01*
X124096194Y-95041361D01*
X123941361Y-95196194D01*
X123941355Y-95196201D01*
X123808049Y-95369929D01*
X123698565Y-95559561D01*
X123698560Y-95559573D01*
X123614758Y-95761884D01*
X123558084Y-95973399D01*
X123558082Y-95973410D01*
X123529500Y-96190502D01*
X118200500Y-96190502D01*
X118200500Y-86101577D01*
X140849500Y-86101577D01*
X140849500Y-97833548D01*
X140880290Y-98027952D01*
X140941117Y-98215156D01*
X140969062Y-98270000D01*
X141030476Y-98390531D01*
X141146172Y-98549772D01*
X141146174Y-98549774D01*
X142970733Y-100374333D01*
X143004218Y-100435656D01*
X142999234Y-100505348D01*
X142957362Y-100561281D01*
X142939350Y-100572497D01*
X142908649Y-100588140D01*
X142908645Y-100588143D01*
X142864077Y-100620523D01*
X142864077Y-100620524D01*
X143543554Y-101300000D01*
X143537339Y-101300000D01*
X143435606Y-101327259D01*
X143344394Y-101379920D01*
X143269920Y-101454394D01*
X143217259Y-101545606D01*
X143190000Y-101647339D01*
X143190000Y-101653553D01*
X142510524Y-100974077D01*
X142510523Y-100974077D01*
X142478143Y-101018644D01*
X142385244Y-101200968D01*
X142322009Y-101395582D01*
X142290000Y-101597682D01*
X142290000Y-101802317D01*
X142322009Y-102004417D01*
X142385244Y-102199031D01*
X142478141Y-102381350D01*
X142478147Y-102381359D01*
X142510523Y-102425921D01*
X142510524Y-102425922D01*
X143190000Y-101746446D01*
X143190000Y-101752661D01*
X143217259Y-101854394D01*
X143269920Y-101945606D01*
X143344394Y-102020080D01*
X143435606Y-102072741D01*
X143537339Y-102100000D01*
X143543553Y-102100000D01*
X142864076Y-102779474D01*
X142908650Y-102811859D01*
X143090968Y-102904755D01*
X143285582Y-102967990D01*
X143487683Y-103000000D01*
X143692317Y-103000000D01*
X143894417Y-102967990D01*
X144089031Y-102904755D01*
X144271349Y-102811859D01*
X144315921Y-102779474D01*
X143636447Y-102100000D01*
X143642661Y-102100000D01*
X143744394Y-102072741D01*
X143835606Y-102020080D01*
X143910080Y-101945606D01*
X143962741Y-101854394D01*
X143990000Y-101752661D01*
X143990000Y-101746446D01*
X144669474Y-102425921D01*
X144701859Y-102381349D01*
X144717499Y-102350654D01*
X144765473Y-102299857D01*
X144833293Y-102283061D01*
X144899429Y-102305597D01*
X144915666Y-102319266D01*
X145353181Y-102756781D01*
X145386666Y-102818104D01*
X145389500Y-102844462D01*
X145389500Y-109238422D01*
X145420290Y-109432826D01*
X145481117Y-109620030D01*
X145570476Y-109795405D01*
X145686172Y-109954646D01*
X145686174Y-109954648D01*
X146618400Y-110886874D01*
X146651885Y-110948197D01*
X146646901Y-111017889D01*
X146605029Y-111073822D01*
X146550117Y-111097028D01*
X146395465Y-111121522D01*
X146200776Y-111184781D01*
X146018386Y-111277715D01*
X145852786Y-111398028D01*
X145708028Y-111542786D01*
X145587715Y-111708386D01*
X145494781Y-111890776D01*
X145431522Y-112085465D01*
X145399500Y-112287648D01*
X145399500Y-112492351D01*
X145431522Y-112694534D01*
X145494781Y-112889223D01*
X145587715Y-113071613D01*
X145708028Y-113237213D01*
X145852786Y-113381971D01*
X146007749Y-113494556D01*
X146018390Y-113502287D01*
X146110719Y-113549331D01*
X146200776Y-113595218D01*
X146200778Y-113595218D01*
X146200781Y-113595220D01*
X146305137Y-113629127D01*
X146395465Y-113658477D01*
X146496557Y-113674488D01*
X146597648Y-113690500D01*
X146597649Y-113690500D01*
X146802351Y-113690500D01*
X146802352Y-113690500D01*
X147004534Y-113658477D01*
X147199219Y-113595220D01*
X147381610Y-113502287D01*
X147474590Y-113434732D01*
X147547213Y-113381971D01*
X147547215Y-113381968D01*
X147547219Y-113381966D01*
X147691966Y-113237219D01*
X147691968Y-113237215D01*
X147691971Y-113237213D01*
X147762618Y-113139974D01*
X147812287Y-113071610D01*
X147905220Y-112889219D01*
X147968477Y-112694534D01*
X147992972Y-112539880D01*
X148022900Y-112476749D01*
X148082211Y-112439817D01*
X148152074Y-112440815D01*
X148203125Y-112471600D01*
X149659682Y-113928157D01*
X149693167Y-113989480D01*
X149688183Y-114059172D01*
X149677540Y-114080934D01*
X149585189Y-114230658D01*
X149585186Y-114230665D01*
X149530001Y-114397202D01*
X149530001Y-114397203D01*
X149530000Y-114397203D01*
X149519500Y-114499982D01*
X149519500Y-116300017D01*
X149530000Y-116402796D01*
X149585185Y-116569332D01*
X149585186Y-116569335D01*
X149677288Y-116718656D01*
X149801344Y-116842712D01*
X149950665Y-116934814D01*
X150117202Y-116989999D01*
X150219990Y-117000500D01*
X150219995Y-117000500D01*
X152020005Y-117000500D01*
X152020010Y-117000500D01*
X152122798Y-116989999D01*
X152289335Y-116934814D01*
X152438656Y-116842712D01*
X152562712Y-116718656D01*
X152654814Y-116569335D01*
X152709999Y-116402798D01*
X152720500Y-116300010D01*
X152720500Y-114499990D01*
X152709999Y-114397202D01*
X152654814Y-114230665D01*
X152562712Y-114081344D01*
X152438656Y-113957288D01*
X152438655Y-113957287D01*
X152429402Y-113951580D01*
X152382678Y-113899632D01*
X152370500Y-113846042D01*
X152370500Y-113521577D01*
X152348519Y-113382799D01*
X152339709Y-113327174D01*
X152316549Y-113255894D01*
X152278884Y-113139974D01*
X152278882Y-113139971D01*
X152278882Y-113139969D01*
X152244051Y-113071610D01*
X152189524Y-112964595D01*
X152134763Y-112889223D01*
X152073834Y-112805360D01*
X152073830Y-112805355D01*
X150245675Y-110977200D01*
X148380654Y-109112180D01*
X148347170Y-109050858D01*
X148352154Y-108981166D01*
X148394026Y-108925233D01*
X148459490Y-108900816D01*
X148468336Y-108900500D01*
X148492351Y-108900500D01*
X148492352Y-108900500D01*
X148694534Y-108868477D01*
X148722714Y-108859320D01*
X148731184Y-108856569D01*
X148769502Y-108850500D01*
X152910664Y-108850500D01*
X152977703Y-108870185D01*
X152998345Y-108886819D01*
X159658916Y-115547391D01*
X159692401Y-115608714D01*
X159693708Y-115615673D01*
X159718909Y-115774782D01*
X159718910Y-115774785D01*
X159796759Y-116014379D01*
X159851214Y-116121254D01*
X159911132Y-116238848D01*
X160059201Y-116442649D01*
X160059205Y-116442654D01*
X160237345Y-116620794D01*
X160237350Y-116620798D01*
X160400725Y-116739496D01*
X160441155Y-116768870D01*
X160533253Y-116815796D01*
X160665616Y-116883239D01*
X160665618Y-116883239D01*
X160665621Y-116883241D01*
X160905215Y-116961090D01*
X161154038Y-117000500D01*
X161154039Y-117000500D01*
X161405961Y-117000500D01*
X161405962Y-117000500D01*
X161654785Y-116961090D01*
X161894379Y-116883241D01*
X162118845Y-116768870D01*
X162216874Y-116697648D01*
X168199500Y-116697648D01*
X168199500Y-116902351D01*
X168231522Y-117104534D01*
X168294781Y-117299223D01*
X168387715Y-117481613D01*
X168508028Y-117647213D01*
X168652786Y-117791971D01*
X168807749Y-117904556D01*
X168818390Y-117912287D01*
X168934607Y-117971503D01*
X169000776Y-118005218D01*
X169000778Y-118005218D01*
X169000781Y-118005220D01*
X169105137Y-118039127D01*
X169195465Y-118068477D01*
X169296557Y-118084488D01*
X169397648Y-118100500D01*
X169397649Y-118100500D01*
X169602351Y-118100500D01*
X169602352Y-118100500D01*
X169804534Y-118068477D01*
X169999219Y-118005220D01*
X170181610Y-117912287D01*
X170274590Y-117844732D01*
X170347213Y-117791971D01*
X170347215Y-117791968D01*
X170347219Y-117791966D01*
X170491966Y-117647219D01*
X170491968Y-117647215D01*
X170491971Y-117647213D01*
X170570292Y-117539411D01*
X170612287Y-117481610D01*
X170705220Y-117299219D01*
X170768477Y-117104534D01*
X170800500Y-116902352D01*
X170800500Y-116697648D01*
X173199500Y-116697648D01*
X173199500Y-116902351D01*
X173231522Y-117104534D01*
X173294781Y-117299223D01*
X173387715Y-117481613D01*
X173508028Y-117647213D01*
X173652786Y-117791971D01*
X173807749Y-117904556D01*
X173818390Y-117912287D01*
X173934607Y-117971503D01*
X174000776Y-118005218D01*
X174000778Y-118005218D01*
X174000781Y-118005220D01*
X174105137Y-118039127D01*
X174195465Y-118068477D01*
X174296557Y-118084488D01*
X174397648Y-118100500D01*
X174397649Y-118100500D01*
X174602351Y-118100500D01*
X174602352Y-118100500D01*
X174804534Y-118068477D01*
X174999219Y-118005220D01*
X175181610Y-117912287D01*
X175274590Y-117844732D01*
X175347213Y-117791971D01*
X175347215Y-117791968D01*
X175347219Y-117791966D01*
X175491966Y-117647219D01*
X175491968Y-117647215D01*
X175491971Y-117647213D01*
X175570292Y-117539411D01*
X175612287Y-117481610D01*
X175705220Y-117299219D01*
X175768477Y-117104534D01*
X175800500Y-116902352D01*
X175800500Y-116697648D01*
X175787161Y-116613428D01*
X175768477Y-116495465D01*
X175705218Y-116300776D01*
X175671503Y-116234607D01*
X175612287Y-116118390D01*
X175591344Y-116089564D01*
X175491971Y-115952786D01*
X175347213Y-115808028D01*
X175181613Y-115687715D01*
X175181612Y-115687714D01*
X175181610Y-115687713D01*
X175124653Y-115658691D01*
X174999223Y-115594781D01*
X174804534Y-115531522D01*
X174629995Y-115503878D01*
X174602352Y-115499500D01*
X174397648Y-115499500D01*
X174373329Y-115503351D01*
X174195465Y-115531522D01*
X174000776Y-115594781D01*
X173818386Y-115687715D01*
X173652786Y-115808028D01*
X173508028Y-115952786D01*
X173387715Y-116118386D01*
X173294781Y-116300776D01*
X173231522Y-116495465D01*
X173199500Y-116697648D01*
X170800500Y-116697648D01*
X170787161Y-116613428D01*
X170768477Y-116495465D01*
X170705218Y-116300776D01*
X170671503Y-116234607D01*
X170612287Y-116118390D01*
X170591344Y-116089564D01*
X170491971Y-115952786D01*
X170347213Y-115808028D01*
X170181613Y-115687715D01*
X170181612Y-115687714D01*
X170181610Y-115687713D01*
X170124653Y-115658691D01*
X169999223Y-115594781D01*
X169804534Y-115531522D01*
X169629995Y-115503878D01*
X169602352Y-115499500D01*
X169397648Y-115499500D01*
X169373329Y-115503351D01*
X169195465Y-115531522D01*
X169000776Y-115594781D01*
X168818386Y-115687715D01*
X168652786Y-115808028D01*
X168508028Y-115952786D01*
X168387715Y-116118386D01*
X168294781Y-116300776D01*
X168231522Y-116495465D01*
X168199500Y-116697648D01*
X162216874Y-116697648D01*
X162322656Y-116620793D01*
X162500793Y-116442656D01*
X162648870Y-116238845D01*
X162763241Y-116014379D01*
X162841090Y-115774785D01*
X162880500Y-115525962D01*
X162880500Y-115274038D01*
X162841090Y-115025215D01*
X162763241Y-114785621D01*
X162763239Y-114785618D01*
X162763239Y-114785616D01*
X162721747Y-114704184D01*
X162648870Y-114561155D01*
X162604425Y-114499982D01*
X162500798Y-114357350D01*
X162500794Y-114357345D01*
X162322654Y-114179205D01*
X162322649Y-114179201D01*
X162118848Y-114031132D01*
X162118847Y-114031131D01*
X162118845Y-114031130D01*
X161894379Y-113916759D01*
X161654785Y-113838910D01*
X161654783Y-113838909D01*
X161495673Y-113813708D01*
X161432539Y-113783778D01*
X161427391Y-113778916D01*
X158728458Y-111079983D01*
X187499500Y-111079983D01*
X187499500Y-113280001D01*
X187499501Y-113280018D01*
X187510000Y-113382796D01*
X187510001Y-113382799D01*
X187565185Y-113549331D01*
X187565187Y-113549336D01*
X187600069Y-113605888D01*
X187657288Y-113698656D01*
X187781344Y-113822712D01*
X187930666Y-113914814D01*
X188097203Y-113969999D01*
X188199991Y-113980500D01*
X190400008Y-113980499D01*
X190502797Y-113969999D01*
X190669334Y-113914814D01*
X190818656Y-113822712D01*
X190942712Y-113698656D01*
X191034814Y-113549334D01*
X191089999Y-113382797D01*
X191100500Y-113280009D01*
X191100499Y-111079992D01*
X191089999Y-110977203D01*
X191034814Y-110810666D01*
X190942712Y-110661344D01*
X190818656Y-110537288D01*
X190669334Y-110445186D01*
X190502797Y-110390001D01*
X190502795Y-110390000D01*
X190400010Y-110379500D01*
X188199998Y-110379500D01*
X188199981Y-110379501D01*
X188097203Y-110390000D01*
X188097200Y-110390001D01*
X187930668Y-110445185D01*
X187930663Y-110445187D01*
X187781342Y-110537289D01*
X187657289Y-110661342D01*
X187565187Y-110810663D01*
X187565186Y-110810666D01*
X187510001Y-110977203D01*
X187510001Y-110977204D01*
X187510000Y-110977204D01*
X187499500Y-111079983D01*
X158728458Y-111079983D01*
X156593119Y-108944644D01*
X156559634Y-108883321D01*
X156564618Y-108813629D01*
X156606490Y-108757696D01*
X156624506Y-108746478D01*
X156691610Y-108712287D01*
X156784401Y-108644871D01*
X156857213Y-108591971D01*
X156857215Y-108591968D01*
X156857219Y-108591966D01*
X157001966Y-108447219D01*
X157001968Y-108447215D01*
X157001971Y-108447213D01*
X157078463Y-108341929D01*
X157122287Y-108281610D01*
X157215220Y-108099219D01*
X157221470Y-108079982D01*
X161099500Y-108079982D01*
X161099500Y-109880017D01*
X161110000Y-109982796D01*
X161110001Y-109982798D01*
X161165186Y-110149335D01*
X161257288Y-110298656D01*
X161381344Y-110422712D01*
X161530665Y-110514814D01*
X161697202Y-110569999D01*
X161799990Y-110580500D01*
X161799995Y-110580500D01*
X163600005Y-110580500D01*
X163600010Y-110580500D01*
X163702798Y-110569999D01*
X163869335Y-110514814D01*
X164018656Y-110422712D01*
X164142712Y-110298656D01*
X164234814Y-110149335D01*
X164289999Y-109982798D01*
X164300500Y-109880010D01*
X164300500Y-108079990D01*
X164289999Y-107977202D01*
X164234814Y-107810665D01*
X164142712Y-107661344D01*
X164018656Y-107537288D01*
X163869335Y-107445186D01*
X163702798Y-107390001D01*
X163702796Y-107390000D01*
X163600017Y-107379500D01*
X163600010Y-107379500D01*
X161799990Y-107379500D01*
X161799982Y-107379500D01*
X161697203Y-107390000D01*
X161697202Y-107390001D01*
X161643217Y-107407890D01*
X161530667Y-107445185D01*
X161530662Y-107445187D01*
X161381342Y-107537289D01*
X161257289Y-107661342D01*
X161165187Y-107810662D01*
X161165186Y-107810665D01*
X161110001Y-107977202D01*
X161110001Y-107977203D01*
X161110000Y-107977203D01*
X161099500Y-108079982D01*
X157221470Y-108079982D01*
X157278477Y-107904534D01*
X157310500Y-107702352D01*
X157310500Y-107497648D01*
X157301495Y-107440795D01*
X157278477Y-107295465D01*
X157215218Y-107100776D01*
X157181325Y-107034258D01*
X157165657Y-107003508D01*
X157154705Y-106982014D01*
X187500000Y-106982014D01*
X187500000Y-107217985D01*
X187530799Y-107451914D01*
X187591870Y-107679837D01*
X187682160Y-107897819D01*
X187682165Y-107897828D01*
X187800144Y-108102171D01*
X187800145Y-108102172D01*
X187862721Y-108183723D01*
X188698958Y-107347487D01*
X188723978Y-107407890D01*
X188795112Y-107514351D01*
X188885649Y-107604888D01*
X188992110Y-107676022D01*
X189052511Y-107701041D01*
X188216275Y-108537277D01*
X188297827Y-108599854D01*
X188297828Y-108599855D01*
X188502171Y-108717834D01*
X188502180Y-108717839D01*
X188720163Y-108808129D01*
X188720161Y-108808129D01*
X188948085Y-108869200D01*
X189182014Y-108899999D01*
X189182029Y-108900000D01*
X189417971Y-108900000D01*
X189417985Y-108899999D01*
X189651914Y-108869200D01*
X189879837Y-108808129D01*
X190097819Y-108717839D01*
X190097828Y-108717834D01*
X190302181Y-108599850D01*
X190383723Y-108537279D01*
X190383723Y-108537276D01*
X189547487Y-107701041D01*
X189607890Y-107676022D01*
X189714351Y-107604888D01*
X189804888Y-107514351D01*
X189876022Y-107407890D01*
X189901041Y-107347487D01*
X190737276Y-108183723D01*
X190737279Y-108183723D01*
X190799850Y-108102181D01*
X190917834Y-107897828D01*
X190917839Y-107897819D01*
X191008129Y-107679837D01*
X191069200Y-107451914D01*
X191099999Y-107217985D01*
X191100000Y-107217971D01*
X191100000Y-106982028D01*
X191099999Y-106982014D01*
X191069200Y-106748085D01*
X191008129Y-106520162D01*
X190917839Y-106302180D01*
X190917834Y-106302171D01*
X190799855Y-106097828D01*
X190799854Y-106097827D01*
X190737277Y-106016275D01*
X189901041Y-106852511D01*
X189876022Y-106792110D01*
X189804888Y-106685649D01*
X189714351Y-106595112D01*
X189607890Y-106523978D01*
X189547488Y-106498958D01*
X190383723Y-105662721D01*
X190302172Y-105600145D01*
X190302171Y-105600144D01*
X190097828Y-105482165D01*
X190097819Y-105482160D01*
X189879836Y-105391870D01*
X189879838Y-105391870D01*
X189651914Y-105330799D01*
X189417985Y-105300000D01*
X189182014Y-105300000D01*
X188948085Y-105330799D01*
X188720162Y-105391870D01*
X188502180Y-105482160D01*
X188502171Y-105482165D01*
X188297828Y-105600144D01*
X188297818Y-105600150D01*
X188216275Y-105662720D01*
X188216275Y-105662721D01*
X189052512Y-106498958D01*
X188992110Y-106523978D01*
X188885649Y-106595112D01*
X188795112Y-106685649D01*
X188723978Y-106792110D01*
X188698958Y-106852512D01*
X187862721Y-106016275D01*
X187862720Y-106016275D01*
X187800150Y-106097818D01*
X187800144Y-106097828D01*
X187682165Y-106302171D01*
X187682160Y-106302180D01*
X187591870Y-106520162D01*
X187530799Y-106748085D01*
X187500000Y-106982014D01*
X157154705Y-106982014D01*
X157122287Y-106918390D01*
X157063849Y-106837956D01*
X157001971Y-106752786D01*
X156857213Y-106608028D01*
X156691613Y-106487715D01*
X156691612Y-106487714D01*
X156691610Y-106487713D01*
X156617594Y-106450000D01*
X156509223Y-106394781D01*
X156314534Y-106331522D01*
X156139995Y-106303878D01*
X156112352Y-106299500D01*
X155907648Y-106299500D01*
X155883329Y-106303351D01*
X155705465Y-106331522D01*
X155510776Y-106394781D01*
X155328386Y-106487715D01*
X155162786Y-106608028D01*
X155018028Y-106752786D01*
X154897715Y-106918386D01*
X154863521Y-106985495D01*
X154815546Y-107036291D01*
X154747725Y-107053086D01*
X154681590Y-107030548D01*
X154665355Y-107016881D01*
X154294648Y-106646174D01*
X154294646Y-106646172D01*
X154135405Y-106530476D01*
X154124658Y-106525000D01*
X153960030Y-106441117D01*
X153772826Y-106380290D01*
X153578422Y-106349500D01*
X153578417Y-106349500D01*
X149764500Y-106349500D01*
X149697461Y-106329815D01*
X149651706Y-106277011D01*
X149640500Y-106225500D01*
X149640500Y-105089335D01*
X149660185Y-105022296D01*
X149676814Y-105001659D01*
X151030824Y-103647648D01*
X168499500Y-103647648D01*
X168499500Y-103852352D01*
X168502941Y-103874076D01*
X168531522Y-104054534D01*
X168594781Y-104249223D01*
X168618403Y-104295582D01*
X168687712Y-104431609D01*
X168687715Y-104431613D01*
X168808028Y-104597213D01*
X168952786Y-104741971D01*
X169095430Y-104845606D01*
X169118390Y-104862287D01*
X169209031Y-104908471D01*
X169300776Y-104955218D01*
X169300778Y-104955218D01*
X169300781Y-104955220D01*
X169405137Y-104989127D01*
X169495465Y-105018477D01*
X169596557Y-105034488D01*
X169697648Y-105050500D01*
X169697649Y-105050500D01*
X169902351Y-105050500D01*
X169902352Y-105050500D01*
X170104534Y-105018477D01*
X170299219Y-104955220D01*
X170481610Y-104862287D01*
X170606413Y-104771613D01*
X170647213Y-104741971D01*
X170647215Y-104741968D01*
X170647219Y-104741966D01*
X170791966Y-104597219D01*
X170791968Y-104597215D01*
X170791971Y-104597213D01*
X170864308Y-104497648D01*
X175049500Y-104497648D01*
X175049500Y-104702351D01*
X175081522Y-104904534D01*
X175144781Y-105099223D01*
X175187248Y-105182567D01*
X175237585Y-105281359D01*
X175237715Y-105281613D01*
X175358028Y-105447213D01*
X175502786Y-105591971D01*
X175623225Y-105679473D01*
X175668390Y-105712287D01*
X175784607Y-105771503D01*
X175850776Y-105805218D01*
X175850778Y-105805218D01*
X175850781Y-105805220D01*
X175955137Y-105839127D01*
X176045465Y-105868477D01*
X176146557Y-105884488D01*
X176247648Y-105900500D01*
X176247649Y-105900500D01*
X176452351Y-105900500D01*
X176452352Y-105900500D01*
X176654534Y-105868477D01*
X176849219Y-105805220D01*
X177031610Y-105712287D01*
X177185955Y-105600150D01*
X177197213Y-105591971D01*
X177197215Y-105591968D01*
X177197219Y-105591966D01*
X177341966Y-105447219D01*
X177341968Y-105447215D01*
X177341971Y-105447213D01*
X177462286Y-105281611D01*
X177462415Y-105281359D01*
X177489795Y-105227621D01*
X177537769Y-105176826D01*
X177605589Y-105160030D01*
X177671725Y-105182567D01*
X177710765Y-105227621D01*
X177738141Y-105281350D01*
X177738147Y-105281359D01*
X177770523Y-105325921D01*
X177770524Y-105325922D01*
X178450000Y-104646446D01*
X178450000Y-104652661D01*
X178477259Y-104754394D01*
X178529920Y-104845606D01*
X178604394Y-104920080D01*
X178695606Y-104972741D01*
X178797339Y-105000000D01*
X178803553Y-105000000D01*
X178124076Y-105679474D01*
X178168650Y-105711859D01*
X178350968Y-105804755D01*
X178545582Y-105867990D01*
X178747683Y-105900000D01*
X178952317Y-105900000D01*
X179154417Y-105867990D01*
X179349031Y-105804755D01*
X179531349Y-105711859D01*
X179575921Y-105679474D01*
X179575921Y-105679473D01*
X178896447Y-105000000D01*
X178902661Y-105000000D01*
X179004394Y-104972741D01*
X179095606Y-104920080D01*
X179170080Y-104845606D01*
X179222741Y-104754394D01*
X179250000Y-104652661D01*
X179250000Y-104646448D01*
X179929474Y-105325922D01*
X179929474Y-105325921D01*
X179961859Y-105281349D01*
X180054755Y-105099031D01*
X180117990Y-104904417D01*
X180150000Y-104702317D01*
X180150000Y-104497682D01*
X180117990Y-104295582D01*
X180054755Y-104100968D01*
X179961859Y-103918650D01*
X179929474Y-103874077D01*
X179929474Y-103874076D01*
X179250000Y-104553551D01*
X179250000Y-104547339D01*
X179222741Y-104445606D01*
X179170080Y-104354394D01*
X179095606Y-104279920D01*
X179004394Y-104227259D01*
X178902661Y-104200000D01*
X178896446Y-104200000D01*
X179575922Y-103520524D01*
X179575921Y-103520523D01*
X179531359Y-103488147D01*
X179531350Y-103488141D01*
X179349031Y-103395244D01*
X179154417Y-103332009D01*
X178952317Y-103300000D01*
X178747683Y-103300000D01*
X178545582Y-103332009D01*
X178350968Y-103395244D01*
X178168644Y-103488143D01*
X178124077Y-103520523D01*
X178124077Y-103520524D01*
X178803554Y-104200000D01*
X178797339Y-104200000D01*
X178695606Y-104227259D01*
X178604394Y-104279920D01*
X178529920Y-104354394D01*
X178477259Y-104445606D01*
X178450000Y-104547339D01*
X178450000Y-104553553D01*
X177770524Y-103874077D01*
X177734230Y-103876934D01*
X177720618Y-103874074D01*
X177706853Y-103876054D01*
X177687101Y-103867033D01*
X177665852Y-103862570D01*
X177655947Y-103852806D01*
X177643297Y-103847029D01*
X177631557Y-103828762D01*
X177616095Y-103813519D01*
X177612268Y-103798747D01*
X177605523Y-103788251D01*
X177600500Y-103753316D01*
X177600500Y-97619335D01*
X177620185Y-97552296D01*
X177636815Y-97531658D01*
X178515890Y-96652582D01*
X178547275Y-96629780D01*
X178581610Y-96612287D01*
X178747219Y-96491966D01*
X178891966Y-96347219D01*
X178891968Y-96347215D01*
X178891971Y-96347213D01*
X179005816Y-96190516D01*
X179012287Y-96181610D01*
X179105220Y-95999219D01*
X179168477Y-95804534D01*
X179200500Y-95602352D01*
X179200500Y-95397648D01*
X179183199Y-95288417D01*
X179168477Y-95195465D01*
X179105218Y-95000776D01*
X179057971Y-94908050D01*
X179012287Y-94818390D01*
X178997880Y-94798560D01*
X178891971Y-94652786D01*
X178747213Y-94508028D01*
X178581613Y-94387715D01*
X178581612Y-94387714D01*
X178581610Y-94387713D01*
X178502517Y-94347413D01*
X178399223Y-94294781D01*
X178204534Y-94231522D01*
X178029995Y-94203878D01*
X178002352Y-94199500D01*
X177797648Y-94199500D01*
X177773329Y-94203351D01*
X177595465Y-94231522D01*
X177400776Y-94294781D01*
X177218386Y-94387715D01*
X177052786Y-94508028D01*
X176908028Y-94652786D01*
X176787714Y-94818386D01*
X176770216Y-94852727D01*
X176747414Y-94884110D01*
X175396174Y-96235351D01*
X175396172Y-96235354D01*
X175346485Y-96303741D01*
X175280476Y-96394594D01*
X175191115Y-96569973D01*
X175191114Y-96569976D01*
X175160045Y-96665601D01*
X175130290Y-96757176D01*
X175130290Y-96757177D01*
X175099500Y-96951577D01*
X175099500Y-104220498D01*
X175093431Y-104258816D01*
X175081523Y-104295464D01*
X175049500Y-104497648D01*
X170864308Y-104497648D01*
X170912282Y-104431617D01*
X170912282Y-104431616D01*
X170912287Y-104431610D01*
X171005220Y-104249219D01*
X171068477Y-104054534D01*
X171100500Y-103852352D01*
X171100500Y-103647648D01*
X171075237Y-103488147D01*
X171068477Y-103445465D01*
X171039127Y-103355137D01*
X171005220Y-103250781D01*
X171005218Y-103250778D01*
X171005218Y-103250776D01*
X170927388Y-103098028D01*
X170912287Y-103068390D01*
X170891185Y-103039345D01*
X170791971Y-102902786D01*
X170647213Y-102758028D01*
X170481611Y-102637713D01*
X170427621Y-102610203D01*
X170376825Y-102562228D01*
X170360031Y-102494407D01*
X170382569Y-102428272D01*
X170427624Y-102389233D01*
X170481349Y-102361859D01*
X170525921Y-102329474D01*
X169846447Y-101650000D01*
X169852661Y-101650000D01*
X169954394Y-101622741D01*
X170045606Y-101570080D01*
X170120080Y-101495606D01*
X170172741Y-101404394D01*
X170200000Y-101302661D01*
X170200000Y-101296448D01*
X170879474Y-101975922D01*
X170879474Y-101975921D01*
X170911859Y-101931349D01*
X171004755Y-101749031D01*
X171067990Y-101554417D01*
X171100000Y-101352317D01*
X171100000Y-101147682D01*
X171067990Y-100945582D01*
X171004755Y-100750968D01*
X170911859Y-100568650D01*
X170879474Y-100524077D01*
X170879474Y-100524076D01*
X170200000Y-101203551D01*
X170200000Y-101197339D01*
X170172741Y-101095606D01*
X170120080Y-101004394D01*
X170045606Y-100929920D01*
X169954394Y-100877259D01*
X169852661Y-100850000D01*
X169846446Y-100850000D01*
X170525922Y-100170524D01*
X170525921Y-100170523D01*
X170481359Y-100138147D01*
X170481350Y-100138141D01*
X170299031Y-100045244D01*
X170104417Y-99982009D01*
X169902317Y-99950000D01*
X169697683Y-99950000D01*
X169495582Y-99982009D01*
X169300968Y-100045244D01*
X169118644Y-100138143D01*
X169074077Y-100170523D01*
X169074077Y-100170524D01*
X169753554Y-100850000D01*
X169747339Y-100850000D01*
X169645606Y-100877259D01*
X169554394Y-100929920D01*
X169479920Y-101004394D01*
X169427259Y-101095606D01*
X169400000Y-101197339D01*
X169400000Y-101203553D01*
X168720524Y-100524077D01*
X168720523Y-100524077D01*
X168688143Y-100568644D01*
X168595244Y-100750968D01*
X168532009Y-100945582D01*
X168500000Y-101147682D01*
X168500000Y-101352317D01*
X168532009Y-101554417D01*
X168595244Y-101749031D01*
X168688141Y-101931350D01*
X168688147Y-101931359D01*
X168720523Y-101975921D01*
X168720524Y-101975922D01*
X169400000Y-101296446D01*
X169400000Y-101302661D01*
X169427259Y-101404394D01*
X169479920Y-101495606D01*
X169554394Y-101570080D01*
X169645606Y-101622741D01*
X169747339Y-101650000D01*
X169753553Y-101650000D01*
X169074076Y-102329474D01*
X169118652Y-102361861D01*
X169172376Y-102389234D01*
X169223172Y-102437208D01*
X169239968Y-102505028D01*
X169217431Y-102571164D01*
X169172379Y-102610203D01*
X169118386Y-102637714D01*
X168952786Y-102758028D01*
X168808028Y-102902786D01*
X168687715Y-103068386D01*
X168594781Y-103250776D01*
X168531522Y-103445465D01*
X168508507Y-103590781D01*
X168499500Y-103647648D01*
X151030824Y-103647648D01*
X151825890Y-102852582D01*
X151857275Y-102829780D01*
X151891610Y-102812287D01*
X152057219Y-102691966D01*
X152201966Y-102547219D01*
X152201968Y-102547215D01*
X152201971Y-102547213D01*
X152288385Y-102428272D01*
X152322287Y-102381610D01*
X152415220Y-102199219D01*
X152478477Y-102004534D01*
X152510500Y-101802352D01*
X152510500Y-101597648D01*
X152488774Y-101460478D01*
X152478477Y-101395465D01*
X152456315Y-101327259D01*
X152415220Y-101200781D01*
X152322287Y-101018390D01*
X152322285Y-101018387D01*
X152322284Y-101018385D01*
X152201971Y-100852786D01*
X152057213Y-100708028D01*
X151891611Y-100587713D01*
X151857272Y-100570216D01*
X151825887Y-100547413D01*
X149972545Y-98694071D01*
X161100000Y-98694071D01*
X161100000Y-98945928D01*
X161139397Y-99194669D01*
X161217219Y-99434184D01*
X161331557Y-99658583D01*
X161405748Y-99760697D01*
X161405748Y-99760698D01*
X162176212Y-98990234D01*
X162187482Y-99032292D01*
X162259890Y-99157708D01*
X162362292Y-99260110D01*
X162487708Y-99332518D01*
X162529765Y-99343787D01*
X161759300Y-100114250D01*
X161861416Y-100188442D01*
X162085815Y-100302780D01*
X162325330Y-100380602D01*
X162574072Y-100420000D01*
X162825928Y-100420000D01*
X163074669Y-100380602D01*
X163314184Y-100302780D01*
X163538575Y-100188446D01*
X163538581Y-100188442D01*
X163636274Y-100117465D01*
X163640697Y-100114250D01*
X163640698Y-100114250D01*
X162870234Y-99343787D01*
X162912292Y-99332518D01*
X163037708Y-99260110D01*
X163140110Y-99157708D01*
X163212518Y-99032292D01*
X163223787Y-98990235D01*
X163994250Y-99760698D01*
X163994250Y-99760697D01*
X164068442Y-99658581D01*
X164068446Y-99658575D01*
X164182780Y-99434184D01*
X164260602Y-99194669D01*
X164300000Y-98945928D01*
X164300000Y-98694071D01*
X164260602Y-98445330D01*
X164182780Y-98205815D01*
X164068442Y-97981416D01*
X163994250Y-97879301D01*
X163994250Y-97879300D01*
X163223787Y-98649764D01*
X163212518Y-98607708D01*
X163140110Y-98482292D01*
X163037708Y-98379890D01*
X162912292Y-98307482D01*
X162870232Y-98296212D01*
X163640698Y-97525748D01*
X163538583Y-97451557D01*
X163314184Y-97337219D01*
X163074669Y-97259397D01*
X162825928Y-97220000D01*
X162574072Y-97220000D01*
X162325330Y-97259397D01*
X162085815Y-97337219D01*
X161861413Y-97451559D01*
X161759301Y-97525747D01*
X161759300Y-97525748D01*
X162529765Y-98296212D01*
X162487708Y-98307482D01*
X162362292Y-98379890D01*
X162259890Y-98482292D01*
X162187482Y-98607708D01*
X162176212Y-98649765D01*
X161405748Y-97879300D01*
X161405747Y-97879301D01*
X161331559Y-97981413D01*
X161217219Y-98205815D01*
X161139397Y-98445330D01*
X161100000Y-98694071D01*
X149972545Y-98694071D01*
X145986819Y-94708345D01*
X145953334Y-94647022D01*
X145950500Y-94620664D01*
X145950500Y-89660391D01*
X145964016Y-89604095D01*
X145997895Y-89537606D01*
X146066015Y-89327951D01*
X146100500Y-89110222D01*
X146100500Y-88889778D01*
X146699500Y-88889778D01*
X146699500Y-89110221D01*
X146733985Y-89327952D01*
X146802103Y-89537603D01*
X146802104Y-89537606D01*
X146864668Y-89660391D01*
X146887956Y-89706097D01*
X146902187Y-89734025D01*
X147031752Y-89912358D01*
X147031756Y-89912363D01*
X147187636Y-90068243D01*
X147187641Y-90068247D01*
X147343192Y-90181260D01*
X147365978Y-90197815D01*
X147494375Y-90263237D01*
X147562393Y-90297895D01*
X147562396Y-90297896D01*
X147667221Y-90331955D01*
X147772049Y-90366015D01*
X147989778Y-90400500D01*
X147989779Y-90400500D01*
X148210221Y-90400500D01*
X148210222Y-90400500D01*
X148427951Y-90366015D01*
X148637606Y-90297895D01*
X148834022Y-90197815D01*
X149012365Y-90068242D01*
X149168242Y-89912365D01*
X149297815Y-89734022D01*
X149397895Y-89537606D01*
X149466015Y-89327951D01*
X149500500Y-89110222D01*
X149500500Y-88889778D01*
X149466015Y-88672049D01*
X149431955Y-88567221D01*
X149397896Y-88462396D01*
X149397895Y-88462393D01*
X149351861Y-88372049D01*
X149297815Y-88265978D01*
X149225181Y-88166005D01*
X149168247Y-88087641D01*
X149168243Y-88087636D01*
X149012363Y-87931756D01*
X149012358Y-87931752D01*
X148938761Y-87878281D01*
X148834025Y-87802187D01*
X148834024Y-87802186D01*
X148834022Y-87802185D01*
X148794435Y-87782014D01*
X158000000Y-87782014D01*
X158000000Y-88017985D01*
X158030799Y-88251914D01*
X158091870Y-88479837D01*
X158182160Y-88697819D01*
X158182165Y-88697828D01*
X158300144Y-88902171D01*
X158300145Y-88902172D01*
X158362721Y-88983723D01*
X159198958Y-88147487D01*
X159223978Y-88207890D01*
X159295112Y-88314351D01*
X159385649Y-88404888D01*
X159492110Y-88476022D01*
X159552511Y-88501041D01*
X158716275Y-89337277D01*
X158797827Y-89399854D01*
X158797828Y-89399855D01*
X159002171Y-89517834D01*
X159002180Y-89517839D01*
X159220163Y-89608129D01*
X159220161Y-89608129D01*
X159448085Y-89669200D01*
X159682014Y-89699999D01*
X159682029Y-89700000D01*
X159917971Y-89700000D01*
X159917985Y-89699999D01*
X160151914Y-89669200D01*
X160379837Y-89608129D01*
X160597819Y-89517839D01*
X160597828Y-89517834D01*
X160802181Y-89399850D01*
X160883723Y-89337279D01*
X160883723Y-89337276D01*
X160047487Y-88501041D01*
X160107890Y-88476022D01*
X160214351Y-88404888D01*
X160304888Y-88314351D01*
X160376022Y-88207890D01*
X160401041Y-88147487D01*
X161237276Y-88983723D01*
X161237279Y-88983723D01*
X161299850Y-88902181D01*
X161417834Y-88697828D01*
X161417839Y-88697819D01*
X161508129Y-88479837D01*
X161569200Y-88251914D01*
X161599999Y-88017985D01*
X161600000Y-88017971D01*
X161600000Y-87782028D01*
X161599999Y-87782014D01*
X161569200Y-87548085D01*
X161508129Y-87320162D01*
X161417839Y-87102180D01*
X161417834Y-87102171D01*
X161299855Y-86897828D01*
X161299848Y-86897817D01*
X161280286Y-86872324D01*
X161280283Y-86872321D01*
X161237277Y-86816275D01*
X160401041Y-87652511D01*
X160376022Y-87592110D01*
X160304888Y-87485649D01*
X160214351Y-87395112D01*
X160107890Y-87323978D01*
X160047488Y-87298958D01*
X160546462Y-86799983D01*
X163079500Y-86799983D01*
X163079500Y-89000001D01*
X163079501Y-89000018D01*
X163090000Y-89102796D01*
X163090001Y-89102799D01*
X163134672Y-89237606D01*
X163145186Y-89269334D01*
X163237288Y-89418656D01*
X163361344Y-89542712D01*
X163510666Y-89634814D01*
X163677203Y-89689999D01*
X163779991Y-89700500D01*
X165980008Y-89700499D01*
X166082797Y-89689999D01*
X166249334Y-89634814D01*
X166398656Y-89542712D01*
X166522712Y-89418656D01*
X166614814Y-89269334D01*
X166669999Y-89102797D01*
X166680500Y-89000009D01*
X166680499Y-87752155D01*
X171400000Y-87752155D01*
X171400000Y-88450000D01*
X172424722Y-88450000D01*
X172380667Y-88526306D01*
X172350000Y-88640756D01*
X172350000Y-88759244D01*
X172380667Y-88873694D01*
X172424722Y-88950000D01*
X171400000Y-88950000D01*
X171400000Y-89647844D01*
X171406401Y-89707372D01*
X171406403Y-89707379D01*
X171456645Y-89842086D01*
X171456649Y-89842093D01*
X171542809Y-89957187D01*
X171542812Y-89957190D01*
X171657906Y-90043350D01*
X171657913Y-90043354D01*
X171792620Y-90093596D01*
X171792627Y-90093598D01*
X171852155Y-90099999D01*
X171852172Y-90100000D01*
X172550000Y-90100000D01*
X172550000Y-89075277D01*
X172626306Y-89119333D01*
X172740756Y-89150000D01*
X172859244Y-89150000D01*
X172973694Y-89119333D01*
X173050000Y-89075277D01*
X173050000Y-90100000D01*
X173747828Y-90100000D01*
X173747844Y-90099999D01*
X173807372Y-90093598D01*
X173807379Y-90093596D01*
X173942086Y-90043354D01*
X173942093Y-90043350D01*
X174057187Y-89957190D01*
X174057190Y-89957187D01*
X174143350Y-89842093D01*
X174143354Y-89842086D01*
X174173213Y-89762031D01*
X174215084Y-89706097D01*
X174280548Y-89681680D01*
X174348821Y-89696531D01*
X174377076Y-89717683D01*
X174427636Y-89768243D01*
X174427641Y-89768247D01*
X174583192Y-89881260D01*
X174605978Y-89897815D01*
X174709377Y-89950500D01*
X174802393Y-89997895D01*
X174802396Y-89997896D01*
X174907221Y-90031955D01*
X175012049Y-90066015D01*
X175229778Y-90100500D01*
X175229779Y-90100500D01*
X175450221Y-90100500D01*
X175450222Y-90100500D01*
X175667951Y-90066015D01*
X175877606Y-89997895D01*
X175899344Y-89986819D01*
X175944099Y-89964015D01*
X176000394Y-89950500D01*
X178150664Y-89950500D01*
X178217703Y-89970185D01*
X178238345Y-89986819D01*
X184367413Y-96115887D01*
X184390216Y-96147272D01*
X184407713Y-96181611D01*
X184528028Y-96347213D01*
X184672786Y-96491971D01*
X184780153Y-96569976D01*
X184838390Y-96612287D01*
X184954607Y-96671503D01*
X185020776Y-96705218D01*
X185020778Y-96705218D01*
X185020781Y-96705220D01*
X185125137Y-96739127D01*
X185215465Y-96768477D01*
X185316557Y-96784488D01*
X185417648Y-96800500D01*
X185417649Y-96800500D01*
X185622351Y-96800500D01*
X185622352Y-96800500D01*
X185824534Y-96768477D01*
X186019219Y-96705220D01*
X186201610Y-96612287D01*
X186294590Y-96544732D01*
X186367213Y-96491971D01*
X186367215Y-96491968D01*
X186367219Y-96491966D01*
X186511966Y-96347219D01*
X186511968Y-96347215D01*
X186511971Y-96347213D01*
X186625816Y-96190516D01*
X186632287Y-96181610D01*
X186725220Y-95999219D01*
X186788477Y-95804534D01*
X186820500Y-95602352D01*
X186820500Y-95397648D01*
X186803199Y-95288417D01*
X186788477Y-95195465D01*
X186725218Y-95000776D01*
X186677971Y-94908050D01*
X186632287Y-94818390D01*
X186617880Y-94798560D01*
X186511971Y-94652786D01*
X186367213Y-94508028D01*
X186201611Y-94387713D01*
X186167272Y-94370216D01*
X186135887Y-94347413D01*
X179534648Y-87746174D01*
X179534646Y-87746172D01*
X179375405Y-87630476D01*
X179200030Y-87541117D01*
X179012826Y-87480290D01*
X178818422Y-87449500D01*
X178818417Y-87449500D01*
X176000394Y-87449500D01*
X175944099Y-87435985D01*
X175877606Y-87402104D01*
X175877603Y-87402103D01*
X175667952Y-87333985D01*
X175559086Y-87316742D01*
X175450222Y-87299500D01*
X175229778Y-87299500D01*
X175157201Y-87310995D01*
X175012047Y-87333985D01*
X174802396Y-87402103D01*
X174802393Y-87402104D01*
X174605974Y-87502187D01*
X174427641Y-87631752D01*
X174427636Y-87631756D01*
X174377075Y-87682317D01*
X174315752Y-87715801D01*
X174246060Y-87710816D01*
X174190127Y-87668945D01*
X174173213Y-87637968D01*
X174143354Y-87557913D01*
X174143350Y-87557906D01*
X174057190Y-87442812D01*
X174057187Y-87442809D01*
X173942093Y-87356649D01*
X173942086Y-87356645D01*
X173807379Y-87306403D01*
X173807372Y-87306401D01*
X173747844Y-87300000D01*
X173050000Y-87300000D01*
X173050000Y-88324722D01*
X172973694Y-88280667D01*
X172859244Y-88250000D01*
X172740756Y-88250000D01*
X172626306Y-88280667D01*
X172550000Y-88324722D01*
X172550000Y-87300000D01*
X171852155Y-87300000D01*
X171792627Y-87306401D01*
X171792620Y-87306403D01*
X171657913Y-87356645D01*
X171657906Y-87356649D01*
X171542812Y-87442809D01*
X171542809Y-87442812D01*
X171456649Y-87557906D01*
X171456645Y-87557913D01*
X171406403Y-87692620D01*
X171406401Y-87692627D01*
X171400000Y-87752155D01*
X166680499Y-87752155D01*
X166680499Y-86799992D01*
X166677367Y-86769336D01*
X166669999Y-86697203D01*
X166669998Y-86697200D01*
X166652302Y-86643797D01*
X166614814Y-86530666D01*
X166522712Y-86381344D01*
X166398656Y-86257288D01*
X166249334Y-86165186D01*
X166082797Y-86110001D01*
X166082795Y-86110000D01*
X165980010Y-86099500D01*
X163779998Y-86099500D01*
X163779981Y-86099501D01*
X163677203Y-86110000D01*
X163677200Y-86110001D01*
X163510668Y-86165185D01*
X163510663Y-86165187D01*
X163361342Y-86257289D01*
X163237289Y-86381342D01*
X163145187Y-86530663D01*
X163145185Y-86530668D01*
X163123062Y-86597432D01*
X163090001Y-86697203D01*
X163090001Y-86697204D01*
X163090000Y-86697204D01*
X163079500Y-86799983D01*
X160546462Y-86799983D01*
X160883723Y-86462721D01*
X160802172Y-86400145D01*
X160802171Y-86400144D01*
X160597828Y-86282165D01*
X160597819Y-86282160D01*
X160379836Y-86191870D01*
X160379838Y-86191870D01*
X160151914Y-86130799D01*
X159917985Y-86100000D01*
X159682014Y-86100000D01*
X159448085Y-86130799D01*
X159220162Y-86191870D01*
X159002180Y-86282160D01*
X159002171Y-86282165D01*
X158797828Y-86400144D01*
X158797818Y-86400150D01*
X158716275Y-86462720D01*
X158716275Y-86462721D01*
X159552512Y-87298958D01*
X159492110Y-87323978D01*
X159385649Y-87395112D01*
X159295112Y-87485649D01*
X159223978Y-87592110D01*
X159198958Y-87652512D01*
X158362721Y-86816275D01*
X158362720Y-86816275D01*
X158300150Y-86897818D01*
X158300144Y-86897828D01*
X158182165Y-87102171D01*
X158182160Y-87102180D01*
X158091870Y-87320162D01*
X158030799Y-87548085D01*
X158000000Y-87782014D01*
X148794435Y-87782014D01*
X148735834Y-87752155D01*
X148637606Y-87702104D01*
X148637603Y-87702103D01*
X148427952Y-87633985D01*
X148319086Y-87616742D01*
X148210222Y-87599500D01*
X147989778Y-87599500D01*
X147917201Y-87610995D01*
X147772047Y-87633985D01*
X147562396Y-87702103D01*
X147562393Y-87702104D01*
X147365974Y-87802187D01*
X147187641Y-87931752D01*
X147187636Y-87931756D01*
X147031756Y-88087636D01*
X147031752Y-88087641D01*
X146902187Y-88265974D01*
X146802104Y-88462393D01*
X146802103Y-88462396D01*
X146733985Y-88672047D01*
X146699500Y-88889778D01*
X146100500Y-88889778D01*
X146066015Y-88672049D01*
X146031955Y-88567221D01*
X145997896Y-88462396D01*
X145997895Y-88462393D01*
X145951861Y-88372049D01*
X145897815Y-88265978D01*
X145825181Y-88166005D01*
X145768247Y-88087641D01*
X145768243Y-88087636D01*
X145612363Y-87931756D01*
X145612358Y-87931752D01*
X145434025Y-87802187D01*
X145434024Y-87802186D01*
X145434022Y-87802185D01*
X145335834Y-87752155D01*
X145237606Y-87702104D01*
X145237603Y-87702103D01*
X145027952Y-87633985D01*
X144919086Y-87616742D01*
X144810222Y-87599500D01*
X144589778Y-87599500D01*
X144517201Y-87610995D01*
X144372047Y-87633985D01*
X144162396Y-87702103D01*
X144162393Y-87702104D01*
X143965974Y-87802187D01*
X143787641Y-87931752D01*
X143787636Y-87931756D01*
X143631756Y-88087636D01*
X143631752Y-88087641D01*
X143574818Y-88166005D01*
X143519488Y-88208671D01*
X143449875Y-88214650D01*
X143388080Y-88182044D01*
X143353723Y-88121206D01*
X143350500Y-88093120D01*
X143350500Y-86769336D01*
X143370185Y-86702297D01*
X143386814Y-86681659D01*
X143417270Y-86651203D01*
X143466631Y-86620955D01*
X143537606Y-86597895D01*
X143734022Y-86497815D01*
X143912365Y-86368242D01*
X144068242Y-86212365D01*
X144197815Y-86034022D01*
X144297895Y-85837606D01*
X144366015Y-85627951D01*
X144400500Y-85410222D01*
X144400500Y-85189818D01*
X145000000Y-85189818D01*
X145000000Y-85410181D01*
X145034473Y-85627835D01*
X145102567Y-85837410D01*
X145202611Y-86033756D01*
X145248932Y-86097513D01*
X145876212Y-85470233D01*
X145887482Y-85512292D01*
X145959890Y-85637708D01*
X146062292Y-85740110D01*
X146187708Y-85812518D01*
X146229765Y-85823787D01*
X145602485Y-86451065D01*
X145602485Y-86451066D01*
X145666243Y-86497388D01*
X145862589Y-86597432D01*
X146072164Y-86665526D01*
X146289819Y-86700000D01*
X146510181Y-86700000D01*
X146727835Y-86665526D01*
X146937410Y-86597432D01*
X147133760Y-86497386D01*
X147197513Y-86451066D01*
X147197514Y-86451066D01*
X146570234Y-85823787D01*
X146612292Y-85812518D01*
X146737708Y-85740110D01*
X146840110Y-85637708D01*
X146912518Y-85512292D01*
X146923787Y-85470235D01*
X147551066Y-86097514D01*
X147551066Y-86097513D01*
X147597386Y-86033760D01*
X147697432Y-85837410D01*
X147765526Y-85627835D01*
X147800000Y-85410181D01*
X147800000Y-85189818D01*
X147765526Y-84972164D01*
X147697432Y-84762589D01*
X147597388Y-84566243D01*
X147551066Y-84502485D01*
X147551065Y-84502485D01*
X146923787Y-85129764D01*
X146912518Y-85087708D01*
X146840110Y-84962292D01*
X146737708Y-84859890D01*
X146612292Y-84787482D01*
X146570233Y-84776212D01*
X146994311Y-84352135D01*
X148399500Y-84352135D01*
X148399500Y-86247870D01*
X148399501Y-86247876D01*
X148405908Y-86307483D01*
X148456202Y-86442328D01*
X148456206Y-86442335D01*
X148542452Y-86557544D01*
X148542455Y-86557547D01*
X148657664Y-86643793D01*
X148657671Y-86643797D01*
X148792517Y-86694091D01*
X148792516Y-86694091D01*
X148799444Y-86694835D01*
X148852127Y-86700500D01*
X150747872Y-86700499D01*
X150807483Y-86694091D01*
X150942331Y-86643796D01*
X151057546Y-86557546D01*
X151143796Y-86442331D01*
X151194091Y-86307483D01*
X151200500Y-86247873D01*
X151200499Y-84352128D01*
X151194091Y-84292517D01*
X151171429Y-84231758D01*
X151143797Y-84157671D01*
X151143793Y-84157664D01*
X151057547Y-84042455D01*
X151057544Y-84042452D01*
X150942335Y-83956206D01*
X150942328Y-83956202D01*
X150807482Y-83905908D01*
X150807483Y-83905908D01*
X150747883Y-83899501D01*
X150747881Y-83899500D01*
X150747873Y-83899500D01*
X150747864Y-83899500D01*
X148852129Y-83899500D01*
X148852123Y-83899501D01*
X148792516Y-83905908D01*
X148657671Y-83956202D01*
X148657664Y-83956206D01*
X148542455Y-84042452D01*
X148542452Y-84042455D01*
X148456206Y-84157664D01*
X148456202Y-84157671D01*
X148405908Y-84292517D01*
X148399501Y-84352116D01*
X148399501Y-84352123D01*
X148399500Y-84352135D01*
X146994311Y-84352135D01*
X147085321Y-84261125D01*
X147197513Y-84148932D01*
X147133756Y-84102611D01*
X146937410Y-84002567D01*
X146727835Y-83934473D01*
X146510181Y-83900000D01*
X146289819Y-83900000D01*
X146072164Y-83934473D01*
X145862589Y-84002567D01*
X145666233Y-84102616D01*
X145602485Y-84148931D01*
X145602485Y-84148932D01*
X146229765Y-84776212D01*
X146187708Y-84787482D01*
X146062292Y-84859890D01*
X145959890Y-84962292D01*
X145887482Y-85087708D01*
X145876212Y-85129765D01*
X145248932Y-84502485D01*
X145248931Y-84502485D01*
X145202616Y-84566233D01*
X145102567Y-84762589D01*
X145034473Y-84972164D01*
X145000000Y-85189818D01*
X144400500Y-85189818D01*
X144400500Y-85189778D01*
X144366015Y-84972049D01*
X144331955Y-84867221D01*
X144297896Y-84762396D01*
X144297895Y-84762393D01*
X144263237Y-84694375D01*
X144197815Y-84565978D01*
X144151685Y-84502485D01*
X144068247Y-84387641D01*
X144068243Y-84387636D01*
X143912363Y-84231756D01*
X143912358Y-84231752D01*
X143734025Y-84102187D01*
X143734024Y-84102186D01*
X143734022Y-84102185D01*
X143616791Y-84042452D01*
X143537606Y-84002104D01*
X143537603Y-84002103D01*
X143327952Y-83933985D01*
X143219086Y-83916742D01*
X143110222Y-83899500D01*
X142889778Y-83899500D01*
X142817201Y-83910995D01*
X142672047Y-83933985D01*
X142462396Y-84002103D01*
X142462393Y-84002104D01*
X142265974Y-84102187D01*
X142087641Y-84231752D01*
X142087636Y-84231756D01*
X141931756Y-84387636D01*
X141931752Y-84387641D01*
X141802187Y-84565974D01*
X141802185Y-84565978D01*
X141702105Y-84762394D01*
X141685742Y-84812753D01*
X141679044Y-84833368D01*
X141648794Y-84882730D01*
X141146175Y-85385350D01*
X141146174Y-85385351D01*
X141146172Y-85385354D01*
X141096485Y-85453741D01*
X141030476Y-85544594D01*
X140941117Y-85719971D01*
X140902895Y-85837606D01*
X140902895Y-85837607D01*
X140880290Y-85907173D01*
X140849500Y-86101577D01*
X118200500Y-86101577D01*
X118200500Y-82624500D01*
X118220185Y-82557461D01*
X118272989Y-82511706D01*
X118324500Y-82500500D01*
X194175500Y-82500500D01*
X194242539Y-82520185D01*
G37*
%TD.AperFunction*%
%TA.AperFunction,Conductor*%
G36*
X154229474Y-126625921D02*
G01*
X154261859Y-126581349D01*
X154289233Y-126527624D01*
X154337207Y-126476827D01*
X154405028Y-126460031D01*
X154471163Y-126482567D01*
X154510203Y-126527621D01*
X154537713Y-126581611D01*
X154658028Y-126747213D01*
X154802786Y-126891971D01*
X154923226Y-126979474D01*
X154968390Y-127012287D01*
X155055042Y-127056438D01*
X155071874Y-127065015D01*
X155122670Y-127112990D01*
X155139465Y-127180811D01*
X155116927Y-127246946D01*
X155062212Y-127290397D01*
X155015579Y-127299500D01*
X153783321Y-127299500D01*
X153716282Y-127279815D01*
X153670527Y-127227011D01*
X153660583Y-127157853D01*
X153689608Y-127094297D01*
X153727026Y-127065015D01*
X153831349Y-127011859D01*
X153875921Y-126979474D01*
X153196447Y-126300000D01*
X153202661Y-126300000D01*
X153304394Y-126272741D01*
X153395606Y-126220080D01*
X153470080Y-126145606D01*
X153522741Y-126054394D01*
X153550000Y-125952661D01*
X153550000Y-125946447D01*
X154229474Y-126625921D01*
G37*
%TD.AperFunction*%
%TD*%
M02*
