%TF.GenerationSoftware,KiCad,Pcbnew,10.0.5*%
%TF.CreationDate,2026-09-25T23:13:27+05:30*%
%TF.ProjectId,Audio Amplifier,41756469-6f20-4416-9d70-6c6966696572,rev?*%
%TF.SameCoordinates,Original*%
%TF.FileFunction,Copper,L1,Top*%
%TF.FilePolarity,Positive*%
%FSLAX46Y46*%
G04 Gerber Fmt 4.6, Leading zero omitted, Abs format (unit mm)*
G04 Created by KiCad (PCBNEW 10.0.5) date 2026-09-25 23:13:27*
%MOMM*%
%LPD*%
G01*
G04 APERTURE LIST*
G04 Aperture macros list*
%AMRoundRect*
0 Rectangle with rounded corners*
0 $1 Rounding radius*
0 $2 $3 $4 $5 $6 $7 $8 $9 X,Y pos of 4 corners*
0 Add a 4 corners polygon primitive as box body*
4,1,4,$2,$3,$4,$5,$6,$7,$8,$9,$2,$3,0*
0 Add four circle primitives for the rounded corners*
1,1,$1+$1,$2,$3*
1,1,$1+$1,$4,$5*
1,1,$1+$1,$6,$7*
1,1,$1+$1,$8,$9*
0 Add four rect primitives between the rounded corners*
20,1,$1+$1,$2,$3,$4,$5,0*
20,1,$1+$1,$4,$5,$6,$7,0*
20,1,$1+$1,$6,$7,$8,$9,0*
20,1,$1+$1,$8,$9,$2,$3,0*%
G04 Aperture macros list end*
%TA.AperFunction,SMDPad,CuDef*%
%ADD10R,2.400000X2.550000*%
%TD*%
%TA.AperFunction,SMDPad,CuDef*%
%ADD11R,2.900000X2.550000*%
%TD*%
%TA.AperFunction,ComponentPad*%
%ADD12R,1.800000X1.800000*%
%TD*%
%TA.AperFunction,ComponentPad*%
%ADD13C,1.800000*%
%TD*%
%TA.AperFunction,ComponentPad*%
%ADD14RoundRect,0.249999X-0.850001X-0.850001X0.850001X-0.850001X0.850001X0.850001X-0.850001X0.850001X0*%
%TD*%
%TA.AperFunction,ComponentPad*%
%ADD15C,2.200000*%
%TD*%
%TA.AperFunction,ComponentPad*%
%ADD16C,1.600000*%
%TD*%
%TA.AperFunction,ComponentPad*%
%ADD17RoundRect,0.250000X1.050000X1.050000X-1.050000X1.050000X-1.050000X-1.050000X1.050000X-1.050000X0*%
%TD*%
%TA.AperFunction,ComponentPad*%
%ADD18C,2.600000*%
%TD*%
%TA.AperFunction,ComponentPad*%
%ADD19C,2.340000*%
%TD*%
%TA.AperFunction,ComponentPad*%
%ADD20C,1.200000*%
%TD*%
%TA.AperFunction,ComponentPad*%
%ADD21RoundRect,0.249999X0.850001X-0.850001X0.850001X0.850001X-0.850001X0.850001X-0.850001X-0.850001X0*%
%TD*%
%TA.AperFunction,ComponentPad*%
%ADD22RoundRect,0.250000X1.050000X-1.050000X1.050000X1.050000X-1.050000X1.050000X-1.050000X-1.050000X0*%
%TD*%
%TA.AperFunction,Conductor*%
%ADD23C,2.000000*%
%TD*%
%TA.AperFunction,Conductor*%
%ADD24C,1.500000*%
%TD*%
G04 APERTURE END LIST*
D10*
%TO.P,J3,1,SLEEVE_1*%
%TO.N,Net-(J3-SLEEVE)*%
X124000000Y-124875000D03*
D11*
%TO.P,J3,2,TIP_2*%
%TO.N,GND*%
X133300000Y-124875000D03*
D10*
%TO.P,J3,3,RING_3*%
%TO.N,unconnected-(J3-RING-Pad3)*%
X125900000Y-117525000D03*
%TD*%
D12*
%TO.P,U1,1,+_1*%
%TO.N,Net-(U1-+)*%
X149800000Y-85300000D03*
D13*
%TO.P,U1,2,-_2*%
%TO.N,Net-(U1--)*%
X148100000Y-89000000D03*
%TO.P,U1,3,-Vs_3*%
%TO.N,GND*%
X146400000Y-85300000D03*
%TO.P,U1,4*%
%TO.N,Net-(D2-A)*%
X144700000Y-89000000D03*
%TO.P,U1,5,+Vs_5*%
%TO.N,Net-(D2-K)*%
X143000000Y-85300000D03*
%TD*%
D14*
%TO.P,D2,1,K_1*%
%TO.N,Net-(D2-K)*%
X151120000Y-115400000D03*
D15*
%TO.P,D2,2,A_2*%
%TO.N,Net-(D2-A)*%
X161280000Y-115400000D03*
%TD*%
D16*
%TO.P,R6,1*%
%TO.N,Net-(D2-A)*%
X151090000Y-121200000D03*
%TO.P,R6,2*%
%TO.N,Net-(C6-Pad1)*%
X158710000Y-121200000D03*
%TD*%
%TO.P,R2,1*%
%TO.N,Net-(D2-A)*%
X148390000Y-107600000D03*
%TO.P,R2,2*%
%TO.N,Net-(C1-Pad1)*%
X156010000Y-107600000D03*
%TD*%
%TO.P,C3,1*%
%TO.N,Net-(D2-A)*%
X176350000Y-104600000D03*
%TO.P,C3,2*%
%TO.N,GND*%
X178850000Y-104600000D03*
%TD*%
D17*
%TO.P,J1,1,Pin_1_1*%
%TO.N,Net-(D2-A)*%
X164880000Y-87900000D03*
D18*
%TO.P,J1,2,Pin_2_2*%
%TO.N,GND*%
X159800000Y-87900000D03*
%TD*%
D19*
%TO.P,RV1,1,1_1*%
%TO.N,Net-(J3-SLEEVE)*%
X125200000Y-96300000D03*
%TO.P,RV1,2,2_2*%
%TO.N,Net-(C2-Pad1)*%
X125200000Y-101300000D03*
%TO.P,RV1,3,3_3*%
%TO.N,GND*%
X125200000Y-106300000D03*
%TD*%
D20*
%TO.P,C4,1*%
%TO.N,Net-(C4-Pad1)*%
X138600000Y-116700000D03*
%TO.P,C4,2*%
%TO.N,GND*%
X140600000Y-116700000D03*
%TD*%
D16*
%TO.P,C5,1*%
%TO.N,Net-(D2-A)*%
X169800000Y-103750000D03*
%TO.P,C5,2*%
%TO.N,GND*%
X169800000Y-101250000D03*
%TD*%
D12*
%TO.P,D1,1,K_1*%
%TO.N,GND*%
X172800000Y-88700000D03*
D13*
%TO.P,D1,2,A_2*%
%TO.N,Net-(D1-A)*%
X175340000Y-88700000D03*
%TD*%
D16*
%TO.P,R4,1*%
%TO.N,Net-(U1--)*%
X134200000Y-111710000D03*
%TO.P,R4,2*%
%TO.N,Net-(C4-Pad1)*%
X134200000Y-104090000D03*
%TD*%
%TO.P,C6,1*%
%TO.N,Net-(C6-Pad1)*%
X155650000Y-125900000D03*
%TO.P,C6,2*%
%TO.N,GND*%
X153150000Y-125900000D03*
%TD*%
D20*
%TO.P,C2,1*%
%TO.N,Net-(C2-Pad1)*%
X131600000Y-98300000D03*
%TO.P,C2,2*%
%TO.N,Net-(U1-+)*%
X133600000Y-98300000D03*
%TD*%
%TO.P,C1,1*%
%TO.N,Net-(C1-Pad1)*%
X139100000Y-107625000D03*
%TO.P,C1,2*%
%TO.N,GND*%
X141100000Y-107625000D03*
%TD*%
D21*
%TO.P,D3,1,K_1*%
%TO.N,Net-(D2-A)*%
X162700000Y-108980000D03*
D15*
%TO.P,D3,2,A_2*%
%TO.N,GND*%
X162700000Y-98820000D03*
%TD*%
D16*
%TO.P,C7,1*%
%TO.N,Net-(D2-A)*%
X169500000Y-116800000D03*
%TO.P,C7,2*%
%TO.N,Net-(J2-Pin_1)*%
X174500000Y-116800000D03*
%TD*%
%TO.P,R7,1*%
%TO.N,Net-(D2-A)*%
X177900000Y-95500000D03*
%TO.P,R7,2*%
%TO.N,Net-(D1-A)*%
X185520000Y-95500000D03*
%TD*%
D22*
%TO.P,J2,1,Pin_1_1*%
%TO.N,Net-(J2-Pin_1)*%
X189300000Y-112180000D03*
D18*
%TO.P,J2,2,Pin_2_2*%
%TO.N,GND*%
X189300000Y-107100000D03*
%TD*%
D16*
%TO.P,R1,1*%
%TO.N,Net-(C1-Pad1)*%
X146700000Y-112390000D03*
%TO.P,R1,2*%
%TO.N,GND*%
X146700000Y-120010000D03*
%TD*%
%TO.P,R3,1*%
%TO.N,Net-(C1-Pad1)*%
X130150000Y-111710000D03*
%TO.P,R3,2*%
%TO.N,Net-(U1-+)*%
X130150000Y-104090000D03*
%TD*%
%TO.P,R5,1*%
%TO.N,GND*%
X143590000Y-101700000D03*
%TO.P,R5,2*%
%TO.N,Net-(D2-A)*%
X151210000Y-101700000D03*
%TD*%
%TO.N,GND*%
D23*
X140600000Y-120500000D02*
X136225000Y-124875000D01*
X136225000Y-124875000D02*
X133300000Y-124875000D01*
%TO.N,Net-(J3-SLEEVE)*%
X123975000Y-124875000D02*
X124000000Y-124875000D01*
X120300000Y-121200000D02*
X123975000Y-124875000D01*
%TO.N,GND*%
D24*
X143590000Y-99060000D02*
X155500000Y-87150000D01*
X143590000Y-101700000D02*
X143590000Y-99060000D01*
D23*
X165120000Y-98820000D02*
X167550000Y-101250000D01*
X181350000Y-107100000D02*
X178850000Y-104600000D01*
X176631370Y-101250000D02*
X178850000Y-103468630D01*
X167550000Y-101250000D02*
X169800000Y-101250000D01*
X159800000Y-95920000D02*
X162700000Y-98820000D01*
D24*
X141100000Y-104190000D02*
X143590000Y-101700000D01*
X159050000Y-87150000D02*
X159800000Y-87900000D01*
X141090000Y-120010000D02*
X140600000Y-120500000D01*
D23*
X189300000Y-107100000D02*
X181350000Y-107100000D01*
D24*
X148250000Y-87150000D02*
X155500000Y-87150000D01*
X152590000Y-125900000D02*
X146700000Y-120010000D01*
X146700000Y-120010000D02*
X141090000Y-120010000D01*
X153150000Y-125900000D02*
X152590000Y-125900000D01*
D23*
X169800000Y-101250000D02*
X176631370Y-101250000D01*
D24*
X141100000Y-107625000D02*
X141100000Y-104190000D01*
X155500000Y-87150000D02*
X159050000Y-87150000D01*
D23*
X162700000Y-98820000D02*
X165120000Y-98820000D01*
D24*
X146400000Y-85300000D02*
X148250000Y-87150000D01*
D23*
X159800000Y-87900000D02*
X159800000Y-95920000D01*
X140600000Y-120500000D02*
X140600000Y-116700000D01*
X178850000Y-103468630D02*
X178850000Y-104600000D01*
%TO.N,Net-(C1-Pad1)*%
D24*
X151220000Y-112390000D02*
X156010000Y-107600000D01*
X146700000Y-112390000D02*
X151220000Y-112390000D01*
X139100000Y-110600000D02*
X139100000Y-107625000D01*
X131900000Y-113460000D02*
X136240000Y-113460000D01*
X130150000Y-111710000D02*
X131900000Y-113460000D01*
X146700000Y-112390000D02*
X140890000Y-112390000D01*
X140890000Y-112390000D02*
X139100000Y-110600000D01*
X136240000Y-113460000D02*
X139100000Y-110600000D01*
%TO.N,Net-(U1-+)*%
X133600000Y-100640000D02*
X133600000Y-98300000D01*
X133600000Y-90200000D02*
X140350000Y-83450000D01*
X133600000Y-98300000D02*
X133600000Y-90200000D01*
X140350000Y-83450000D02*
X147950000Y-83450000D01*
X147950000Y-83450000D02*
X149800000Y-85300000D01*
X130150000Y-104090000D02*
X133600000Y-100640000D01*
%TO.N,Net-(C2-Pad1)*%
D23*
X125200000Y-101300000D02*
X128600000Y-101300000D01*
X128600000Y-101300000D02*
X131600000Y-98300000D01*
%TO.N,Net-(D2-A)*%
D24*
X164570000Y-108980000D02*
X169800000Y-103750000D01*
X169800000Y-103750000D02*
X175500000Y-103750000D01*
X161280000Y-115400000D02*
X168100000Y-115400000D01*
X168100000Y-115400000D02*
X169500000Y-116800000D01*
D23*
X164880000Y-87900000D02*
X172480000Y-95500000D01*
D24*
X161280000Y-115400000D02*
X156890000Y-115400000D01*
X175500000Y-103750000D02*
X176350000Y-104600000D01*
X161280000Y-115400000D02*
X161280000Y-110400000D01*
D23*
X172480000Y-95500000D02*
X177900000Y-95500000D01*
D24*
X162700000Y-108980000D02*
X164570000Y-108980000D01*
X156890000Y-115400000D02*
X151090000Y-121200000D01*
X161280000Y-110400000D02*
X162700000Y-108980000D01*
%TO.N,Net-(C4-Pad1)*%
X134200000Y-104090000D02*
X128400000Y-109890000D01*
X128400000Y-109890000D02*
X128400000Y-112434874D01*
X128400000Y-112434874D02*
X132665126Y-116700000D01*
X132665126Y-116700000D02*
X138600000Y-116700000D01*
%TO.N,Net-(C6-Pad1)*%
X155650000Y-125900000D02*
X155650000Y-124260000D01*
X155650000Y-124260000D02*
X158710000Y-121200000D01*
%TO.N,Net-(J2-Pin_1)*%
D23*
X184680000Y-116800000D02*
X189300000Y-112180000D01*
X174500000Y-116800000D02*
X184680000Y-116800000D01*
%TO.N,Net-(J3-SLEEVE)*%
X120300000Y-101200000D02*
X120300000Y-121200000D01*
X125200000Y-96300000D02*
X120300000Y-101200000D01*
%TO.N,Net-(U1--)*%
D24*
X134200000Y-111710000D02*
X135950000Y-109960000D01*
X135950000Y-109960000D02*
X135950000Y-101150000D01*
X135950000Y-101150000D02*
X148100000Y-89000000D01*
%TD*%
%TA.AperFunction,Conductor*%
%TO.N,GND*%
G36*
X139298703Y-82520185D02*
G01*
X139344458Y-82572989D01*
X139354402Y-82642147D01*
X139325377Y-82705703D01*
X139319345Y-82712181D01*
X132646174Y-89385351D01*
X132646174Y-89385352D01*
X132646172Y-89385354D01*
X132610810Y-89434025D01*
X132530476Y-89544594D01*
X132440669Y-89720851D01*
X132439608Y-89724612D01*
X132380291Y-89907169D01*
X132380291Y-89907172D01*
X132349500Y-90101577D01*
X132349500Y-96795722D01*
X132329815Y-96862761D01*
X132277011Y-96908516D01*
X132207853Y-96918460D01*
X132178056Y-96910287D01*
X132175992Y-96909432D01*
X132117929Y-96890566D01*
X131951369Y-96836447D01*
X131951367Y-96836446D01*
X131951365Y-96836446D01*
X131718097Y-96799500D01*
X131718092Y-96799500D01*
X131481908Y-96799500D01*
X131481903Y-96799500D01*
X131248631Y-96836446D01*
X131024003Y-96909433D01*
X130813563Y-97016659D01*
X130622496Y-97155476D01*
X130622491Y-97155480D01*
X128014792Y-99763181D01*
X127953469Y-99796666D01*
X127927111Y-99799500D01*
X125967362Y-99799500D01*
X125919910Y-99790061D01*
X125738117Y-99714759D01*
X125738118Y-99714759D01*
X125738115Y-99714758D01*
X125632357Y-99686421D01*
X125526598Y-99658083D01*
X125490314Y-99653306D01*
X125309497Y-99629500D01*
X125309490Y-99629500D01*
X125090510Y-99629500D01*
X125090502Y-99629500D01*
X124883853Y-99656707D01*
X124873402Y-99658083D01*
X124828699Y-99670060D01*
X124661884Y-99714758D01*
X124550980Y-99760697D01*
X124459572Y-99798560D01*
X124459569Y-99798561D01*
X124459561Y-99798565D01*
X124269929Y-99908049D01*
X124096201Y-100041355D01*
X124096194Y-100041361D01*
X123941361Y-100196194D01*
X123941355Y-100196201D01*
X123808049Y-100369929D01*
X123698565Y-100559561D01*
X123698561Y-100559569D01*
X123698560Y-100559572D01*
X123671869Y-100624008D01*
X123614758Y-100761884D01*
X123558084Y-100973399D01*
X123558082Y-100973410D01*
X123529500Y-101190502D01*
X123529500Y-101409497D01*
X123547420Y-101545606D01*
X123558083Y-101626598D01*
X123558084Y-101626600D01*
X123610313Y-101821527D01*
X123614759Y-101838117D01*
X123698560Y-102040428D01*
X123698562Y-102040433D01*
X123698565Y-102040438D01*
X123808049Y-102230070D01*
X123941355Y-102403798D01*
X123941361Y-102403805D01*
X124096194Y-102558638D01*
X124096201Y-102558644D01*
X124269929Y-102691950D01*
X124459561Y-102801434D01*
X124459563Y-102801434D01*
X124459572Y-102801440D01*
X124661883Y-102885241D01*
X124873402Y-102941917D01*
X125090510Y-102970500D01*
X125090517Y-102970500D01*
X125309483Y-102970500D01*
X125309490Y-102970500D01*
X125526598Y-102941917D01*
X125738117Y-102885241D01*
X125919910Y-102809938D01*
X125967362Y-102800500D01*
X128718097Y-102800500D01*
X128951368Y-102763553D01*
X128968372Y-102758028D01*
X129175992Y-102690568D01*
X129386434Y-102583343D01*
X129577510Y-102444517D01*
X132137819Y-99884208D01*
X132199142Y-99850723D01*
X132268834Y-99855707D01*
X132324767Y-99897579D01*
X132349184Y-99963043D01*
X132349500Y-99971889D01*
X132349500Y-100070663D01*
X132329815Y-100137702D01*
X132313181Y-100158344D01*
X129534110Y-102937414D01*
X129502727Y-102960216D01*
X129468386Y-102977714D01*
X129302786Y-103098028D01*
X129158028Y-103242786D01*
X129037715Y-103408386D01*
X128944781Y-103590776D01*
X128881522Y-103785465D01*
X128849500Y-103987648D01*
X128849500Y-104192351D01*
X128881522Y-104394534D01*
X128944781Y-104589223D01*
X129002406Y-104702317D01*
X129037710Y-104771605D01*
X129037715Y-104771613D01*
X129158028Y-104937213D01*
X129302786Y-105081971D01*
X129457749Y-105194556D01*
X129468390Y-105202287D01*
X129556678Y-105247272D01*
X129650776Y-105295218D01*
X129650778Y-105295218D01*
X129650781Y-105295220D01*
X129693161Y-105308990D01*
X129845465Y-105358477D01*
X129946557Y-105374488D01*
X130047648Y-105390500D01*
X130047649Y-105390500D01*
X130252351Y-105390500D01*
X130252352Y-105390500D01*
X130454534Y-105358477D01*
X130649219Y-105295220D01*
X130831610Y-105202287D01*
X130924590Y-105134732D01*
X130997213Y-105081971D01*
X130997215Y-105081968D01*
X130997219Y-105081966D01*
X131141966Y-104937219D01*
X131262287Y-104771610D01*
X131279780Y-104737275D01*
X131302582Y-104705890D01*
X134487821Y-101520653D01*
X134549142Y-101487170D01*
X134618834Y-101492154D01*
X134674767Y-101534026D01*
X134699184Y-101599490D01*
X134699500Y-101608336D01*
X134699500Y-102714199D01*
X134679815Y-102781238D01*
X134627011Y-102826993D01*
X134557853Y-102836937D01*
X134537183Y-102832130D01*
X134504542Y-102821524D01*
X134504535Y-102821523D01*
X134377737Y-102801440D01*
X134302352Y-102789500D01*
X134097648Y-102789500D01*
X134073329Y-102793351D01*
X133895465Y-102821522D01*
X133700776Y-102884781D01*
X133518386Y-102977715D01*
X133352786Y-103098028D01*
X133208028Y-103242786D01*
X133087714Y-103408386D01*
X133070216Y-103442727D01*
X133047414Y-103474110D01*
X127446174Y-109075351D01*
X127446172Y-109075354D01*
X127396485Y-109143741D01*
X127330476Y-109234594D01*
X127241117Y-109409969D01*
X127224853Y-109460027D01*
X127180290Y-109597173D01*
X127149500Y-109791577D01*
X127149500Y-112533296D01*
X127180290Y-112727700D01*
X127241117Y-112914904D01*
X127330476Y-113090279D01*
X127446172Y-113249520D01*
X131850480Y-117653828D01*
X132009721Y-117769524D01*
X132053766Y-117791966D01*
X132185095Y-117858882D01*
X132185097Y-117858882D01*
X132185100Y-117858884D01*
X132285444Y-117891487D01*
X132372299Y-117919709D01*
X132566704Y-117950500D01*
X132566709Y-117950500D01*
X138698422Y-117950500D01*
X138892826Y-117919709D01*
X138915668Y-117912287D01*
X139080025Y-117858884D01*
X139255405Y-117769524D01*
X139414646Y-117653828D01*
X139432185Y-117636289D01*
X140017261Y-117636289D01*
X140017262Y-117636290D01*
X140023471Y-117640801D01*
X140177742Y-117719408D01*
X140342415Y-117772914D01*
X140513429Y-117800000D01*
X140686571Y-117800000D01*
X140857584Y-117772914D01*
X141022257Y-117719408D01*
X141176525Y-117640803D01*
X141182736Y-117636289D01*
X141182737Y-117636289D01*
X140600001Y-117053553D01*
X140600000Y-117053553D01*
X140017261Y-117636289D01*
X139432185Y-117636289D01*
X139553828Y-117514646D01*
X139669524Y-117355405D01*
X139742141Y-117212884D01*
X139764940Y-117181505D01*
X140246446Y-116700000D01*
X140246446Y-116699999D01*
X140206951Y-116660504D01*
X140300000Y-116660504D01*
X140300000Y-116739496D01*
X140320444Y-116815796D01*
X140359940Y-116884205D01*
X140415795Y-116940060D01*
X140484204Y-116979556D01*
X140560504Y-117000000D01*
X140639496Y-117000000D01*
X140715796Y-116979556D01*
X140784205Y-116940060D01*
X140840060Y-116884205D01*
X140879556Y-116815796D01*
X140900000Y-116739496D01*
X140900000Y-116699999D01*
X140953553Y-116699999D01*
X140953553Y-116700000D01*
X141536289Y-117282736D01*
X141540803Y-117276525D01*
X141619408Y-117122257D01*
X141672914Y-116957584D01*
X141700000Y-116786571D01*
X141700000Y-116613428D01*
X141672914Y-116442415D01*
X141619408Y-116277742D01*
X141540801Y-116123471D01*
X141536290Y-116117262D01*
X141536289Y-116117261D01*
X140953553Y-116699999D01*
X140900000Y-116699999D01*
X140900000Y-116660504D01*
X140879556Y-116584204D01*
X140840060Y-116515795D01*
X140784205Y-116459940D01*
X140715796Y-116420444D01*
X140639496Y-116400000D01*
X140560504Y-116400000D01*
X140484204Y-116420444D01*
X140415795Y-116459940D01*
X140359940Y-116515795D01*
X140320444Y-116584204D01*
X140300000Y-116660504D01*
X140206951Y-116660504D01*
X139764940Y-116218493D01*
X139742137Y-116187108D01*
X139669524Y-116044595D01*
X139553828Y-115885354D01*
X139432182Y-115763708D01*
X140017261Y-115763708D01*
X140017261Y-115763709D01*
X140600000Y-116346446D01*
X140600001Y-116346446D01*
X141182737Y-115763709D01*
X141176525Y-115759196D01*
X141022259Y-115680592D01*
X140857584Y-115627085D01*
X140686571Y-115600000D01*
X140513429Y-115600000D01*
X140342415Y-115627085D01*
X140177740Y-115680592D01*
X140023480Y-115759193D01*
X140023463Y-115759203D01*
X140017261Y-115763708D01*
X139432182Y-115763708D01*
X139414646Y-115746172D01*
X139255405Y-115630476D01*
X139248750Y-115627085D01*
X139080029Y-115541117D01*
X138892826Y-115480290D01*
X138698422Y-115449500D01*
X138698417Y-115449500D01*
X133234462Y-115449500D01*
X133167423Y-115429815D01*
X133146781Y-115413181D01*
X132655781Y-114922181D01*
X132622296Y-114860858D01*
X132627280Y-114791166D01*
X132669152Y-114735233D01*
X132734616Y-114710816D01*
X132743462Y-114710500D01*
X136338422Y-114710500D01*
X136532826Y-114679709D01*
X136720026Y-114618884D01*
X136895405Y-114529524D01*
X137054646Y-114413828D01*
X139012319Y-112456155D01*
X139073642Y-112422670D01*
X139143334Y-112427654D01*
X139187681Y-112456155D01*
X139936172Y-113204646D01*
X140075354Y-113343828D01*
X140234595Y-113459524D01*
X140409971Y-113548882D01*
X140409979Y-113548886D01*
X140494223Y-113576258D01*
X140536346Y-113589944D01*
X140536347Y-113589945D01*
X140536348Y-113589945D01*
X140597173Y-113609709D01*
X140670076Y-113621255D01*
X140791578Y-113640500D01*
X140791583Y-113640500D01*
X140988416Y-113640500D01*
X146320498Y-113640500D01*
X146358816Y-113646569D01*
X146372260Y-113650937D01*
X146395466Y-113658477D01*
X146597648Y-113690500D01*
X146597649Y-113690500D01*
X146802351Y-113690500D01*
X146802352Y-113690500D01*
X147004534Y-113658477D01*
X147032714Y-113649320D01*
X147041184Y-113646569D01*
X147079502Y-113640500D01*
X149877701Y-113640500D01*
X149944740Y-113660185D01*
X149990495Y-113712989D01*
X150000439Y-113782147D01*
X149971414Y-113845703D01*
X149942800Y-113870036D01*
X149841373Y-113932597D01*
X149801342Y-113957289D01*
X149677289Y-114081342D01*
X149585187Y-114230662D01*
X149585185Y-114230667D01*
X149557349Y-114314669D01*
X149530001Y-114397202D01*
X149530001Y-114397203D01*
X149530000Y-114397203D01*
X149519500Y-114499982D01*
X149519500Y-116300017D01*
X149530000Y-116402796D01*
X149585185Y-116569332D01*
X149585186Y-116569335D01*
X149677288Y-116718656D01*
X149801344Y-116842712D01*
X149950665Y-116934814D01*
X150117202Y-116989999D01*
X150219990Y-117000500D01*
X150219995Y-117000500D01*
X152020005Y-117000500D01*
X152020010Y-117000500D01*
X152122798Y-116989999D01*
X152289335Y-116934814D01*
X152438656Y-116842712D01*
X152562712Y-116718656D01*
X152654814Y-116569335D01*
X152709999Y-116402798D01*
X152720500Y-116300010D01*
X152720500Y-114499990D01*
X152709999Y-114397202D01*
X152654814Y-114230665D01*
X152562712Y-114081344D01*
X152438656Y-113957288D01*
X152289335Y-113865186D01*
X152122798Y-113810001D01*
X152122796Y-113810000D01*
X152020017Y-113799500D01*
X152020010Y-113799500D01*
X151711614Y-113799500D01*
X151644575Y-113779815D01*
X151598820Y-113727011D01*
X151588876Y-113657853D01*
X151617901Y-113594297D01*
X151673293Y-113557569D01*
X151700026Y-113548884D01*
X151875405Y-113459524D01*
X152034646Y-113343828D01*
X156625890Y-108752582D01*
X156657275Y-108729780D01*
X156691610Y-108712287D01*
X156857219Y-108591966D01*
X157001966Y-108447219D01*
X157001968Y-108447215D01*
X157001971Y-108447213D01*
X157054732Y-108374590D01*
X157122287Y-108281610D01*
X157215220Y-108099219D01*
X157278477Y-107904534D01*
X157310500Y-107702352D01*
X157310500Y-107497648D01*
X157301495Y-107440795D01*
X157278477Y-107295465D01*
X157235767Y-107164019D01*
X157215220Y-107100781D01*
X157215218Y-107100778D01*
X157215218Y-107100776D01*
X157148697Y-106970223D01*
X157122287Y-106918390D01*
X157063849Y-106837956D01*
X157001971Y-106752786D01*
X156857213Y-106608028D01*
X156691613Y-106487715D01*
X156691612Y-106487714D01*
X156691610Y-106487713D01*
X156617594Y-106450000D01*
X156509223Y-106394781D01*
X156314534Y-106331522D01*
X156139995Y-106303878D01*
X156112352Y-106299500D01*
X155907648Y-106299500D01*
X155883329Y-106303351D01*
X155705465Y-106331522D01*
X155510776Y-106394781D01*
X155328386Y-106487715D01*
X155162786Y-106608028D01*
X155018028Y-106752786D01*
X154897714Y-106918386D01*
X154880216Y-106952727D01*
X154857414Y-106984110D01*
X150738345Y-111103181D01*
X150677022Y-111136666D01*
X150650664Y-111139500D01*
X147079502Y-111139500D01*
X147041184Y-111133431D01*
X147004535Y-111121523D01*
X146888729Y-111103181D01*
X146802352Y-111089500D01*
X146597648Y-111089500D01*
X146530254Y-111100174D01*
X146395464Y-111121523D01*
X146358816Y-111133431D01*
X146320498Y-111139500D01*
X141459336Y-111139500D01*
X141392297Y-111119815D01*
X141371655Y-111103181D01*
X140386819Y-110118345D01*
X140353334Y-110057022D01*
X140350500Y-110030664D01*
X140350500Y-108680018D01*
X140370185Y-108612979D01*
X140422989Y-108567224D01*
X140492147Y-108557280D01*
X140530796Y-108569534D01*
X140677740Y-108644407D01*
X140842415Y-108697914D01*
X141013429Y-108725000D01*
X141186571Y-108725000D01*
X141357584Y-108697914D01*
X141522257Y-108644408D01*
X141676525Y-108565803D01*
X141682736Y-108561289D01*
X141041300Y-107919854D01*
X141060504Y-107925000D01*
X141139496Y-107925000D01*
X141215796Y-107904556D01*
X141284205Y-107865060D01*
X141340060Y-107809205D01*
X141379556Y-107740796D01*
X141400000Y-107664496D01*
X141400000Y-107624999D01*
X141453553Y-107624999D01*
X141453553Y-107625000D01*
X142036289Y-108207736D01*
X142040803Y-108201525D01*
X142119408Y-108047257D01*
X142172914Y-107882584D01*
X142200000Y-107711571D01*
X142200000Y-107538432D01*
X142195841Y-107512172D01*
X142195841Y-107512169D01*
X142193541Y-107497648D01*
X147089500Y-107497648D01*
X147089500Y-107702352D01*
X147093878Y-107729995D01*
X147121522Y-107904534D01*
X147184781Y-108099223D01*
X147277715Y-108281613D01*
X147398028Y-108447213D01*
X147542786Y-108591971D01*
X147663975Y-108680018D01*
X147708390Y-108712287D01*
X147803335Y-108760664D01*
X147890776Y-108805218D01*
X147890778Y-108805218D01*
X147890781Y-108805220D01*
X147959977Y-108827703D01*
X148085465Y-108868477D01*
X148186557Y-108884488D01*
X148287648Y-108900500D01*
X148287649Y-108900500D01*
X148492351Y-108900500D01*
X148492352Y-108900500D01*
X148694534Y-108868477D01*
X148889219Y-108805220D01*
X149071610Y-108712287D01*
X149226361Y-108599855D01*
X149237213Y-108591971D01*
X149237215Y-108591968D01*
X149237219Y-108591966D01*
X149381966Y-108447219D01*
X149381968Y-108447215D01*
X149381971Y-108447213D01*
X149434732Y-108374590D01*
X149502287Y-108281610D01*
X149595220Y-108099219D01*
X149658477Y-107904534D01*
X149690500Y-107702352D01*
X149690500Y-107497648D01*
X149681495Y-107440795D01*
X149658477Y-107295465D01*
X149615767Y-107164019D01*
X149595220Y-107100781D01*
X149595218Y-107100778D01*
X149595218Y-107100776D01*
X149528697Y-106970223D01*
X149502287Y-106918390D01*
X149443849Y-106837956D01*
X149381971Y-106752786D01*
X149237213Y-106608028D01*
X149071613Y-106487715D01*
X149071612Y-106487714D01*
X149071610Y-106487713D01*
X148997594Y-106450000D01*
X148889223Y-106394781D01*
X148694534Y-106331522D01*
X148519995Y-106303878D01*
X148492352Y-106299500D01*
X148287648Y-106299500D01*
X148263329Y-106303351D01*
X148085465Y-106331522D01*
X147890776Y-106394781D01*
X147708386Y-106487715D01*
X147542786Y-106608028D01*
X147398028Y-106752786D01*
X147277715Y-106918386D01*
X147184781Y-107100776D01*
X147121522Y-107295465D01*
X147096484Y-107453554D01*
X147089500Y-107497648D01*
X142193541Y-107497648D01*
X142172914Y-107367415D01*
X142119408Y-107202742D01*
X142040801Y-107048471D01*
X142036290Y-107042262D01*
X142036289Y-107042261D01*
X141453553Y-107624999D01*
X141400000Y-107624999D01*
X141400000Y-107585504D01*
X141379556Y-107509204D01*
X141340060Y-107440795D01*
X141284205Y-107384940D01*
X141215796Y-107345444D01*
X141139496Y-107325000D01*
X141060504Y-107325000D01*
X140984204Y-107345444D01*
X140915795Y-107384940D01*
X140859940Y-107440795D01*
X140820444Y-107509204D01*
X140800000Y-107585504D01*
X140800000Y-107664496D01*
X140805145Y-107683699D01*
X140782765Y-107661319D01*
X140264940Y-107143493D01*
X140242137Y-107112108D01*
X140169524Y-106969595D01*
X140169523Y-106969594D01*
X140132318Y-106918386D01*
X140053828Y-106810354D01*
X139932182Y-106688708D01*
X140517261Y-106688708D01*
X140517261Y-106688709D01*
X141100000Y-107271446D01*
X141100001Y-107271446D01*
X141682737Y-106688709D01*
X141676525Y-106684196D01*
X141522259Y-106605592D01*
X141357584Y-106552085D01*
X141186571Y-106525000D01*
X141013429Y-106525000D01*
X140842415Y-106552085D01*
X140677740Y-106605592D01*
X140523480Y-106684193D01*
X140523463Y-106684203D01*
X140517261Y-106688708D01*
X139932182Y-106688708D01*
X139914646Y-106671172D01*
X139755405Y-106555476D01*
X139748750Y-106552085D01*
X139580029Y-106466117D01*
X139392826Y-106405290D01*
X139198422Y-106374500D01*
X139198417Y-106374500D01*
X139001583Y-106374500D01*
X139001578Y-106374500D01*
X138807173Y-106405290D01*
X138619970Y-106466117D01*
X138444594Y-106555476D01*
X138353741Y-106621485D01*
X138285354Y-106671172D01*
X138285352Y-106671174D01*
X138285351Y-106671174D01*
X138146174Y-106810351D01*
X138146174Y-106810352D01*
X138146172Y-106810354D01*
X138126118Y-106837956D01*
X138030476Y-106969594D01*
X137941117Y-107144970D01*
X137880290Y-107332173D01*
X137849500Y-107526577D01*
X137849500Y-110030663D01*
X137829815Y-110097702D01*
X137813181Y-110118344D01*
X137265004Y-110666520D01*
X137203681Y-110700005D01*
X137133989Y-110695021D01*
X137078056Y-110653149D01*
X137053639Y-110587685D01*
X137066838Y-110522544D01*
X137108884Y-110440026D01*
X137169709Y-110252826D01*
X137178122Y-110199709D01*
X137200500Y-110058419D01*
X137200500Y-101719336D01*
X137209144Y-101689895D01*
X137215668Y-101659909D01*
X137219422Y-101654893D01*
X137220185Y-101652297D01*
X137236819Y-101631655D01*
X137270792Y-101597682D01*
X142290000Y-101597682D01*
X142290000Y-101802317D01*
X142322009Y-102004417D01*
X142385244Y-102199031D01*
X142478141Y-102381350D01*
X142478147Y-102381359D01*
X142510523Y-102425921D01*
X142510524Y-102425922D01*
X143190000Y-101746446D01*
X143190000Y-101752661D01*
X143217259Y-101854394D01*
X143269920Y-101945606D01*
X143344394Y-102020080D01*
X143435606Y-102072741D01*
X143537339Y-102100000D01*
X143543553Y-102100000D01*
X142864076Y-102779474D01*
X142908650Y-102811859D01*
X143090968Y-102904755D01*
X143285582Y-102967990D01*
X143487683Y-103000000D01*
X143692317Y-103000000D01*
X143894417Y-102967990D01*
X144089031Y-102904755D01*
X144271349Y-102811859D01*
X144315921Y-102779474D01*
X143636447Y-102100000D01*
X143642661Y-102100000D01*
X143744394Y-102072741D01*
X143835606Y-102020080D01*
X143910080Y-101945606D01*
X143962741Y-101854394D01*
X143990000Y-101752661D01*
X143990000Y-101746447D01*
X144669474Y-102425921D01*
X144701859Y-102381349D01*
X144794755Y-102199031D01*
X144857990Y-102004417D01*
X144890000Y-101802317D01*
X144890000Y-101597682D01*
X144889995Y-101597648D01*
X149909500Y-101597648D01*
X149909500Y-101802351D01*
X149941522Y-102004534D01*
X150004781Y-102199223D01*
X150068691Y-102324653D01*
X150097585Y-102381359D01*
X150097715Y-102381613D01*
X150218028Y-102547213D01*
X150362786Y-102691971D01*
X150483226Y-102779474D01*
X150528390Y-102812287D01*
X150644607Y-102871503D01*
X150710776Y-102905218D01*
X150710778Y-102905218D01*
X150710781Y-102905220D01*
X150809864Y-102937414D01*
X150905465Y-102968477D01*
X150963785Y-102977714D01*
X151107648Y-103000500D01*
X151107649Y-103000500D01*
X151312351Y-103000500D01*
X151312352Y-103000500D01*
X151514534Y-102968477D01*
X151709219Y-102905220D01*
X151891610Y-102812287D01*
X152026618Y-102714199D01*
X152057213Y-102691971D01*
X152057215Y-102691968D01*
X152057219Y-102691966D01*
X152201966Y-102547219D01*
X152201968Y-102547215D01*
X152201971Y-102547213D01*
X152272962Y-102449500D01*
X152322287Y-102381610D01*
X152415220Y-102199219D01*
X152478477Y-102004534D01*
X152510500Y-101802352D01*
X152510500Y-101597648D01*
X152487850Y-101454646D01*
X152478477Y-101395465D01*
X152456315Y-101327259D01*
X152415220Y-101200781D01*
X152322287Y-101018390D01*
X152322285Y-101018387D01*
X152322284Y-101018385D01*
X152201971Y-100852786D01*
X152057213Y-100708028D01*
X151891613Y-100587715D01*
X151891612Y-100587714D01*
X151891610Y-100587713D01*
X151818574Y-100550499D01*
X151709223Y-100494781D01*
X151514534Y-100431522D01*
X151339995Y-100403878D01*
X151312352Y-100399500D01*
X151107648Y-100399500D01*
X151083329Y-100403351D01*
X150905465Y-100431522D01*
X150710776Y-100494781D01*
X150528386Y-100587715D01*
X150362786Y-100708028D01*
X150218028Y-100852786D01*
X150097715Y-101018386D01*
X150004781Y-101200776D01*
X149941522Y-101395465D01*
X149909500Y-101597648D01*
X144889995Y-101597648D01*
X144857990Y-101395582D01*
X144794755Y-101200968D01*
X144701859Y-101018650D01*
X144669474Y-100974077D01*
X144669474Y-100974076D01*
X143990000Y-101653551D01*
X143990000Y-101647339D01*
X143962741Y-101545606D01*
X143910080Y-101454394D01*
X143835606Y-101379920D01*
X143744394Y-101327259D01*
X143642661Y-101300000D01*
X143636446Y-101300000D01*
X144315922Y-100620524D01*
X144315921Y-100620523D01*
X144271359Y-100588147D01*
X144271350Y-100588141D01*
X144089031Y-100495244D01*
X143894417Y-100432009D01*
X143692317Y-100400000D01*
X143487683Y-100400000D01*
X143285582Y-100432009D01*
X143090968Y-100495244D01*
X142908644Y-100588143D01*
X142864077Y-100620523D01*
X142864077Y-100620524D01*
X143543554Y-101300000D01*
X143537339Y-101300000D01*
X143435606Y-101327259D01*
X143344394Y-101379920D01*
X143269920Y-101454394D01*
X143217259Y-101545606D01*
X143190000Y-101647339D01*
X143190000Y-101653553D01*
X142510524Y-100974077D01*
X142510523Y-100974077D01*
X142478143Y-101018644D01*
X142385244Y-101200968D01*
X142322009Y-101395582D01*
X142290000Y-101597682D01*
X137270792Y-101597682D01*
X140174403Y-98694071D01*
X161100000Y-98694071D01*
X161100000Y-98945928D01*
X161139397Y-99194669D01*
X161217219Y-99434184D01*
X161331557Y-99658583D01*
X161405748Y-99760697D01*
X161405748Y-99760698D01*
X162176212Y-98990234D01*
X162187482Y-99032292D01*
X162259890Y-99157708D01*
X162362292Y-99260110D01*
X162487708Y-99332518D01*
X162529765Y-99343787D01*
X161759300Y-100114250D01*
X161861416Y-100188442D01*
X162085815Y-100302780D01*
X162325330Y-100380602D01*
X162574072Y-100420000D01*
X162825928Y-100420000D01*
X163074669Y-100380602D01*
X163314184Y-100302780D01*
X163538575Y-100188446D01*
X163538581Y-100188442D01*
X163636274Y-100117465D01*
X163640697Y-100114250D01*
X163640698Y-100114250D01*
X162870234Y-99343787D01*
X162912292Y-99332518D01*
X163037708Y-99260110D01*
X163140110Y-99157708D01*
X163212518Y-99032292D01*
X163223787Y-98990235D01*
X163994250Y-99760698D01*
X163994250Y-99760697D01*
X164068442Y-99658581D01*
X164068446Y-99658575D01*
X164182780Y-99434184D01*
X164260602Y-99194669D01*
X164300000Y-98945928D01*
X164300000Y-98694071D01*
X164260602Y-98445330D01*
X164182780Y-98205815D01*
X164068442Y-97981416D01*
X163994250Y-97879301D01*
X163994250Y-97879300D01*
X163223787Y-98649764D01*
X163212518Y-98607708D01*
X163140110Y-98482292D01*
X163037708Y-98379890D01*
X162912292Y-98307482D01*
X162870232Y-98296212D01*
X163640698Y-97525748D01*
X163538583Y-97451557D01*
X163314184Y-97337219D01*
X163074669Y-97259397D01*
X162825928Y-97220000D01*
X162574072Y-97220000D01*
X162325330Y-97259397D01*
X162085815Y-97337219D01*
X161861413Y-97451559D01*
X161759301Y-97525747D01*
X161759300Y-97525748D01*
X162529765Y-98296212D01*
X162487708Y-98307482D01*
X162362292Y-98379890D01*
X162259890Y-98482292D01*
X162187482Y-98607708D01*
X162176212Y-98649765D01*
X161405748Y-97879300D01*
X161405747Y-97879301D01*
X161331559Y-97981413D01*
X161217219Y-98205815D01*
X161139397Y-98445330D01*
X161100000Y-98694071D01*
X140174403Y-98694071D01*
X141383147Y-97485327D01*
X144905293Y-93963181D01*
X148517271Y-90351202D01*
X148566630Y-90320955D01*
X148637606Y-90297895D01*
X148834022Y-90197815D01*
X149012365Y-90068242D01*
X149168242Y-89912365D01*
X149297815Y-89734022D01*
X149397895Y-89537606D01*
X149466015Y-89327951D01*
X149500500Y-89110222D01*
X149500500Y-88889778D01*
X149466015Y-88672049D01*
X149430154Y-88561679D01*
X149397896Y-88462396D01*
X149397895Y-88462393D01*
X149351860Y-88372047D01*
X149297815Y-88265978D01*
X149222559Y-88162396D01*
X149168247Y-88087641D01*
X149168243Y-88087636D01*
X149012363Y-87931756D01*
X149012358Y-87931752D01*
X148938761Y-87878281D01*
X148834025Y-87802187D01*
X148834024Y-87802186D01*
X148834022Y-87802185D01*
X148794435Y-87782014D01*
X158000000Y-87782014D01*
X158000000Y-88017985D01*
X158030799Y-88251914D01*
X158091870Y-88479837D01*
X158182160Y-88697819D01*
X158182165Y-88697828D01*
X158300144Y-88902171D01*
X158300145Y-88902172D01*
X158362721Y-88983723D01*
X159198958Y-88147487D01*
X159223978Y-88207890D01*
X159295112Y-88314351D01*
X159385649Y-88404888D01*
X159492110Y-88476022D01*
X159552511Y-88501041D01*
X158716275Y-89337277D01*
X158797827Y-89399854D01*
X158797828Y-89399855D01*
X159002171Y-89517834D01*
X159002180Y-89517839D01*
X159220163Y-89608129D01*
X159220161Y-89608129D01*
X159448085Y-89669200D01*
X159682014Y-89699999D01*
X159682029Y-89700000D01*
X159917971Y-89700000D01*
X159917985Y-89699999D01*
X160151914Y-89669200D01*
X160379837Y-89608129D01*
X160597819Y-89517839D01*
X160597828Y-89517834D01*
X160802181Y-89399850D01*
X160883723Y-89337279D01*
X160883723Y-89337276D01*
X160047487Y-88501041D01*
X160107890Y-88476022D01*
X160214351Y-88404888D01*
X160304888Y-88314351D01*
X160376022Y-88207890D01*
X160401041Y-88147487D01*
X161237276Y-88983723D01*
X161237279Y-88983723D01*
X161299850Y-88902181D01*
X161417834Y-88697828D01*
X161417839Y-88697819D01*
X161508129Y-88479837D01*
X161569200Y-88251914D01*
X161599999Y-88017985D01*
X161600000Y-88017971D01*
X161600000Y-87782028D01*
X161599999Y-87782014D01*
X161569200Y-87548085D01*
X161508129Y-87320162D01*
X161417839Y-87102180D01*
X161417834Y-87102171D01*
X161299855Y-86897828D01*
X161299848Y-86897817D01*
X161280286Y-86872324D01*
X161280283Y-86872321D01*
X161237277Y-86816275D01*
X160401041Y-87652511D01*
X160376022Y-87592110D01*
X160304888Y-87485649D01*
X160214351Y-87395112D01*
X160107890Y-87323978D01*
X160047488Y-87298958D01*
X160546462Y-86799983D01*
X163079500Y-86799983D01*
X163079500Y-89000001D01*
X163079501Y-89000018D01*
X163090000Y-89102796D01*
X163090001Y-89102799D01*
X163134671Y-89237603D01*
X163145186Y-89269334D01*
X163237288Y-89418656D01*
X163361344Y-89542712D01*
X163510666Y-89634814D01*
X163677203Y-89689999D01*
X163779991Y-89700500D01*
X164507110Y-89700499D01*
X164574149Y-89720183D01*
X164594791Y-89736818D01*
X171502490Y-96644517D01*
X171586037Y-96705218D01*
X171693567Y-96783344D01*
X171747316Y-96810730D01*
X171801067Y-96838117D01*
X171904003Y-96890566D01*
X171904005Y-96890566D01*
X171904008Y-96890568D01*
X172024412Y-96929689D01*
X172128631Y-96963553D01*
X172361903Y-97000500D01*
X172361908Y-97000500D01*
X178018097Y-97000500D01*
X178251368Y-96963553D01*
X178475992Y-96890568D01*
X178686433Y-96783343D01*
X178877510Y-96644517D01*
X179044517Y-96477510D01*
X179183343Y-96286433D01*
X179290568Y-96075992D01*
X179363553Y-95851368D01*
X179377726Y-95761883D01*
X179400500Y-95618097D01*
X179400500Y-95397648D01*
X184219500Y-95397648D01*
X184219500Y-95602351D01*
X184251522Y-95804534D01*
X184314781Y-95999223D01*
X184407715Y-96181613D01*
X184528028Y-96347213D01*
X184672786Y-96491971D01*
X184827749Y-96604556D01*
X184838390Y-96612287D01*
X184954607Y-96671503D01*
X185020776Y-96705218D01*
X185020778Y-96705218D01*
X185020781Y-96705220D01*
X185125137Y-96739127D01*
X185215465Y-96768477D01*
X185309318Y-96783342D01*
X185417648Y-96800500D01*
X185417649Y-96800500D01*
X185622351Y-96800500D01*
X185622352Y-96800500D01*
X185824534Y-96768477D01*
X186019219Y-96705220D01*
X186201610Y-96612287D01*
X186294590Y-96544732D01*
X186367213Y-96491971D01*
X186367215Y-96491968D01*
X186367219Y-96491966D01*
X186511966Y-96347219D01*
X186511968Y-96347215D01*
X186511971Y-96347213D01*
X186625816Y-96190516D01*
X186632287Y-96181610D01*
X186725220Y-95999219D01*
X186788477Y-95804534D01*
X186820500Y-95602352D01*
X186820500Y-95397648D01*
X186816110Y-95369929D01*
X186788477Y-95195465D01*
X186725218Y-95000776D01*
X186677971Y-94908050D01*
X186632287Y-94818390D01*
X186617880Y-94798560D01*
X186511971Y-94652786D01*
X186367213Y-94508028D01*
X186201613Y-94387715D01*
X186201612Y-94387714D01*
X186201610Y-94387713D01*
X186138355Y-94355483D01*
X186019223Y-94294781D01*
X185824534Y-94231522D01*
X185649995Y-94203878D01*
X185622352Y-94199500D01*
X185417648Y-94199500D01*
X185393329Y-94203351D01*
X185215465Y-94231522D01*
X185020776Y-94294781D01*
X184838386Y-94387715D01*
X184672786Y-94508028D01*
X184528028Y-94652786D01*
X184407715Y-94818386D01*
X184314781Y-95000776D01*
X184251522Y-95195465D01*
X184219500Y-95397648D01*
X179400500Y-95397648D01*
X179400500Y-95381902D01*
X179363553Y-95148631D01*
X179315513Y-95000781D01*
X179290568Y-94924008D01*
X179290566Y-94924005D01*
X179290566Y-94924003D01*
X179183950Y-94714759D01*
X179183343Y-94713567D01*
X179044517Y-94522490D01*
X178877510Y-94355483D01*
X178686433Y-94216657D01*
X178475996Y-94109433D01*
X178251368Y-94036446D01*
X178018097Y-93999500D01*
X178018092Y-93999500D01*
X173152889Y-93999500D01*
X173085850Y-93979815D01*
X173065208Y-93963181D01*
X166854182Y-87752155D01*
X171400000Y-87752155D01*
X171400000Y-88450000D01*
X172424722Y-88450000D01*
X172380667Y-88526306D01*
X172350000Y-88640756D01*
X172350000Y-88759244D01*
X172380667Y-88873694D01*
X172424722Y-88950000D01*
X171400000Y-88950000D01*
X171400000Y-89647844D01*
X171406401Y-89707372D01*
X171406403Y-89707379D01*
X171456645Y-89842086D01*
X171456649Y-89842093D01*
X171542809Y-89957187D01*
X171542812Y-89957190D01*
X171657906Y-90043350D01*
X171657913Y-90043354D01*
X171792620Y-90093596D01*
X171792627Y-90093598D01*
X171852155Y-90099999D01*
X171852172Y-90100000D01*
X172550000Y-90100000D01*
X172550000Y-89075277D01*
X172626306Y-89119333D01*
X172740756Y-89150000D01*
X172859244Y-89150000D01*
X172973694Y-89119333D01*
X173050000Y-89075277D01*
X173050000Y-90100000D01*
X173747828Y-90100000D01*
X173747844Y-90099999D01*
X173807372Y-90093598D01*
X173807379Y-90093596D01*
X173942086Y-90043354D01*
X173942093Y-90043350D01*
X174057187Y-89957190D01*
X174057190Y-89957187D01*
X174143350Y-89842093D01*
X174143354Y-89842086D01*
X174173213Y-89762031D01*
X174215084Y-89706097D01*
X174280548Y-89681680D01*
X174348821Y-89696531D01*
X174377076Y-89717683D01*
X174427636Y-89768243D01*
X174427641Y-89768247D01*
X174583192Y-89881260D01*
X174605978Y-89897815D01*
X174722501Y-89957187D01*
X174802393Y-89997895D01*
X174802396Y-89997896D01*
X174907221Y-90031955D01*
X175012049Y-90066015D01*
X175229778Y-90100500D01*
X175229779Y-90100500D01*
X175450221Y-90100500D01*
X175450222Y-90100500D01*
X175667951Y-90066015D01*
X175877606Y-89997895D01*
X176074022Y-89897815D01*
X176252365Y-89768242D01*
X176408242Y-89612365D01*
X176537815Y-89434022D01*
X176637895Y-89237606D01*
X176706015Y-89027951D01*
X176740500Y-88810222D01*
X176740500Y-88589778D01*
X176706015Y-88372049D01*
X176666981Y-88251914D01*
X176637896Y-88162396D01*
X176637895Y-88162393D01*
X176564314Y-88017985D01*
X176537815Y-87965978D01*
X176512949Y-87931752D01*
X176408247Y-87787641D01*
X176408243Y-87787636D01*
X176252363Y-87631756D01*
X176252358Y-87631752D01*
X176074025Y-87502187D01*
X176074024Y-87502186D01*
X176074022Y-87502185D01*
X176011096Y-87470122D01*
X175877606Y-87402104D01*
X175877603Y-87402103D01*
X175667952Y-87333985D01*
X175559086Y-87316742D01*
X175450222Y-87299500D01*
X175229778Y-87299500D01*
X175157201Y-87310995D01*
X175012047Y-87333985D01*
X174802396Y-87402103D01*
X174802393Y-87402104D01*
X174605974Y-87502187D01*
X174427641Y-87631752D01*
X174427636Y-87631756D01*
X174377075Y-87682317D01*
X174315752Y-87715801D01*
X174246060Y-87710816D01*
X174190127Y-87668945D01*
X174173213Y-87637968D01*
X174143354Y-87557913D01*
X174143350Y-87557906D01*
X174057190Y-87442812D01*
X174057187Y-87442809D01*
X173942093Y-87356649D01*
X173942086Y-87356645D01*
X173807379Y-87306403D01*
X173807372Y-87306401D01*
X173747844Y-87300000D01*
X173050000Y-87300000D01*
X173050000Y-88324722D01*
X172973694Y-88280667D01*
X172859244Y-88250000D01*
X172740756Y-88250000D01*
X172626306Y-88280667D01*
X172550000Y-88324722D01*
X172550000Y-87300000D01*
X171852155Y-87300000D01*
X171792627Y-87306401D01*
X171792620Y-87306403D01*
X171657913Y-87356645D01*
X171657906Y-87356649D01*
X171542812Y-87442809D01*
X171542809Y-87442812D01*
X171456649Y-87557906D01*
X171456645Y-87557913D01*
X171406403Y-87692620D01*
X171406401Y-87692627D01*
X171400000Y-87752155D01*
X166854182Y-87752155D01*
X166716818Y-87614791D01*
X166683333Y-87553468D01*
X166680499Y-87527110D01*
X166680499Y-86799998D01*
X166680498Y-86799981D01*
X166669999Y-86697203D01*
X166669998Y-86697200D01*
X166652302Y-86643797D01*
X166614814Y-86530666D01*
X166522712Y-86381344D01*
X166398656Y-86257288D01*
X166249334Y-86165186D01*
X166082797Y-86110001D01*
X166082795Y-86110000D01*
X165980010Y-86099500D01*
X163779998Y-86099500D01*
X163779981Y-86099501D01*
X163677203Y-86110000D01*
X163677200Y-86110001D01*
X163510668Y-86165185D01*
X163510663Y-86165187D01*
X163361342Y-86257289D01*
X163237289Y-86381342D01*
X163145187Y-86530663D01*
X163145185Y-86530668D01*
X163123062Y-86597432D01*
X163090001Y-86697203D01*
X163090001Y-86697204D01*
X163090000Y-86697204D01*
X163079500Y-86799983D01*
X160546462Y-86799983D01*
X160883723Y-86462721D01*
X160802172Y-86400145D01*
X160802171Y-86400144D01*
X160597828Y-86282165D01*
X160597819Y-86282160D01*
X160379836Y-86191870D01*
X160379838Y-86191870D01*
X160151914Y-86130799D01*
X159917985Y-86100000D01*
X159682014Y-86100000D01*
X159448085Y-86130799D01*
X159220162Y-86191870D01*
X159002180Y-86282160D01*
X159002171Y-86282165D01*
X158797828Y-86400144D01*
X158797818Y-86400150D01*
X158716275Y-86462720D01*
X158716275Y-86462721D01*
X159552512Y-87298958D01*
X159492110Y-87323978D01*
X159385649Y-87395112D01*
X159295112Y-87485649D01*
X159223978Y-87592110D01*
X159198958Y-87652512D01*
X158362721Y-86816275D01*
X158362720Y-86816275D01*
X158300150Y-86897818D01*
X158300144Y-86897828D01*
X158182165Y-87102171D01*
X158182160Y-87102180D01*
X158091870Y-87320162D01*
X158030799Y-87548085D01*
X158000000Y-87782014D01*
X148794435Y-87782014D01*
X148735834Y-87752155D01*
X148637606Y-87702104D01*
X148637603Y-87702103D01*
X148427952Y-87633985D01*
X148306765Y-87614791D01*
X148210222Y-87599500D01*
X147989778Y-87599500D01*
X147917201Y-87610995D01*
X147772047Y-87633985D01*
X147562396Y-87702103D01*
X147562393Y-87702104D01*
X147365974Y-87802187D01*
X147187641Y-87931752D01*
X147187636Y-87931756D01*
X147031756Y-88087636D01*
X147031752Y-88087641D01*
X146902187Y-88265974D01*
X146902185Y-88265978D01*
X146802105Y-88462394D01*
X146802104Y-88462396D01*
X146802103Y-88462399D01*
X146779043Y-88533368D01*
X146748794Y-88582729D01*
X146312181Y-89019343D01*
X146250858Y-89052828D01*
X146181167Y-89047844D01*
X146125233Y-89005973D01*
X146100816Y-88940508D01*
X146100500Y-88931662D01*
X146100500Y-88889778D01*
X146066015Y-88672049D01*
X146030154Y-88561679D01*
X145997896Y-88462396D01*
X145997895Y-88462393D01*
X145951860Y-88372047D01*
X145897815Y-88265978D01*
X145822559Y-88162396D01*
X145768247Y-88087641D01*
X145768243Y-88087636D01*
X145612363Y-87931756D01*
X145612358Y-87931752D01*
X145434025Y-87802187D01*
X145434024Y-87802186D01*
X145434022Y-87802185D01*
X145335834Y-87752155D01*
X145237606Y-87702104D01*
X145237603Y-87702103D01*
X145027952Y-87633985D01*
X144906765Y-87614791D01*
X144810222Y-87599500D01*
X144589778Y-87599500D01*
X144517201Y-87610995D01*
X144372047Y-87633985D01*
X144162396Y-87702103D01*
X144162393Y-87702104D01*
X143965974Y-87802187D01*
X143787641Y-87931752D01*
X143787636Y-87931756D01*
X143631756Y-88087636D01*
X143631752Y-88087641D01*
X143502187Y-88265974D01*
X143402104Y-88462393D01*
X143402103Y-88462396D01*
X143333985Y-88672047D01*
X143299500Y-88889778D01*
X143299500Y-89110221D01*
X143333985Y-89327952D01*
X143402103Y-89537603D01*
X143402104Y-89537606D01*
X143469156Y-89669200D01*
X143497390Y-89724612D01*
X143502187Y-89734025D01*
X143631752Y-89912358D01*
X143631756Y-89912363D01*
X143787636Y-90068243D01*
X143787641Y-90068247D01*
X143833525Y-90101583D01*
X143965978Y-90197815D01*
X144094375Y-90263237D01*
X144162393Y-90297895D01*
X144162396Y-90297896D01*
X144267221Y-90331955D01*
X144372049Y-90366015D01*
X144589778Y-90400500D01*
X144589779Y-90400500D01*
X144631662Y-90400500D01*
X144698701Y-90420185D01*
X144744456Y-90472989D01*
X144754400Y-90542147D01*
X144725375Y-90605703D01*
X144719343Y-90612181D01*
X135062181Y-100269344D01*
X135000858Y-100302829D01*
X134931166Y-100297845D01*
X134875233Y-100255973D01*
X134850816Y-100190509D01*
X134850500Y-100181663D01*
X134850500Y-90769336D01*
X134870185Y-90702297D01*
X134886819Y-90681655D01*
X140831655Y-84736819D01*
X140892978Y-84703334D01*
X140919336Y-84700500D01*
X141551544Y-84700500D01*
X141618583Y-84720185D01*
X141664338Y-84772989D01*
X141674282Y-84842147D01*
X141669475Y-84862817D01*
X141633985Y-84972045D01*
X141599500Y-85189778D01*
X141599500Y-85410221D01*
X141633985Y-85627952D01*
X141702103Y-85837603D01*
X141702104Y-85837606D01*
X141770122Y-85971096D01*
X141802049Y-86033756D01*
X141802187Y-86034025D01*
X141931752Y-86212358D01*
X141931756Y-86212363D01*
X142087636Y-86368243D01*
X142087641Y-86368247D01*
X142217675Y-86462721D01*
X142265978Y-86497815D01*
X142394375Y-86563237D01*
X142462393Y-86597895D01*
X142462396Y-86597896D01*
X142567221Y-86631955D01*
X142672049Y-86666015D01*
X142889778Y-86700500D01*
X142889779Y-86700500D01*
X143110221Y-86700500D01*
X143110222Y-86700500D01*
X143327951Y-86666015D01*
X143537606Y-86597895D01*
X143734022Y-86497815D01*
X143912365Y-86368242D01*
X144068242Y-86212365D01*
X144197815Y-86034022D01*
X144297895Y-85837606D01*
X144366015Y-85627951D01*
X144400500Y-85410222D01*
X144400500Y-85189778D01*
X144366015Y-84972049D01*
X144362845Y-84962292D01*
X144330525Y-84862817D01*
X144328530Y-84792976D01*
X144364611Y-84733143D01*
X144427312Y-84702316D01*
X144448456Y-84700500D01*
X144952071Y-84700500D01*
X145019110Y-84720185D01*
X145064865Y-84772989D01*
X145074809Y-84842147D01*
X145070002Y-84862818D01*
X145034473Y-84972164D01*
X145000000Y-85189818D01*
X145000000Y-85410181D01*
X145034473Y-85627835D01*
X145102567Y-85837410D01*
X145202611Y-86033756D01*
X145248932Y-86097513D01*
X145876212Y-85470233D01*
X145887482Y-85512292D01*
X145959890Y-85637708D01*
X146062292Y-85740110D01*
X146187708Y-85812518D01*
X146229765Y-85823787D01*
X145602485Y-86451065D01*
X145602485Y-86451066D01*
X145666243Y-86497388D01*
X145862589Y-86597432D01*
X146072164Y-86665526D01*
X146289819Y-86700000D01*
X146510181Y-86700000D01*
X146727835Y-86665526D01*
X146937410Y-86597432D01*
X147133760Y-86497386D01*
X147197513Y-86451066D01*
X147197514Y-86451066D01*
X146570234Y-85823787D01*
X146612292Y-85812518D01*
X146737708Y-85740110D01*
X146840110Y-85637708D01*
X146912518Y-85512292D01*
X146923787Y-85470234D01*
X147551066Y-86097514D01*
X147551066Y-86097513D01*
X147597386Y-86033760D01*
X147697432Y-85837410D01*
X147765526Y-85627835D01*
X147800000Y-85410181D01*
X147800000Y-85367836D01*
X147819685Y-85300797D01*
X147872489Y-85255042D01*
X147941647Y-85245098D01*
X148005203Y-85274123D01*
X148011681Y-85280155D01*
X148363181Y-85631655D01*
X148396666Y-85692978D01*
X148399500Y-85719336D01*
X148399500Y-86247870D01*
X148399501Y-86247876D01*
X148405908Y-86307483D01*
X148456202Y-86442328D01*
X148456206Y-86442335D01*
X148542452Y-86557544D01*
X148542455Y-86557547D01*
X148657664Y-86643793D01*
X148657671Y-86643797D01*
X148792517Y-86694091D01*
X148792516Y-86694091D01*
X148799444Y-86694835D01*
X148852127Y-86700500D01*
X150747872Y-86700499D01*
X150807483Y-86694091D01*
X150942331Y-86643796D01*
X151057546Y-86557546D01*
X151143796Y-86442331D01*
X151194091Y-86307483D01*
X151200500Y-86247873D01*
X151200499Y-84352128D01*
X151194091Y-84292517D01*
X151143796Y-84157669D01*
X151143795Y-84157668D01*
X151143793Y-84157664D01*
X151057547Y-84042455D01*
X151057544Y-84042452D01*
X150942335Y-83956206D01*
X150942328Y-83956202D01*
X150807482Y-83905908D01*
X150807483Y-83905908D01*
X150747883Y-83899501D01*
X150747881Y-83899500D01*
X150747873Y-83899500D01*
X150747865Y-83899500D01*
X150219336Y-83899500D01*
X150152297Y-83879815D01*
X150131655Y-83863181D01*
X148980655Y-82712181D01*
X148947170Y-82650858D01*
X148952154Y-82581166D01*
X148994026Y-82525233D01*
X149059490Y-82500816D01*
X149068336Y-82500500D01*
X194175500Y-82500500D01*
X194242539Y-82520185D01*
X194288294Y-82572989D01*
X194299500Y-82624500D01*
X194299500Y-127175500D01*
X194279815Y-127242539D01*
X194227011Y-127288294D01*
X194175500Y-127299500D01*
X156284421Y-127299500D01*
X156217382Y-127279815D01*
X156171627Y-127227011D01*
X156161683Y-127157853D01*
X156190708Y-127094297D01*
X156228126Y-127065015D01*
X156239785Y-127059073D01*
X156331610Y-127012287D01*
X156424590Y-126944732D01*
X156497213Y-126891971D01*
X156497215Y-126891968D01*
X156497219Y-126891966D01*
X156641966Y-126747219D01*
X156641968Y-126747215D01*
X156641971Y-126747213D01*
X156712236Y-126650500D01*
X156762287Y-126581610D01*
X156855220Y-126399219D01*
X156918477Y-126204534D01*
X156950500Y-126002352D01*
X156950500Y-125797648D01*
X156918477Y-125595466D01*
X156906569Y-125558816D01*
X156900500Y-125520498D01*
X156900500Y-124829335D01*
X156920185Y-124762296D01*
X156936814Y-124741659D01*
X159325890Y-122352582D01*
X159357275Y-122329780D01*
X159391610Y-122312287D01*
X159557219Y-122191966D01*
X159701966Y-122047219D01*
X159701968Y-122047215D01*
X159701971Y-122047213D01*
X159754732Y-121974590D01*
X159822287Y-121881610D01*
X159915220Y-121699219D01*
X159978477Y-121504534D01*
X160010500Y-121302352D01*
X160010500Y-121097648D01*
X159978477Y-120895466D01*
X159977866Y-120893587D01*
X159926638Y-120735922D01*
X159915220Y-120700781D01*
X159915218Y-120700778D01*
X159915218Y-120700776D01*
X159855773Y-120584110D01*
X159822287Y-120518390D01*
X159814556Y-120507749D01*
X159701971Y-120352786D01*
X159557213Y-120208028D01*
X159391613Y-120087715D01*
X159391612Y-120087714D01*
X159391610Y-120087713D01*
X159312519Y-120047414D01*
X159209223Y-119994781D01*
X159014534Y-119931522D01*
X158839995Y-119903878D01*
X158812352Y-119899500D01*
X158607648Y-119899500D01*
X158583329Y-119903351D01*
X158405465Y-119931522D01*
X158210776Y-119994781D01*
X158028386Y-120087715D01*
X157862786Y-120208028D01*
X157718028Y-120352786D01*
X157597714Y-120518386D01*
X157580216Y-120552727D01*
X157557414Y-120584110D01*
X154696174Y-123445351D01*
X154696172Y-123445354D01*
X154661907Y-123492516D01*
X154580476Y-123604594D01*
X154490669Y-123780851D01*
X154489608Y-123784612D01*
X154430291Y-123967169D01*
X154430291Y-123967172D01*
X154399500Y-124161577D01*
X154399500Y-125053315D01*
X154379815Y-125120354D01*
X154327011Y-125166109D01*
X154265772Y-125176933D01*
X154229474Y-125174076D01*
X153550000Y-125853551D01*
X153550000Y-125847339D01*
X153522741Y-125745606D01*
X153470080Y-125654394D01*
X153395606Y-125579920D01*
X153304394Y-125527259D01*
X153202661Y-125500000D01*
X153196446Y-125500000D01*
X153875922Y-124820524D01*
X153875921Y-124820523D01*
X153831359Y-124788147D01*
X153831350Y-124788141D01*
X153649031Y-124695244D01*
X153454417Y-124632009D01*
X153252317Y-124600000D01*
X153047683Y-124600000D01*
X152845582Y-124632009D01*
X152650968Y-124695244D01*
X152468644Y-124788143D01*
X152424077Y-124820523D01*
X152424077Y-124820524D01*
X153103554Y-125500000D01*
X153097339Y-125500000D01*
X152995606Y-125527259D01*
X152904394Y-125579920D01*
X152829920Y-125654394D01*
X152777259Y-125745606D01*
X152750000Y-125847339D01*
X152750000Y-125853553D01*
X152070524Y-125174077D01*
X152070523Y-125174077D01*
X152038143Y-125218644D01*
X151945244Y-125400968D01*
X151882009Y-125595582D01*
X151850000Y-125797682D01*
X151850000Y-126002317D01*
X151882009Y-126204417D01*
X151945244Y-126399031D01*
X152038141Y-126581350D01*
X152038147Y-126581359D01*
X152070523Y-126625921D01*
X152070524Y-126625922D01*
X152750000Y-125946446D01*
X152750000Y-125952661D01*
X152777259Y-126054394D01*
X152829920Y-126145606D01*
X152904394Y-126220080D01*
X152995606Y-126272741D01*
X153097339Y-126300000D01*
X153103553Y-126300000D01*
X152424076Y-126979474D01*
X152468650Y-127011859D01*
X152572974Y-127065015D01*
X152623770Y-127112989D01*
X152640565Y-127180810D01*
X152618028Y-127246945D01*
X152563313Y-127290397D01*
X152516679Y-127299500D01*
X118324500Y-127299500D01*
X118257461Y-127279815D01*
X118211706Y-127227011D01*
X118200500Y-127175500D01*
X118200500Y-101081902D01*
X118799500Y-101081902D01*
X118799500Y-121318097D01*
X118836446Y-121551368D01*
X118909433Y-121775996D01*
X118963248Y-121881613D01*
X119016657Y-121986434D01*
X119121648Y-122130941D01*
X119155484Y-122177511D01*
X122263181Y-125285208D01*
X122296666Y-125346531D01*
X122299500Y-125372889D01*
X122299500Y-126197870D01*
X122299501Y-126197876D01*
X122305908Y-126257483D01*
X122356202Y-126392328D01*
X122356206Y-126392335D01*
X122442452Y-126507544D01*
X122442455Y-126507547D01*
X122557664Y-126593793D01*
X122557671Y-126593797D01*
X122692517Y-126644091D01*
X122692516Y-126644091D01*
X122699444Y-126644835D01*
X122752127Y-126650500D01*
X125247872Y-126650499D01*
X125307483Y-126644091D01*
X125442331Y-126593796D01*
X125557546Y-126507546D01*
X125643796Y-126392331D01*
X125694091Y-126257483D01*
X125700500Y-126197873D01*
X125700500Y-126197844D01*
X131350000Y-126197844D01*
X131356401Y-126257372D01*
X131356403Y-126257379D01*
X131406645Y-126392086D01*
X131406649Y-126392093D01*
X131492809Y-126507187D01*
X131492812Y-126507190D01*
X131607906Y-126593350D01*
X131607913Y-126593354D01*
X131742620Y-126643596D01*
X131742627Y-126643598D01*
X131802155Y-126649999D01*
X131802172Y-126650000D01*
X133050000Y-126650000D01*
X133550000Y-126650000D01*
X134797828Y-126650000D01*
X134797844Y-126649999D01*
X134857372Y-126643598D01*
X134857379Y-126643596D01*
X134992086Y-126593354D01*
X134992093Y-126593350D01*
X135107187Y-126507190D01*
X135107190Y-126507187D01*
X135193350Y-126392093D01*
X135193354Y-126392086D01*
X135243596Y-126257379D01*
X135243598Y-126257372D01*
X135249999Y-126197844D01*
X135250000Y-126197827D01*
X135250000Y-125125000D01*
X133550000Y-125125000D01*
X133550000Y-126650000D01*
X133050000Y-126650000D01*
X133050000Y-125125000D01*
X131350000Y-125125000D01*
X131350000Y-126197844D01*
X125700500Y-126197844D01*
X125700500Y-125053315D01*
X125700500Y-124867783D01*
X125700499Y-123552155D01*
X131350000Y-123552155D01*
X131350000Y-124625000D01*
X133050000Y-124625000D01*
X133550000Y-124625000D01*
X135250000Y-124625000D01*
X135250000Y-123552172D01*
X135249999Y-123552155D01*
X135243598Y-123492627D01*
X135243596Y-123492620D01*
X135193354Y-123357913D01*
X135193350Y-123357906D01*
X135107190Y-123242812D01*
X135107187Y-123242809D01*
X134992093Y-123156649D01*
X134992086Y-123156645D01*
X134857379Y-123106403D01*
X134857372Y-123106401D01*
X134797844Y-123100000D01*
X133550000Y-123100000D01*
X133550000Y-124625000D01*
X133050000Y-124625000D01*
X133050000Y-123100000D01*
X131802155Y-123100000D01*
X131742627Y-123106401D01*
X131742620Y-123106403D01*
X131607913Y-123156645D01*
X131607906Y-123156649D01*
X131492812Y-123242809D01*
X131492809Y-123242812D01*
X131406649Y-123357906D01*
X131406645Y-123357913D01*
X131356403Y-123492620D01*
X131356401Y-123492627D01*
X131350000Y-123552155D01*
X125700499Y-123552155D01*
X125700499Y-123552129D01*
X125700498Y-123552123D01*
X125694091Y-123492516D01*
X125643797Y-123357671D01*
X125643793Y-123357664D01*
X125557547Y-123242455D01*
X125557544Y-123242452D01*
X125442335Y-123156206D01*
X125442328Y-123156202D01*
X125307482Y-123105908D01*
X125307483Y-123105908D01*
X125247883Y-123099501D01*
X125247881Y-123099500D01*
X125247873Y-123099500D01*
X125247865Y-123099500D01*
X124372889Y-123099500D01*
X124305850Y-123079815D01*
X124285208Y-123063181D01*
X122318557Y-121096530D01*
X124049500Y-121096530D01*
X124049500Y-121303469D01*
X124089868Y-121506412D01*
X124089870Y-121506420D01*
X124169059Y-121697598D01*
X124226541Y-121783626D01*
X124284024Y-121869657D01*
X124430342Y-122015975D01*
X124430345Y-122015977D01*
X124602402Y-122130941D01*
X124793580Y-122210130D01*
X124996530Y-122250499D01*
X124996534Y-122250500D01*
X124996535Y-122250500D01*
X125203466Y-122250500D01*
X125203467Y-122250499D01*
X125406420Y-122210130D01*
X125597598Y-122130941D01*
X125769655Y-122015977D01*
X125915977Y-121869655D01*
X126030941Y-121697598D01*
X126110130Y-121506420D01*
X126150500Y-121303465D01*
X126150500Y-121096535D01*
X126150499Y-121096530D01*
X131049500Y-121096530D01*
X131049500Y-121303469D01*
X131089868Y-121506412D01*
X131089870Y-121506420D01*
X131169059Y-121697598D01*
X131226541Y-121783626D01*
X131284024Y-121869657D01*
X131430342Y-122015975D01*
X131430345Y-122015977D01*
X131602402Y-122130941D01*
X131793580Y-122210130D01*
X131996530Y-122250499D01*
X131996534Y-122250500D01*
X131996535Y-122250500D01*
X132203466Y-122250500D01*
X132203467Y-122250499D01*
X132406420Y-122210130D01*
X132597598Y-122130941D01*
X132769655Y-122015977D01*
X132915977Y-121869655D01*
X133030941Y-121697598D01*
X133110130Y-121506420D01*
X133150500Y-121303465D01*
X133150500Y-121096535D01*
X133150499Y-121096530D01*
X133144507Y-121066404D01*
X133144507Y-121066401D01*
X133110131Y-120893587D01*
X133110130Y-120893580D01*
X133030941Y-120702402D01*
X132915977Y-120530345D01*
X132915975Y-120530342D01*
X132769657Y-120384024D01*
X132683626Y-120326541D01*
X132597598Y-120269059D01*
X132406420Y-120189870D01*
X132406412Y-120189868D01*
X132203469Y-120149500D01*
X132203465Y-120149500D01*
X131996535Y-120149500D01*
X131996530Y-120149500D01*
X131793587Y-120189868D01*
X131793579Y-120189870D01*
X131602403Y-120269058D01*
X131430342Y-120384024D01*
X131284024Y-120530342D01*
X131169058Y-120702403D01*
X131089870Y-120893579D01*
X131089868Y-120893587D01*
X131049500Y-121096530D01*
X126150499Y-121096530D01*
X126110130Y-120893580D01*
X126030941Y-120702402D01*
X125915977Y-120530345D01*
X125915975Y-120530342D01*
X125769657Y-120384024D01*
X125683626Y-120326541D01*
X125597598Y-120269059D01*
X125406420Y-120189870D01*
X125406412Y-120189868D01*
X125203469Y-120149500D01*
X125203465Y-120149500D01*
X124996535Y-120149500D01*
X124996530Y-120149500D01*
X124793587Y-120189868D01*
X124793579Y-120189870D01*
X124602403Y-120269058D01*
X124430342Y-120384024D01*
X124284024Y-120530342D01*
X124169058Y-120702403D01*
X124089870Y-120893579D01*
X124089868Y-120893587D01*
X124049500Y-121096530D01*
X122318557Y-121096530D01*
X121836819Y-120614792D01*
X121803334Y-120553469D01*
X121800500Y-120527111D01*
X121800500Y-119907682D01*
X145400000Y-119907682D01*
X145400000Y-120112317D01*
X145432009Y-120314417D01*
X145495244Y-120509031D01*
X145588141Y-120691350D01*
X145588147Y-120691359D01*
X145620523Y-120735921D01*
X145620524Y-120735922D01*
X146300000Y-120056446D01*
X146300000Y-120062661D01*
X146327259Y-120164394D01*
X146379920Y-120255606D01*
X146454394Y-120330080D01*
X146545606Y-120382741D01*
X146647339Y-120410000D01*
X146653553Y-120410000D01*
X145974076Y-121089474D01*
X146018650Y-121121859D01*
X146200968Y-121214755D01*
X146395582Y-121277990D01*
X146597683Y-121310000D01*
X146802317Y-121310000D01*
X147004417Y-121277990D01*
X147199031Y-121214755D01*
X147381349Y-121121859D01*
X147414672Y-121097648D01*
X149789500Y-121097648D01*
X149789500Y-121302352D01*
X149789677Y-121303469D01*
X149821522Y-121504534D01*
X149884781Y-121699223D01*
X149944225Y-121815887D01*
X149977710Y-121881605D01*
X149977715Y-121881613D01*
X150098028Y-122047213D01*
X150242786Y-122191971D01*
X150397749Y-122304556D01*
X150408390Y-122312287D01*
X150524607Y-122371503D01*
X150590776Y-122405218D01*
X150590778Y-122405218D01*
X150590781Y-122405220D01*
X150695137Y-122439127D01*
X150785465Y-122468477D01*
X150886557Y-122484488D01*
X150987648Y-122500500D01*
X150987649Y-122500500D01*
X151192351Y-122500500D01*
X151192352Y-122500500D01*
X151394534Y-122468477D01*
X151589219Y-122405220D01*
X151771610Y-122312287D01*
X151912217Y-122210131D01*
X151937213Y-122191971D01*
X151937215Y-122191968D01*
X151937219Y-122191966D01*
X152081966Y-122047219D01*
X152202287Y-121881610D01*
X152219780Y-121847275D01*
X152242582Y-121815890D01*
X157371655Y-116686819D01*
X157432978Y-116653334D01*
X157459336Y-116650500D01*
X160237942Y-116650500D01*
X160304981Y-116670185D01*
X160310827Y-116674182D01*
X160346363Y-116700000D01*
X160441155Y-116768870D01*
X160533253Y-116815796D01*
X160665616Y-116883239D01*
X160665618Y-116883239D01*
X160665621Y-116883241D01*
X160905215Y-116961090D01*
X161154038Y-117000500D01*
X161154039Y-117000500D01*
X161405961Y-117000500D01*
X161405962Y-117000500D01*
X161654785Y-116961090D01*
X161894379Y-116883241D01*
X162118845Y-116768870D01*
X162213638Y-116699999D01*
X162249173Y-116674182D01*
X162314979Y-116650702D01*
X162322058Y-116650500D01*
X167530664Y-116650500D01*
X167597703Y-116670185D01*
X167618345Y-116686819D01*
X168347413Y-117415887D01*
X168370216Y-117447272D01*
X168387713Y-117481611D01*
X168508028Y-117647213D01*
X168652786Y-117791971D01*
X168744886Y-117858884D01*
X168818390Y-117912287D01*
X168934607Y-117971503D01*
X169000776Y-118005218D01*
X169000778Y-118005218D01*
X169000781Y-118005220D01*
X169105137Y-118039127D01*
X169195465Y-118068477D01*
X169289318Y-118083342D01*
X169397648Y-118100500D01*
X169397649Y-118100500D01*
X169602351Y-118100500D01*
X169602352Y-118100500D01*
X169804534Y-118068477D01*
X169999219Y-118005220D01*
X170181610Y-117912287D01*
X170274590Y-117844732D01*
X170347213Y-117791971D01*
X170347215Y-117791968D01*
X170347219Y-117791966D01*
X170491966Y-117647219D01*
X170491968Y-117647215D01*
X170491971Y-117647213D01*
X170588285Y-117514646D01*
X170612287Y-117481610D01*
X170705220Y-117299219D01*
X170768477Y-117104534D01*
X170800500Y-116902352D01*
X170800500Y-116697648D01*
X170798006Y-116681902D01*
X172999500Y-116681902D01*
X172999500Y-116918097D01*
X173036446Y-117151368D01*
X173109433Y-117375996D01*
X173180080Y-117514647D01*
X173216657Y-117586433D01*
X173355483Y-117777510D01*
X173522490Y-117944517D01*
X173713567Y-118083343D01*
X173747240Y-118100500D01*
X173924003Y-118190566D01*
X173924005Y-118190566D01*
X173924008Y-118190568D01*
X174044412Y-118229689D01*
X174148631Y-118263553D01*
X174381903Y-118300500D01*
X174381908Y-118300500D01*
X184798097Y-118300500D01*
X185031368Y-118263553D01*
X185255992Y-118190568D01*
X185466434Y-118083343D01*
X185657510Y-117944517D01*
X189585209Y-114016818D01*
X189646532Y-113983333D01*
X189672890Y-113980499D01*
X190400002Y-113980499D01*
X190400008Y-113980499D01*
X190502797Y-113969999D01*
X190669334Y-113914814D01*
X190818656Y-113822712D01*
X190942712Y-113698656D01*
X191034814Y-113549334D01*
X191089999Y-113382797D01*
X191100500Y-113280009D01*
X191100499Y-111079992D01*
X191089999Y-110977203D01*
X191034814Y-110810666D01*
X190942712Y-110661344D01*
X190818656Y-110537288D01*
X190669334Y-110445186D01*
X190502797Y-110390001D01*
X190502795Y-110390000D01*
X190400010Y-110379500D01*
X188199998Y-110379500D01*
X188199981Y-110379501D01*
X188097203Y-110390000D01*
X188097200Y-110390001D01*
X187930668Y-110445185D01*
X187930663Y-110445187D01*
X187781342Y-110537289D01*
X187657289Y-110661342D01*
X187565187Y-110810663D01*
X187565185Y-110810668D01*
X187537349Y-110894670D01*
X187510001Y-110977203D01*
X187510001Y-110977204D01*
X187510000Y-110977204D01*
X187499500Y-111079983D01*
X187499500Y-111807109D01*
X187479815Y-111874148D01*
X187463181Y-111894790D01*
X184094792Y-115263181D01*
X184033469Y-115296666D01*
X184007111Y-115299500D01*
X174381903Y-115299500D01*
X174148631Y-115336446D01*
X173924003Y-115409433D01*
X173713566Y-115516657D01*
X173604550Y-115595862D01*
X173522490Y-115655483D01*
X173522488Y-115655485D01*
X173522487Y-115655485D01*
X173355485Y-115822487D01*
X173355485Y-115822488D01*
X173355483Y-115822490D01*
X173304651Y-115892454D01*
X173216657Y-116013566D01*
X173109433Y-116224003D01*
X173036446Y-116448631D01*
X172999500Y-116681902D01*
X170798006Y-116681902D01*
X170780177Y-116569335D01*
X170768477Y-116495465D01*
X170705218Y-116300776D01*
X170654954Y-116202129D01*
X170612287Y-116118390D01*
X170604556Y-116107749D01*
X170491971Y-115952786D01*
X170347213Y-115808028D01*
X170181611Y-115687713D01*
X170147272Y-115670216D01*
X170115887Y-115647413D01*
X168914648Y-114446174D01*
X168914647Y-114446173D01*
X168914646Y-114446172D01*
X168755405Y-114330476D01*
X168580030Y-114241117D01*
X168392826Y-114180290D01*
X168198422Y-114149500D01*
X168198417Y-114149500D01*
X162654500Y-114149500D01*
X162587461Y-114129815D01*
X162541706Y-114077011D01*
X162530500Y-114025500D01*
X162530500Y-110969336D01*
X162550185Y-110902297D01*
X162566819Y-110881655D01*
X162831655Y-110616819D01*
X162892978Y-110583334D01*
X162919336Y-110580500D01*
X163600005Y-110580500D01*
X163600010Y-110580500D01*
X163702798Y-110569999D01*
X163869335Y-110514814D01*
X164018656Y-110422712D01*
X164142712Y-110298656D01*
X164148420Y-110289402D01*
X164200368Y-110242678D01*
X164253958Y-110230500D01*
X164668422Y-110230500D01*
X164862826Y-110199709D01*
X165050026Y-110138884D01*
X165225405Y-110049524D01*
X165384646Y-109933828D01*
X168336460Y-106982014D01*
X187500000Y-106982014D01*
X187500000Y-107217985D01*
X187530799Y-107451914D01*
X187591870Y-107679837D01*
X187682160Y-107897819D01*
X187682165Y-107897828D01*
X187800144Y-108102171D01*
X187800145Y-108102172D01*
X187862721Y-108183723D01*
X188698958Y-107347487D01*
X188723978Y-107407890D01*
X188795112Y-107514351D01*
X188885649Y-107604888D01*
X188992110Y-107676022D01*
X189052511Y-107701041D01*
X188216275Y-108537277D01*
X188297827Y-108599854D01*
X188297828Y-108599855D01*
X188502171Y-108717834D01*
X188502180Y-108717839D01*
X188720163Y-108808129D01*
X188720161Y-108808129D01*
X188948085Y-108869200D01*
X189182014Y-108899999D01*
X189182029Y-108900000D01*
X189417971Y-108900000D01*
X189417985Y-108899999D01*
X189651914Y-108869200D01*
X189879837Y-108808129D01*
X190097819Y-108717839D01*
X190097828Y-108717834D01*
X190302181Y-108599850D01*
X190383723Y-108537279D01*
X190383723Y-108537276D01*
X189547487Y-107701041D01*
X189607890Y-107676022D01*
X189714351Y-107604888D01*
X189804888Y-107514351D01*
X189876022Y-107407890D01*
X189901041Y-107347487D01*
X190737276Y-108183723D01*
X190737279Y-108183723D01*
X190799850Y-108102181D01*
X190917834Y-107897828D01*
X190917839Y-107897819D01*
X191008129Y-107679837D01*
X191069200Y-107451914D01*
X191099999Y-107217985D01*
X191100000Y-107217971D01*
X191100000Y-106982028D01*
X191099999Y-106982014D01*
X191069200Y-106748085D01*
X191008129Y-106520162D01*
X190917839Y-106302180D01*
X190917834Y-106302171D01*
X190799855Y-106097828D01*
X190799854Y-106097827D01*
X190737277Y-106016275D01*
X189901041Y-106852511D01*
X189876022Y-106792110D01*
X189804888Y-106685649D01*
X189714351Y-106595112D01*
X189607890Y-106523978D01*
X189547488Y-106498958D01*
X190383723Y-105662721D01*
X190302172Y-105600145D01*
X190302171Y-105600144D01*
X190097828Y-105482165D01*
X190097819Y-105482160D01*
X189879836Y-105391870D01*
X189879838Y-105391870D01*
X189651914Y-105330799D01*
X189417985Y-105300000D01*
X189182014Y-105300000D01*
X188948085Y-105330799D01*
X188720162Y-105391870D01*
X188502180Y-105482160D01*
X188502171Y-105482165D01*
X188297828Y-105600144D01*
X188297818Y-105600150D01*
X188216275Y-105662720D01*
X188216275Y-105662721D01*
X189052512Y-106498958D01*
X188992110Y-106523978D01*
X188885649Y-106595112D01*
X188795112Y-106685649D01*
X188723978Y-106792110D01*
X188698958Y-106852512D01*
X187862721Y-106016275D01*
X187862720Y-106016275D01*
X187800150Y-106097818D01*
X187800144Y-106097828D01*
X187682165Y-106302171D01*
X187682160Y-106302180D01*
X187591870Y-106520162D01*
X187530799Y-106748085D01*
X187500000Y-106982014D01*
X168336460Y-106982014D01*
X170281655Y-105036819D01*
X170342978Y-105003334D01*
X170369336Y-105000500D01*
X174930664Y-105000500D01*
X174997703Y-105020185D01*
X175018345Y-105036819D01*
X175197413Y-105215887D01*
X175220216Y-105247272D01*
X175237713Y-105281611D01*
X175358028Y-105447213D01*
X175502786Y-105591971D01*
X175623225Y-105679473D01*
X175668390Y-105712287D01*
X175784607Y-105771503D01*
X175850776Y-105805218D01*
X175850778Y-105805218D01*
X175850781Y-105805220D01*
X175955137Y-105839127D01*
X176045465Y-105868477D01*
X176146557Y-105884488D01*
X176247648Y-105900500D01*
X176247649Y-105900500D01*
X176452351Y-105900500D01*
X176452352Y-105900500D01*
X176654534Y-105868477D01*
X176849219Y-105805220D01*
X177031610Y-105712287D01*
X177185955Y-105600150D01*
X177197213Y-105591971D01*
X177197215Y-105591968D01*
X177197219Y-105591966D01*
X177341966Y-105447219D01*
X177341968Y-105447215D01*
X177341971Y-105447213D01*
X177462286Y-105281611D01*
X177462415Y-105281359D01*
X177489795Y-105227621D01*
X177537769Y-105176826D01*
X177605589Y-105160030D01*
X177671725Y-105182567D01*
X177710765Y-105227621D01*
X177738141Y-105281350D01*
X177738147Y-105281359D01*
X177770523Y-105325921D01*
X177770524Y-105325922D01*
X178450000Y-104646446D01*
X178450000Y-104652661D01*
X178477259Y-104754394D01*
X178529920Y-104845606D01*
X178604394Y-104920080D01*
X178695606Y-104972741D01*
X178797339Y-105000000D01*
X178803553Y-105000000D01*
X178124076Y-105679474D01*
X178168650Y-105711859D01*
X178350968Y-105804755D01*
X178545582Y-105867990D01*
X178747683Y-105900000D01*
X178952317Y-105900000D01*
X179154417Y-105867990D01*
X179349031Y-105804755D01*
X179531349Y-105711859D01*
X179575921Y-105679474D01*
X179575921Y-105679473D01*
X178896447Y-105000000D01*
X178902661Y-105000000D01*
X179004394Y-104972741D01*
X179095606Y-104920080D01*
X179170080Y-104845606D01*
X179222741Y-104754394D01*
X179250000Y-104652661D01*
X179250000Y-104646448D01*
X179929474Y-105325922D01*
X179929474Y-105325921D01*
X179961859Y-105281349D01*
X180054755Y-105099031D01*
X180117990Y-104904417D01*
X180150000Y-104702317D01*
X180150000Y-104497682D01*
X180117990Y-104295582D01*
X180054755Y-104100968D01*
X179961859Y-103918650D01*
X179929474Y-103874077D01*
X179929474Y-103874076D01*
X179250000Y-104553551D01*
X179250000Y-104547339D01*
X179222741Y-104445606D01*
X179170080Y-104354394D01*
X179095606Y-104279920D01*
X179004394Y-104227259D01*
X178902661Y-104200000D01*
X178896446Y-104200000D01*
X179575922Y-103520524D01*
X179575921Y-103520523D01*
X179531359Y-103488147D01*
X179531350Y-103488141D01*
X179349031Y-103395244D01*
X179154417Y-103332009D01*
X178952317Y-103300000D01*
X178747683Y-103300000D01*
X178545582Y-103332009D01*
X178350968Y-103395244D01*
X178168644Y-103488143D01*
X178124077Y-103520523D01*
X178124077Y-103520524D01*
X178803554Y-104200000D01*
X178797339Y-104200000D01*
X178695606Y-104227259D01*
X178604394Y-104279920D01*
X178529920Y-104354394D01*
X178477259Y-104445606D01*
X178450000Y-104547339D01*
X178450000Y-104553553D01*
X177770524Y-103874077D01*
X177770523Y-103874077D01*
X177738143Y-103918644D01*
X177710765Y-103972378D01*
X177662790Y-104023174D01*
X177594969Y-104039969D01*
X177528834Y-104017431D01*
X177489795Y-103972378D01*
X177462284Y-103918385D01*
X177341971Y-103752786D01*
X177197213Y-103608028D01*
X177031611Y-103487713D01*
X176997272Y-103470216D01*
X176965887Y-103447413D01*
X176314648Y-102796174D01*
X176314646Y-102796172D01*
X176155405Y-102680476D01*
X175980030Y-102591117D01*
X175792826Y-102530290D01*
X175598422Y-102499500D01*
X175598417Y-102499500D01*
X170646683Y-102499500D01*
X170579644Y-102479815D01*
X170533889Y-102427011D01*
X170523065Y-102365771D01*
X170525921Y-102329473D01*
X169846447Y-101650000D01*
X169852661Y-101650000D01*
X169954394Y-101622741D01*
X170045606Y-101570080D01*
X170120080Y-101495606D01*
X170172741Y-101404394D01*
X170200000Y-101302661D01*
X170200000Y-101296448D01*
X170879474Y-101975922D01*
X170879474Y-101975921D01*
X170911859Y-101931349D01*
X171004755Y-101749031D01*
X171067990Y-101554417D01*
X171100000Y-101352317D01*
X171100000Y-101147682D01*
X171067990Y-100945582D01*
X171004755Y-100750968D01*
X170911859Y-100568650D01*
X170879474Y-100524077D01*
X170879474Y-100524076D01*
X170200000Y-101203551D01*
X170200000Y-101197339D01*
X170172741Y-101095606D01*
X170120080Y-101004394D01*
X170045606Y-100929920D01*
X169954394Y-100877259D01*
X169852661Y-100850000D01*
X169846446Y-100850000D01*
X170525922Y-100170524D01*
X170525921Y-100170523D01*
X170481359Y-100138147D01*
X170481350Y-100138141D01*
X170299031Y-100045244D01*
X170104417Y-99982009D01*
X169902317Y-99950000D01*
X169697683Y-99950000D01*
X169495582Y-99982009D01*
X169300968Y-100045244D01*
X169118644Y-100138143D01*
X169074077Y-100170523D01*
X169074077Y-100170524D01*
X169753554Y-100850000D01*
X169747339Y-100850000D01*
X169645606Y-100877259D01*
X169554394Y-100929920D01*
X169479920Y-101004394D01*
X169427259Y-101095606D01*
X169400000Y-101197339D01*
X169400000Y-101203553D01*
X168720524Y-100524077D01*
X168720523Y-100524077D01*
X168688143Y-100568644D01*
X168595244Y-100750968D01*
X168532009Y-100945582D01*
X168500000Y-101147682D01*
X168500000Y-101352317D01*
X168532009Y-101554417D01*
X168595244Y-101749031D01*
X168688141Y-101931350D01*
X168688147Y-101931359D01*
X168720523Y-101975921D01*
X168720524Y-101975922D01*
X169400000Y-101296446D01*
X169400000Y-101302661D01*
X169427259Y-101404394D01*
X169479920Y-101495606D01*
X169554394Y-101570080D01*
X169645606Y-101622741D01*
X169747339Y-101650000D01*
X169753553Y-101650000D01*
X169074076Y-102329474D01*
X169118652Y-102361861D01*
X169172376Y-102389234D01*
X169223172Y-102437208D01*
X169239968Y-102505028D01*
X169217431Y-102571164D01*
X169172379Y-102610203D01*
X169118386Y-102637714D01*
X168952786Y-102758028D01*
X168808028Y-102902786D01*
X168687714Y-103068386D01*
X168670216Y-103102727D01*
X168647414Y-103134110D01*
X164219127Y-107562397D01*
X164157804Y-107595882D01*
X164088112Y-107590898D01*
X164043765Y-107562397D01*
X164018657Y-107537289D01*
X164018656Y-107537288D01*
X163869335Y-107445186D01*
X163702798Y-107390001D01*
X163702796Y-107390000D01*
X163600017Y-107379500D01*
X163600010Y-107379500D01*
X161799990Y-107379500D01*
X161799982Y-107379500D01*
X161697203Y-107390000D01*
X161697202Y-107390001D01*
X161643217Y-107407890D01*
X161530667Y-107445185D01*
X161530662Y-107445187D01*
X161381342Y-107537289D01*
X161257289Y-107661342D01*
X161165187Y-107810662D01*
X161165186Y-107810665D01*
X161110001Y-107977202D01*
X161110001Y-107977203D01*
X161110000Y-107977203D01*
X161099500Y-108079982D01*
X161099500Y-108760664D01*
X161079815Y-108827703D01*
X161063181Y-108848345D01*
X160326174Y-109585351D01*
X160326174Y-109585352D01*
X160326172Y-109585354D01*
X160276485Y-109653741D01*
X160210476Y-109744594D01*
X160121117Y-109919971D01*
X160121116Y-109919973D01*
X160121116Y-109919974D01*
X160076133Y-110058417D01*
X160070985Y-110074260D01*
X160060290Y-110107175D01*
X160029500Y-110301577D01*
X160029500Y-114025500D01*
X160009815Y-114092539D01*
X159957011Y-114138294D01*
X159905500Y-114149500D01*
X156791578Y-114149500D01*
X156604018Y-114179207D01*
X156597950Y-114180168D01*
X156597167Y-114180292D01*
X156409969Y-114241117D01*
X156234594Y-114330476D01*
X156143742Y-114396484D01*
X156075355Y-114446171D01*
X156075353Y-114446173D01*
X156075352Y-114446173D01*
X150474110Y-120047414D01*
X150442727Y-120070216D01*
X150408386Y-120087714D01*
X150242786Y-120208028D01*
X150098028Y-120352786D01*
X149977715Y-120518386D01*
X149884781Y-120700776D01*
X149821522Y-120895465D01*
X149791993Y-121081908D01*
X149789500Y-121097648D01*
X147414672Y-121097648D01*
X147425922Y-121089474D01*
X146746447Y-120410000D01*
X146752661Y-120410000D01*
X146854394Y-120382741D01*
X146945606Y-120330080D01*
X147020080Y-120255606D01*
X147072741Y-120164394D01*
X147100000Y-120062661D01*
X147100000Y-120056447D01*
X147779474Y-120735921D01*
X147811859Y-120691349D01*
X147904755Y-120509031D01*
X147967990Y-120314417D01*
X148000000Y-120112317D01*
X148000000Y-119907682D01*
X147967990Y-119705582D01*
X147904755Y-119510968D01*
X147811859Y-119328650D01*
X147779474Y-119284077D01*
X147779474Y-119284076D01*
X147100000Y-119963551D01*
X147100000Y-119957339D01*
X147072741Y-119855606D01*
X147020080Y-119764394D01*
X146945606Y-119689920D01*
X146854394Y-119637259D01*
X146752661Y-119610000D01*
X146746446Y-119610000D01*
X147425922Y-118930524D01*
X147425921Y-118930523D01*
X147381359Y-118898147D01*
X147381350Y-118898141D01*
X147199031Y-118805244D01*
X147004417Y-118742009D01*
X146802317Y-118710000D01*
X146597683Y-118710000D01*
X146395582Y-118742009D01*
X146200968Y-118805244D01*
X146018644Y-118898143D01*
X145974077Y-118930523D01*
X145974077Y-118930524D01*
X146653554Y-119610000D01*
X146647339Y-119610000D01*
X146545606Y-119637259D01*
X146454394Y-119689920D01*
X146379920Y-119764394D01*
X146327259Y-119855606D01*
X146300000Y-119957339D01*
X146300000Y-119963553D01*
X145620524Y-119284077D01*
X145620523Y-119284077D01*
X145588143Y-119328644D01*
X145495244Y-119510968D01*
X145432009Y-119705582D01*
X145400000Y-119907682D01*
X121800500Y-119907682D01*
X121800500Y-116202135D01*
X124199500Y-116202135D01*
X124199500Y-118847870D01*
X124199501Y-118847876D01*
X124205908Y-118907483D01*
X124256202Y-119042328D01*
X124256206Y-119042335D01*
X124342452Y-119157544D01*
X124342455Y-119157547D01*
X124457664Y-119243793D01*
X124457671Y-119243797D01*
X124592517Y-119294091D01*
X124592516Y-119294091D01*
X124599444Y-119294835D01*
X124652127Y-119300500D01*
X127147872Y-119300499D01*
X127207483Y-119294091D01*
X127342331Y-119243796D01*
X127457546Y-119157546D01*
X127543796Y-119042331D01*
X127594091Y-118907483D01*
X127600500Y-118847873D01*
X127600499Y-116202128D01*
X127594091Y-116142517D01*
X127586987Y-116123471D01*
X127543797Y-116007671D01*
X127543793Y-116007664D01*
X127457547Y-115892455D01*
X127457544Y-115892452D01*
X127342335Y-115806206D01*
X127342328Y-115806202D01*
X127207482Y-115755908D01*
X127207483Y-115755908D01*
X127147883Y-115749501D01*
X127147881Y-115749500D01*
X127147873Y-115749500D01*
X127147864Y-115749500D01*
X124652129Y-115749500D01*
X124652123Y-115749501D01*
X124592516Y-115755908D01*
X124457671Y-115806202D01*
X124457664Y-115806206D01*
X124342455Y-115892452D01*
X124342452Y-115892455D01*
X124256206Y-116007664D01*
X124256202Y-116007671D01*
X124205908Y-116142517D01*
X124201115Y-116187106D01*
X124199501Y-116202123D01*
X124199500Y-116202135D01*
X121800500Y-116202135D01*
X121800500Y-106190548D01*
X123530000Y-106190548D01*
X123530000Y-106409451D01*
X123530001Y-106409467D01*
X123558573Y-106626496D01*
X123615234Y-106837956D01*
X123699004Y-107040198D01*
X123699012Y-107040214D01*
X123808460Y-107229782D01*
X123808466Y-107229790D01*
X123855438Y-107291007D01*
X124598958Y-106547487D01*
X124623978Y-106607890D01*
X124695112Y-106714351D01*
X124785649Y-106804888D01*
X124892110Y-106876022D01*
X124952511Y-106901041D01*
X124208991Y-107644560D01*
X124208991Y-107644561D01*
X124270200Y-107691527D01*
X124270208Y-107691532D01*
X124459792Y-107800990D01*
X124459801Y-107800995D01*
X124662043Y-107884765D01*
X124873503Y-107941426D01*
X125090532Y-107969998D01*
X125090549Y-107970000D01*
X125309451Y-107970000D01*
X125309467Y-107969998D01*
X125526496Y-107941426D01*
X125737956Y-107884765D01*
X125940198Y-107800995D01*
X125940214Y-107800987D01*
X126129785Y-107691537D01*
X126129793Y-107691531D01*
X126191007Y-107644560D01*
X125447488Y-106901041D01*
X125507890Y-106876022D01*
X125614351Y-106804888D01*
X125704888Y-106714351D01*
X125776022Y-106607890D01*
X125801041Y-106547488D01*
X126544560Y-107291007D01*
X126591531Y-107229793D01*
X126591537Y-107229785D01*
X126700987Y-107040214D01*
X126700995Y-107040198D01*
X126784765Y-106837956D01*
X126841426Y-106626496D01*
X126869998Y-106409467D01*
X126870000Y-106409451D01*
X126870000Y-106190548D01*
X126869998Y-106190532D01*
X126841426Y-105973503D01*
X126784765Y-105762043D01*
X126700995Y-105559801D01*
X126700990Y-105559792D01*
X126591532Y-105370208D01*
X126591527Y-105370200D01*
X126544560Y-105308991D01*
X125801041Y-106052510D01*
X125776022Y-105992110D01*
X125704888Y-105885649D01*
X125614351Y-105795112D01*
X125507890Y-105723978D01*
X125447487Y-105698957D01*
X126191007Y-104955438D01*
X126191007Y-104955437D01*
X126129790Y-104908466D01*
X126129782Y-104908460D01*
X125940214Y-104799012D01*
X125940198Y-104799004D01*
X125737956Y-104715234D01*
X125526496Y-104658573D01*
X125309467Y-104630001D01*
X125309451Y-104630000D01*
X125090549Y-104630000D01*
X125090532Y-104630001D01*
X124873503Y-104658573D01*
X124662043Y-104715234D01*
X124459801Y-104799004D01*
X124459785Y-104799012D01*
X124270215Y-104908461D01*
X124270200Y-104908471D01*
X124208990Y-104955438D01*
X124952511Y-105698958D01*
X124892110Y-105723978D01*
X124785649Y-105795112D01*
X124695112Y-105885649D01*
X124623978Y-105992110D01*
X124598958Y-106052511D01*
X123855438Y-105308990D01*
X123808471Y-105370200D01*
X123808461Y-105370215D01*
X123699012Y-105559785D01*
X123699004Y-105559801D01*
X123615234Y-105762043D01*
X123558573Y-105973503D01*
X123530001Y-106190532D01*
X123530000Y-106190548D01*
X121800500Y-106190548D01*
X121800500Y-101872888D01*
X121820185Y-101805849D01*
X121836814Y-101785212D01*
X125718404Y-97903621D01*
X125758626Y-97876745D01*
X125940428Y-97801440D01*
X126130071Y-97691950D01*
X126303800Y-97558643D01*
X126458643Y-97403800D01*
X126591950Y-97230071D01*
X126701440Y-97040428D01*
X126785241Y-96838117D01*
X126841917Y-96626598D01*
X126870500Y-96409490D01*
X126870500Y-96190510D01*
X126841917Y-95973402D01*
X126785241Y-95761883D01*
X126701440Y-95559572D01*
X126591950Y-95369929D01*
X126458643Y-95196200D01*
X126458638Y-95196194D01*
X126303805Y-95041361D01*
X126303798Y-95041355D01*
X126130070Y-94908049D01*
X125940438Y-94798565D01*
X125940433Y-94798562D01*
X125940428Y-94798560D01*
X125738117Y-94714759D01*
X125738118Y-94714759D01*
X125738115Y-94714758D01*
X125632357Y-94686421D01*
X125526598Y-94658083D01*
X125486326Y-94652781D01*
X125309497Y-94629500D01*
X125309490Y-94629500D01*
X125090510Y-94629500D01*
X125090502Y-94629500D01*
X124883853Y-94656707D01*
X124873402Y-94658083D01*
X124828699Y-94670060D01*
X124661884Y-94714758D01*
X124543374Y-94763847D01*
X124459572Y-94798560D01*
X124459569Y-94798561D01*
X124459561Y-94798565D01*
X124269929Y-94908049D01*
X124096201Y-95041355D01*
X124096194Y-95041361D01*
X123941361Y-95196194D01*
X123941355Y-95196201D01*
X123808049Y-95369929D01*
X123698565Y-95559561D01*
X123698562Y-95559568D01*
X123623257Y-95741367D01*
X123596377Y-95781594D01*
X119155485Y-100222487D01*
X119155484Y-100222488D01*
X119016659Y-100413562D01*
X119016658Y-100413564D01*
X118946887Y-100550499D01*
X118909433Y-100624003D01*
X118836446Y-100848631D01*
X118799500Y-101081902D01*
X118200500Y-101081902D01*
X118200500Y-82624500D01*
X118220185Y-82557461D01*
X118272989Y-82511706D01*
X118324500Y-82500500D01*
X139231664Y-82500500D01*
X139298703Y-82520185D01*
G37*
%TD.AperFunction*%
%TA.AperFunction,Conductor*%
G36*
X154229474Y-126625921D02*
G01*
X154261859Y-126581349D01*
X154289233Y-126527624D01*
X154337207Y-126476827D01*
X154405028Y-126460031D01*
X154471163Y-126482567D01*
X154510203Y-126527621D01*
X154537713Y-126581611D01*
X154658028Y-126747213D01*
X154802786Y-126891971D01*
X154923226Y-126979474D01*
X154968390Y-127012287D01*
X155055042Y-127056438D01*
X155071874Y-127065015D01*
X155122670Y-127112990D01*
X155139465Y-127180811D01*
X155116927Y-127246946D01*
X155062212Y-127290397D01*
X155015579Y-127299500D01*
X153783321Y-127299500D01*
X153716282Y-127279815D01*
X153670527Y-127227011D01*
X153660583Y-127157853D01*
X153689608Y-127094297D01*
X153727026Y-127065015D01*
X153831349Y-127011859D01*
X153875921Y-126979474D01*
X153196447Y-126300000D01*
X153202661Y-126300000D01*
X153304394Y-126272741D01*
X153395606Y-126220080D01*
X153470080Y-126145606D01*
X153522741Y-126054394D01*
X153550000Y-125952661D01*
X153550000Y-125946447D01*
X154229474Y-126625921D01*
G37*
%TD.AperFunction*%
%TD*%
M02*
