%TF.GenerationSoftware,KiCad,Pcbnew,10.0.5*%
%TF.CreationDate,2026-09-25T23:13:27+05:30*%
%TF.ProjectId,Audio Amplifier,41756469-6f20-4416-9d70-6c6966696572,rev?*%
%TF.SameCoordinates,Original*%
%TF.FileFunction,Legend,Top*%
%TF.FilePolarity,Positive*%
%FSLAX46Y46*%
G04 Gerber Fmt 4.6, Leading zero omitted, Abs format (unit mm)*
G04 Created by KiCad (PCBNEW 10.0.5) date 2026-09-25 23:13:27*
%MOMM*%
%LPD*%
G01*
G04 APERTURE LIST*
%ADD10C,0.150000*%
%ADD11C,0.120000*%
G04 APERTURE END LIST*
D10*
X125436653Y-114509243D02*
X125436653Y-115224659D01*
X125436653Y-115224659D02*
X125388959Y-115367743D01*
X125388959Y-115367743D02*
X125293570Y-115463132D01*
X125293570Y-115463132D02*
X125150487Y-115510826D01*
X125150487Y-115510826D02*
X125055098Y-115510826D01*
X125818209Y-114509243D02*
X126438236Y-114509243D01*
X126438236Y-114509243D02*
X126104375Y-114890798D01*
X126104375Y-114890798D02*
X126247459Y-114890798D01*
X126247459Y-114890798D02*
X126342848Y-114938493D01*
X126342848Y-114938493D02*
X126390542Y-114986187D01*
X126390542Y-114986187D02*
X126438236Y-115081576D01*
X126438236Y-115081576D02*
X126438236Y-115320048D01*
X126438236Y-115320048D02*
X126390542Y-115415437D01*
X126390542Y-115415437D02*
X126342848Y-115463132D01*
X126342848Y-115463132D02*
X126247459Y-115510826D01*
X126247459Y-115510826D02*
X125961292Y-115510826D01*
X125961292Y-115510826D02*
X125865903Y-115463132D01*
X125865903Y-115463132D02*
X125818209Y-115415437D01*
X145638095Y-93904819D02*
X145638095Y-94714342D01*
X145638095Y-94714342D02*
X145685714Y-94809580D01*
X145685714Y-94809580D02*
X145733333Y-94857200D01*
X145733333Y-94857200D02*
X145828571Y-94904819D01*
X145828571Y-94904819D02*
X146019047Y-94904819D01*
X146019047Y-94904819D02*
X146114285Y-94857200D01*
X146114285Y-94857200D02*
X146161904Y-94809580D01*
X146161904Y-94809580D02*
X146209523Y-94714342D01*
X146209523Y-94714342D02*
X146209523Y-93904819D01*
X147209523Y-94904819D02*
X146638095Y-94904819D01*
X146923809Y-94904819D02*
X146923809Y-93904819D01*
X146923809Y-93904819D02*
X146828571Y-94047676D01*
X146828571Y-94047676D02*
X146733333Y-94142914D01*
X146733333Y-94142914D02*
X146638095Y-94190533D01*
X155461905Y-113384819D02*
X155461905Y-112384819D01*
X155461905Y-112384819D02*
X155700000Y-112384819D01*
X155700000Y-112384819D02*
X155842857Y-112432438D01*
X155842857Y-112432438D02*
X155938095Y-112527676D01*
X155938095Y-112527676D02*
X155985714Y-112622914D01*
X155985714Y-112622914D02*
X156033333Y-112813390D01*
X156033333Y-112813390D02*
X156033333Y-112956247D01*
X156033333Y-112956247D02*
X155985714Y-113146723D01*
X155985714Y-113146723D02*
X155938095Y-113241961D01*
X155938095Y-113241961D02*
X155842857Y-113337200D01*
X155842857Y-113337200D02*
X155700000Y-113384819D01*
X155700000Y-113384819D02*
X155461905Y-113384819D01*
X156414286Y-112480057D02*
X156461905Y-112432438D01*
X156461905Y-112432438D02*
X156557143Y-112384819D01*
X156557143Y-112384819D02*
X156795238Y-112384819D01*
X156795238Y-112384819D02*
X156890476Y-112432438D01*
X156890476Y-112432438D02*
X156938095Y-112480057D01*
X156938095Y-112480057D02*
X156985714Y-112575295D01*
X156985714Y-112575295D02*
X156985714Y-112670533D01*
X156985714Y-112670533D02*
X156938095Y-112813390D01*
X156938095Y-112813390D02*
X156366667Y-113384819D01*
X156366667Y-113384819D02*
X156985714Y-113384819D01*
X150858095Y-113754819D02*
X150858095Y-112754819D01*
X151429523Y-113754819D02*
X151000952Y-113183390D01*
X151429523Y-112754819D02*
X150858095Y-113326247D01*
X154733333Y-119284819D02*
X154400000Y-118808628D01*
X154161905Y-119284819D02*
X154161905Y-118284819D01*
X154161905Y-118284819D02*
X154542857Y-118284819D01*
X154542857Y-118284819D02*
X154638095Y-118332438D01*
X154638095Y-118332438D02*
X154685714Y-118380057D01*
X154685714Y-118380057D02*
X154733333Y-118475295D01*
X154733333Y-118475295D02*
X154733333Y-118618152D01*
X154733333Y-118618152D02*
X154685714Y-118713390D01*
X154685714Y-118713390D02*
X154638095Y-118761009D01*
X154638095Y-118761009D02*
X154542857Y-118808628D01*
X154542857Y-118808628D02*
X154161905Y-118808628D01*
X155590476Y-118284819D02*
X155400000Y-118284819D01*
X155400000Y-118284819D02*
X155304762Y-118332438D01*
X155304762Y-118332438D02*
X155257143Y-118380057D01*
X155257143Y-118380057D02*
X155161905Y-118522914D01*
X155161905Y-118522914D02*
X155114286Y-118713390D01*
X155114286Y-118713390D02*
X155114286Y-119094342D01*
X155114286Y-119094342D02*
X155161905Y-119189580D01*
X155161905Y-119189580D02*
X155209524Y-119237200D01*
X155209524Y-119237200D02*
X155304762Y-119284819D01*
X155304762Y-119284819D02*
X155495238Y-119284819D01*
X155495238Y-119284819D02*
X155590476Y-119237200D01*
X155590476Y-119237200D02*
X155638095Y-119189580D01*
X155638095Y-119189580D02*
X155685714Y-119094342D01*
X155685714Y-119094342D02*
X155685714Y-118856247D01*
X155685714Y-118856247D02*
X155638095Y-118761009D01*
X155638095Y-118761009D02*
X155590476Y-118713390D01*
X155590476Y-118713390D02*
X155495238Y-118665771D01*
X155495238Y-118665771D02*
X155304762Y-118665771D01*
X155304762Y-118665771D02*
X155209524Y-118713390D01*
X155209524Y-118713390D02*
X155161905Y-118761009D01*
X155161905Y-118761009D02*
X155114286Y-118856247D01*
X152033333Y-105684819D02*
X151700000Y-105208628D01*
X151461905Y-105684819D02*
X151461905Y-104684819D01*
X151461905Y-104684819D02*
X151842857Y-104684819D01*
X151842857Y-104684819D02*
X151938095Y-104732438D01*
X151938095Y-104732438D02*
X151985714Y-104780057D01*
X151985714Y-104780057D02*
X152033333Y-104875295D01*
X152033333Y-104875295D02*
X152033333Y-105018152D01*
X152033333Y-105018152D02*
X151985714Y-105113390D01*
X151985714Y-105113390D02*
X151938095Y-105161009D01*
X151938095Y-105161009D02*
X151842857Y-105208628D01*
X151842857Y-105208628D02*
X151461905Y-105208628D01*
X152414286Y-104780057D02*
X152461905Y-104732438D01*
X152461905Y-104732438D02*
X152557143Y-104684819D01*
X152557143Y-104684819D02*
X152795238Y-104684819D01*
X152795238Y-104684819D02*
X152890476Y-104732438D01*
X152890476Y-104732438D02*
X152938095Y-104780057D01*
X152938095Y-104780057D02*
X152985714Y-104875295D01*
X152985714Y-104875295D02*
X152985714Y-104970533D01*
X152985714Y-104970533D02*
X152938095Y-105113390D01*
X152938095Y-105113390D02*
X152366667Y-105684819D01*
X152366667Y-105684819D02*
X152985714Y-105684819D01*
X177433333Y-100559580D02*
X177385714Y-100607200D01*
X177385714Y-100607200D02*
X177242857Y-100654819D01*
X177242857Y-100654819D02*
X177147619Y-100654819D01*
X177147619Y-100654819D02*
X177004762Y-100607200D01*
X177004762Y-100607200D02*
X176909524Y-100511961D01*
X176909524Y-100511961D02*
X176861905Y-100416723D01*
X176861905Y-100416723D02*
X176814286Y-100226247D01*
X176814286Y-100226247D02*
X176814286Y-100083390D01*
X176814286Y-100083390D02*
X176861905Y-99892914D01*
X176861905Y-99892914D02*
X176909524Y-99797676D01*
X176909524Y-99797676D02*
X177004762Y-99702438D01*
X177004762Y-99702438D02*
X177147619Y-99654819D01*
X177147619Y-99654819D02*
X177242857Y-99654819D01*
X177242857Y-99654819D02*
X177385714Y-99702438D01*
X177385714Y-99702438D02*
X177433333Y-99750057D01*
X177766667Y-99654819D02*
X178385714Y-99654819D01*
X178385714Y-99654819D02*
X178052381Y-100035771D01*
X178052381Y-100035771D02*
X178195238Y-100035771D01*
X178195238Y-100035771D02*
X178290476Y-100083390D01*
X178290476Y-100083390D02*
X178338095Y-100131009D01*
X178338095Y-100131009D02*
X178385714Y-100226247D01*
X178385714Y-100226247D02*
X178385714Y-100464342D01*
X178385714Y-100464342D02*
X178338095Y-100559580D01*
X178338095Y-100559580D02*
X178290476Y-100607200D01*
X178290476Y-100607200D02*
X178195238Y-100654819D01*
X178195238Y-100654819D02*
X177909524Y-100654819D01*
X177909524Y-100654819D02*
X177814286Y-100607200D01*
X177814286Y-100607200D02*
X177766667Y-100559580D01*
X162006666Y-93674819D02*
X162006666Y-94389104D01*
X162006666Y-94389104D02*
X161959047Y-94531961D01*
X161959047Y-94531961D02*
X161863809Y-94627200D01*
X161863809Y-94627200D02*
X161720952Y-94674819D01*
X161720952Y-94674819D02*
X161625714Y-94674819D01*
X163006666Y-94674819D02*
X162435238Y-94674819D01*
X162720952Y-94674819D02*
X162720952Y-93674819D01*
X162720952Y-93674819D02*
X162625714Y-93817676D01*
X162625714Y-93817676D02*
X162530476Y-93912914D01*
X162530476Y-93912914D02*
X162435238Y-93960533D01*
X124604761Y-111004819D02*
X124271428Y-110528628D01*
X124033333Y-111004819D02*
X124033333Y-110004819D01*
X124033333Y-110004819D02*
X124414285Y-110004819D01*
X124414285Y-110004819D02*
X124509523Y-110052438D01*
X124509523Y-110052438D02*
X124557142Y-110100057D01*
X124557142Y-110100057D02*
X124604761Y-110195295D01*
X124604761Y-110195295D02*
X124604761Y-110338152D01*
X124604761Y-110338152D02*
X124557142Y-110433390D01*
X124557142Y-110433390D02*
X124509523Y-110481009D01*
X124509523Y-110481009D02*
X124414285Y-110528628D01*
X124414285Y-110528628D02*
X124033333Y-110528628D01*
X124890476Y-110004819D02*
X125223809Y-111004819D01*
X125223809Y-111004819D02*
X125557142Y-110004819D01*
X126414285Y-111004819D02*
X125842857Y-111004819D01*
X126128571Y-111004819D02*
X126128571Y-110004819D01*
X126128571Y-110004819D02*
X126033333Y-110147676D01*
X126033333Y-110147676D02*
X125938095Y-110242914D01*
X125938095Y-110242914D02*
X125842857Y-110290533D01*
X139433333Y-113309580D02*
X139385714Y-113357200D01*
X139385714Y-113357200D02*
X139242857Y-113404819D01*
X139242857Y-113404819D02*
X139147619Y-113404819D01*
X139147619Y-113404819D02*
X139004762Y-113357200D01*
X139004762Y-113357200D02*
X138909524Y-113261961D01*
X138909524Y-113261961D02*
X138861905Y-113166723D01*
X138861905Y-113166723D02*
X138814286Y-112976247D01*
X138814286Y-112976247D02*
X138814286Y-112833390D01*
X138814286Y-112833390D02*
X138861905Y-112642914D01*
X138861905Y-112642914D02*
X138909524Y-112547676D01*
X138909524Y-112547676D02*
X139004762Y-112452438D01*
X139004762Y-112452438D02*
X139147619Y-112404819D01*
X139147619Y-112404819D02*
X139242857Y-112404819D01*
X139242857Y-112404819D02*
X139385714Y-112452438D01*
X139385714Y-112452438D02*
X139433333Y-112500057D01*
X140290476Y-112738152D02*
X140290476Y-113404819D01*
X140052381Y-112357200D02*
X139814286Y-113071485D01*
X139814286Y-113071485D02*
X140433333Y-113071485D01*
X167609580Y-102666666D02*
X167657200Y-102714285D01*
X167657200Y-102714285D02*
X167704819Y-102857142D01*
X167704819Y-102857142D02*
X167704819Y-102952380D01*
X167704819Y-102952380D02*
X167657200Y-103095237D01*
X167657200Y-103095237D02*
X167561961Y-103190475D01*
X167561961Y-103190475D02*
X167466723Y-103238094D01*
X167466723Y-103238094D02*
X167276247Y-103285713D01*
X167276247Y-103285713D02*
X167133390Y-103285713D01*
X167133390Y-103285713D02*
X166942914Y-103238094D01*
X166942914Y-103238094D02*
X166847676Y-103190475D01*
X166847676Y-103190475D02*
X166752438Y-103095237D01*
X166752438Y-103095237D02*
X166704819Y-102952380D01*
X166704819Y-102952380D02*
X166704819Y-102857142D01*
X166704819Y-102857142D02*
X166752438Y-102714285D01*
X166752438Y-102714285D02*
X166800057Y-102666666D01*
X166704819Y-101761904D02*
X166704819Y-102238094D01*
X166704819Y-102238094D02*
X167181009Y-102285713D01*
X167181009Y-102285713D02*
X167133390Y-102238094D01*
X167133390Y-102238094D02*
X167085771Y-102142856D01*
X167085771Y-102142856D02*
X167085771Y-101904761D01*
X167085771Y-101904761D02*
X167133390Y-101809523D01*
X167133390Y-101809523D02*
X167181009Y-101761904D01*
X167181009Y-101761904D02*
X167276247Y-101714285D01*
X167276247Y-101714285D02*
X167514342Y-101714285D01*
X167514342Y-101714285D02*
X167609580Y-101761904D01*
X167609580Y-101761904D02*
X167657200Y-101809523D01*
X167657200Y-101809523D02*
X167704819Y-101904761D01*
X167704819Y-101904761D02*
X167704819Y-102142856D01*
X167704819Y-102142856D02*
X167657200Y-102238094D01*
X167657200Y-102238094D02*
X167609580Y-102285713D01*
X173331905Y-85194819D02*
X173331905Y-84194819D01*
X173331905Y-84194819D02*
X173570000Y-84194819D01*
X173570000Y-84194819D02*
X173712857Y-84242438D01*
X173712857Y-84242438D02*
X173808095Y-84337676D01*
X173808095Y-84337676D02*
X173855714Y-84432914D01*
X173855714Y-84432914D02*
X173903333Y-84623390D01*
X173903333Y-84623390D02*
X173903333Y-84766247D01*
X173903333Y-84766247D02*
X173855714Y-84956723D01*
X173855714Y-84956723D02*
X173808095Y-85051961D01*
X173808095Y-85051961D02*
X173712857Y-85147200D01*
X173712857Y-85147200D02*
X173570000Y-85194819D01*
X173570000Y-85194819D02*
X173331905Y-85194819D01*
X174855714Y-85194819D02*
X174284286Y-85194819D01*
X174570000Y-85194819D02*
X174570000Y-84194819D01*
X174570000Y-84194819D02*
X174474762Y-84337676D01*
X174474762Y-84337676D02*
X174379524Y-84432914D01*
X174379524Y-84432914D02*
X174284286Y-84480533D01*
X135054819Y-108766666D02*
X134578628Y-109099999D01*
X135054819Y-109338094D02*
X134054819Y-109338094D01*
X134054819Y-109338094D02*
X134054819Y-108957142D01*
X134054819Y-108957142D02*
X134102438Y-108861904D01*
X134102438Y-108861904D02*
X134150057Y-108814285D01*
X134150057Y-108814285D02*
X134245295Y-108766666D01*
X134245295Y-108766666D02*
X134388152Y-108766666D01*
X134388152Y-108766666D02*
X134483390Y-108814285D01*
X134483390Y-108814285D02*
X134531009Y-108861904D01*
X134531009Y-108861904D02*
X134578628Y-108957142D01*
X134578628Y-108957142D02*
X134578628Y-109338094D01*
X134388152Y-107909523D02*
X135054819Y-107909523D01*
X134007200Y-108147618D02*
X134721485Y-108385713D01*
X134721485Y-108385713D02*
X134721485Y-107766666D01*
X159183333Y-126159580D02*
X159135714Y-126207200D01*
X159135714Y-126207200D02*
X158992857Y-126254819D01*
X158992857Y-126254819D02*
X158897619Y-126254819D01*
X158897619Y-126254819D02*
X158754762Y-126207200D01*
X158754762Y-126207200D02*
X158659524Y-126111961D01*
X158659524Y-126111961D02*
X158611905Y-126016723D01*
X158611905Y-126016723D02*
X158564286Y-125826247D01*
X158564286Y-125826247D02*
X158564286Y-125683390D01*
X158564286Y-125683390D02*
X158611905Y-125492914D01*
X158611905Y-125492914D02*
X158659524Y-125397676D01*
X158659524Y-125397676D02*
X158754762Y-125302438D01*
X158754762Y-125302438D02*
X158897619Y-125254819D01*
X158897619Y-125254819D02*
X158992857Y-125254819D01*
X158992857Y-125254819D02*
X159135714Y-125302438D01*
X159135714Y-125302438D02*
X159183333Y-125350057D01*
X160040476Y-125254819D02*
X159850000Y-125254819D01*
X159850000Y-125254819D02*
X159754762Y-125302438D01*
X159754762Y-125302438D02*
X159707143Y-125350057D01*
X159707143Y-125350057D02*
X159611905Y-125492914D01*
X159611905Y-125492914D02*
X159564286Y-125683390D01*
X159564286Y-125683390D02*
X159564286Y-126064342D01*
X159564286Y-126064342D02*
X159611905Y-126159580D01*
X159611905Y-126159580D02*
X159659524Y-126207200D01*
X159659524Y-126207200D02*
X159754762Y-126254819D01*
X159754762Y-126254819D02*
X159945238Y-126254819D01*
X159945238Y-126254819D02*
X160040476Y-126207200D01*
X160040476Y-126207200D02*
X160088095Y-126159580D01*
X160088095Y-126159580D02*
X160135714Y-126064342D01*
X160135714Y-126064342D02*
X160135714Y-125826247D01*
X160135714Y-125826247D02*
X160088095Y-125731009D01*
X160088095Y-125731009D02*
X160040476Y-125683390D01*
X160040476Y-125683390D02*
X159945238Y-125635771D01*
X159945238Y-125635771D02*
X159754762Y-125635771D01*
X159754762Y-125635771D02*
X159659524Y-125683390D01*
X159659524Y-125683390D02*
X159611905Y-125731009D01*
X159611905Y-125731009D02*
X159564286Y-125826247D01*
X132433333Y-94909580D02*
X132385714Y-94957200D01*
X132385714Y-94957200D02*
X132242857Y-95004819D01*
X132242857Y-95004819D02*
X132147619Y-95004819D01*
X132147619Y-95004819D02*
X132004762Y-94957200D01*
X132004762Y-94957200D02*
X131909524Y-94861961D01*
X131909524Y-94861961D02*
X131861905Y-94766723D01*
X131861905Y-94766723D02*
X131814286Y-94576247D01*
X131814286Y-94576247D02*
X131814286Y-94433390D01*
X131814286Y-94433390D02*
X131861905Y-94242914D01*
X131861905Y-94242914D02*
X131909524Y-94147676D01*
X131909524Y-94147676D02*
X132004762Y-94052438D01*
X132004762Y-94052438D02*
X132147619Y-94004819D01*
X132147619Y-94004819D02*
X132242857Y-94004819D01*
X132242857Y-94004819D02*
X132385714Y-94052438D01*
X132385714Y-94052438D02*
X132433333Y-94100057D01*
X132814286Y-94100057D02*
X132861905Y-94052438D01*
X132861905Y-94052438D02*
X132957143Y-94004819D01*
X132957143Y-94004819D02*
X133195238Y-94004819D01*
X133195238Y-94004819D02*
X133290476Y-94052438D01*
X133290476Y-94052438D02*
X133338095Y-94100057D01*
X133338095Y-94100057D02*
X133385714Y-94195295D01*
X133385714Y-94195295D02*
X133385714Y-94290533D01*
X133385714Y-94290533D02*
X133338095Y-94433390D01*
X133338095Y-94433390D02*
X132766667Y-95004819D01*
X132766667Y-95004819D02*
X133385714Y-95004819D01*
X139933333Y-104234580D02*
X139885714Y-104282200D01*
X139885714Y-104282200D02*
X139742857Y-104329819D01*
X139742857Y-104329819D02*
X139647619Y-104329819D01*
X139647619Y-104329819D02*
X139504762Y-104282200D01*
X139504762Y-104282200D02*
X139409524Y-104186961D01*
X139409524Y-104186961D02*
X139361905Y-104091723D01*
X139361905Y-104091723D02*
X139314286Y-103901247D01*
X139314286Y-103901247D02*
X139314286Y-103758390D01*
X139314286Y-103758390D02*
X139361905Y-103567914D01*
X139361905Y-103567914D02*
X139409524Y-103472676D01*
X139409524Y-103472676D02*
X139504762Y-103377438D01*
X139504762Y-103377438D02*
X139647619Y-103329819D01*
X139647619Y-103329819D02*
X139742857Y-103329819D01*
X139742857Y-103329819D02*
X139885714Y-103377438D01*
X139885714Y-103377438D02*
X139933333Y-103425057D01*
X140885714Y-104329819D02*
X140314286Y-104329819D01*
X140600000Y-104329819D02*
X140600000Y-103329819D01*
X140600000Y-103329819D02*
X140504762Y-103472676D01*
X140504762Y-103472676D02*
X140409524Y-103567914D01*
X140409524Y-103567914D02*
X140314286Y-103615533D01*
X160684819Y-104638094D02*
X159684819Y-104638094D01*
X159684819Y-104638094D02*
X159684819Y-104399999D01*
X159684819Y-104399999D02*
X159732438Y-104257142D01*
X159732438Y-104257142D02*
X159827676Y-104161904D01*
X159827676Y-104161904D02*
X159922914Y-104114285D01*
X159922914Y-104114285D02*
X160113390Y-104066666D01*
X160113390Y-104066666D02*
X160256247Y-104066666D01*
X160256247Y-104066666D02*
X160446723Y-104114285D01*
X160446723Y-104114285D02*
X160541961Y-104161904D01*
X160541961Y-104161904D02*
X160637200Y-104257142D01*
X160637200Y-104257142D02*
X160684819Y-104399999D01*
X160684819Y-104399999D02*
X160684819Y-104638094D01*
X159684819Y-103733332D02*
X159684819Y-103114285D01*
X159684819Y-103114285D02*
X160065771Y-103447618D01*
X160065771Y-103447618D02*
X160065771Y-103304761D01*
X160065771Y-103304761D02*
X160113390Y-103209523D01*
X160113390Y-103209523D02*
X160161009Y-103161904D01*
X160161009Y-103161904D02*
X160256247Y-103114285D01*
X160256247Y-103114285D02*
X160494342Y-103114285D01*
X160494342Y-103114285D02*
X160589580Y-103161904D01*
X160589580Y-103161904D02*
X160637200Y-103209523D01*
X160637200Y-103209523D02*
X160684819Y-103304761D01*
X160684819Y-103304761D02*
X160684819Y-103590475D01*
X160684819Y-103590475D02*
X160637200Y-103685713D01*
X160637200Y-103685713D02*
X160589580Y-103733332D01*
X161054819Y-109241904D02*
X160054819Y-109241904D01*
X161054819Y-108670476D02*
X160483390Y-109099047D01*
X160054819Y-108670476D02*
X160626247Y-109241904D01*
X171833333Y-110909580D02*
X171785714Y-110957200D01*
X171785714Y-110957200D02*
X171642857Y-111004819D01*
X171642857Y-111004819D02*
X171547619Y-111004819D01*
X171547619Y-111004819D02*
X171404762Y-110957200D01*
X171404762Y-110957200D02*
X171309524Y-110861961D01*
X171309524Y-110861961D02*
X171261905Y-110766723D01*
X171261905Y-110766723D02*
X171214286Y-110576247D01*
X171214286Y-110576247D02*
X171214286Y-110433390D01*
X171214286Y-110433390D02*
X171261905Y-110242914D01*
X171261905Y-110242914D02*
X171309524Y-110147676D01*
X171309524Y-110147676D02*
X171404762Y-110052438D01*
X171404762Y-110052438D02*
X171547619Y-110004819D01*
X171547619Y-110004819D02*
X171642857Y-110004819D01*
X171642857Y-110004819D02*
X171785714Y-110052438D01*
X171785714Y-110052438D02*
X171833333Y-110100057D01*
X172166667Y-110004819D02*
X172833333Y-110004819D01*
X172833333Y-110004819D02*
X172404762Y-111004819D01*
X181543333Y-93584819D02*
X181210000Y-93108628D01*
X180971905Y-93584819D02*
X180971905Y-92584819D01*
X180971905Y-92584819D02*
X181352857Y-92584819D01*
X181352857Y-92584819D02*
X181448095Y-92632438D01*
X181448095Y-92632438D02*
X181495714Y-92680057D01*
X181495714Y-92680057D02*
X181543333Y-92775295D01*
X181543333Y-92775295D02*
X181543333Y-92918152D01*
X181543333Y-92918152D02*
X181495714Y-93013390D01*
X181495714Y-93013390D02*
X181448095Y-93061009D01*
X181448095Y-93061009D02*
X181352857Y-93108628D01*
X181352857Y-93108628D02*
X180971905Y-93108628D01*
X181876667Y-92584819D02*
X182543333Y-92584819D01*
X182543333Y-92584819D02*
X182114762Y-93584819D01*
X182434819Y-109973333D02*
X183149104Y-109973333D01*
X183149104Y-109973333D02*
X183291961Y-110020952D01*
X183291961Y-110020952D02*
X183387200Y-110116190D01*
X183387200Y-110116190D02*
X183434819Y-110259047D01*
X183434819Y-110259047D02*
X183434819Y-110354285D01*
X182530057Y-109544761D02*
X182482438Y-109497142D01*
X182482438Y-109497142D02*
X182434819Y-109401904D01*
X182434819Y-109401904D02*
X182434819Y-109163809D01*
X182434819Y-109163809D02*
X182482438Y-109068571D01*
X182482438Y-109068571D02*
X182530057Y-109020952D01*
X182530057Y-109020952D02*
X182625295Y-108973333D01*
X182625295Y-108973333D02*
X182720533Y-108973333D01*
X182720533Y-108973333D02*
X182863390Y-109020952D01*
X182863390Y-109020952D02*
X183434819Y-109592380D01*
X183434819Y-109592380D02*
X183434819Y-108973333D01*
X143854819Y-114566666D02*
X143378628Y-114899999D01*
X143854819Y-115138094D02*
X142854819Y-115138094D01*
X142854819Y-115138094D02*
X142854819Y-114757142D01*
X142854819Y-114757142D02*
X142902438Y-114661904D01*
X142902438Y-114661904D02*
X142950057Y-114614285D01*
X142950057Y-114614285D02*
X143045295Y-114566666D01*
X143045295Y-114566666D02*
X143188152Y-114566666D01*
X143188152Y-114566666D02*
X143283390Y-114614285D01*
X143283390Y-114614285D02*
X143331009Y-114661904D01*
X143331009Y-114661904D02*
X143378628Y-114757142D01*
X143378628Y-114757142D02*
X143378628Y-115138094D01*
X143854819Y-113614285D02*
X143854819Y-114185713D01*
X143854819Y-113899999D02*
X142854819Y-113899999D01*
X142854819Y-113899999D02*
X142997676Y-113995237D01*
X142997676Y-113995237D02*
X143092914Y-114090475D01*
X143092914Y-114090475D02*
X143140533Y-114185713D01*
X128234819Y-108066666D02*
X127758628Y-108399999D01*
X128234819Y-108638094D02*
X127234819Y-108638094D01*
X127234819Y-108638094D02*
X127234819Y-108257142D01*
X127234819Y-108257142D02*
X127282438Y-108161904D01*
X127282438Y-108161904D02*
X127330057Y-108114285D01*
X127330057Y-108114285D02*
X127425295Y-108066666D01*
X127425295Y-108066666D02*
X127568152Y-108066666D01*
X127568152Y-108066666D02*
X127663390Y-108114285D01*
X127663390Y-108114285D02*
X127711009Y-108161904D01*
X127711009Y-108161904D02*
X127758628Y-108257142D01*
X127758628Y-108257142D02*
X127758628Y-108638094D01*
X127234819Y-107733332D02*
X127234819Y-107114285D01*
X127234819Y-107114285D02*
X127615771Y-107447618D01*
X127615771Y-107447618D02*
X127615771Y-107304761D01*
X127615771Y-107304761D02*
X127663390Y-107209523D01*
X127663390Y-107209523D02*
X127711009Y-107161904D01*
X127711009Y-107161904D02*
X127806247Y-107114285D01*
X127806247Y-107114285D02*
X128044342Y-107114285D01*
X128044342Y-107114285D02*
X128139580Y-107161904D01*
X128139580Y-107161904D02*
X128187200Y-107209523D01*
X128187200Y-107209523D02*
X128234819Y-107304761D01*
X128234819Y-107304761D02*
X128234819Y-107590475D01*
X128234819Y-107590475D02*
X128187200Y-107685713D01*
X128187200Y-107685713D02*
X128139580Y-107733332D01*
X147233333Y-99784819D02*
X146900000Y-99308628D01*
X146661905Y-99784819D02*
X146661905Y-98784819D01*
X146661905Y-98784819D02*
X147042857Y-98784819D01*
X147042857Y-98784819D02*
X147138095Y-98832438D01*
X147138095Y-98832438D02*
X147185714Y-98880057D01*
X147185714Y-98880057D02*
X147233333Y-98975295D01*
X147233333Y-98975295D02*
X147233333Y-99118152D01*
X147233333Y-99118152D02*
X147185714Y-99213390D01*
X147185714Y-99213390D02*
X147138095Y-99261009D01*
X147138095Y-99261009D02*
X147042857Y-99308628D01*
X147042857Y-99308628D02*
X146661905Y-99308628D01*
X148138095Y-98784819D02*
X147661905Y-98784819D01*
X147661905Y-98784819D02*
X147614286Y-99261009D01*
X147614286Y-99261009D02*
X147661905Y-99213390D01*
X147661905Y-99213390D02*
X147757143Y-99165771D01*
X147757143Y-99165771D02*
X147995238Y-99165771D01*
X147995238Y-99165771D02*
X148090476Y-99213390D01*
X148090476Y-99213390D02*
X148138095Y-99261009D01*
X148138095Y-99261009D02*
X148185714Y-99356247D01*
X148185714Y-99356247D02*
X148185714Y-99594342D01*
X148185714Y-99594342D02*
X148138095Y-99689580D01*
X148138095Y-99689580D02*
X148090476Y-99737200D01*
X148090476Y-99737200D02*
X147995238Y-99784819D01*
X147995238Y-99784819D02*
X147757143Y-99784819D01*
X147757143Y-99784819D02*
X147661905Y-99737200D01*
X147661905Y-99737200D02*
X147614286Y-99689580D01*
%TO.C,U1*%
D11*
X141290000Y-88990000D02*
X143540000Y-88990000D01*
X141290000Y-93610000D02*
X141290000Y-88990000D01*
X142515000Y-88990000D02*
X142515000Y-86354000D01*
X143485000Y-88990000D02*
X143485000Y-86354000D01*
X144550000Y-93610000D02*
X144550000Y-92230000D01*
X145860000Y-88990000D02*
X146940000Y-88990000D01*
X145915000Y-88990000D02*
X145915000Y-86354000D01*
X146885000Y-88990000D02*
X146885000Y-86354000D01*
X148250000Y-93610000D02*
X148250000Y-92230000D01*
X149260000Y-88990000D02*
X151510000Y-88990000D01*
X149315000Y-88990000D02*
X149315000Y-86460000D01*
X150285000Y-88990000D02*
X150285000Y-86460000D01*
X151510000Y-88990000D02*
X151510000Y-93610000D01*
X151510000Y-92230000D02*
X141290000Y-92230000D01*
X151510000Y-93610000D02*
X141290000Y-93610000D01*
%TO.C,D2*%
X152460000Y-115400000D02*
X153480000Y-115400000D01*
X154260000Y-113930000D02*
X154260000Y-116870000D01*
X154380000Y-113930000D02*
X154380000Y-116870000D01*
X154500000Y-113930000D02*
X154500000Y-116870000D01*
X159940000Y-115400000D02*
X158920000Y-115400000D01*
X153480000Y-113930000D02*
X158920000Y-113930000D01*
X158920000Y-116870000D01*
X153480000Y-116870000D01*
X153480000Y-113930000D01*
%TO.C,R6*%
X151630000Y-119830000D02*
X158170000Y-119830000D01*
X151630000Y-120160000D02*
X151630000Y-119830000D01*
X151630000Y-122240000D02*
X151630000Y-122570000D01*
X151630000Y-122570000D02*
X158170000Y-122570000D01*
X158170000Y-119830000D02*
X158170000Y-120160000D01*
X158170000Y-122570000D02*
X158170000Y-122240000D01*
%TO.C,R2*%
X148930000Y-106230000D02*
X155470000Y-106230000D01*
X148930000Y-106560000D02*
X148930000Y-106230000D01*
X148930000Y-108640000D02*
X148930000Y-108970000D01*
X148930000Y-108970000D02*
X155470000Y-108970000D01*
X155470000Y-106230000D02*
X155470000Y-106560000D01*
X155470000Y-108970000D02*
X155470000Y-108640000D01*
%TO.C,C3*%
X180870000Y-104600000D02*
G75*
G02*
X174330000Y-104600000I-3270000J0D01*
G01*
X174330000Y-104600000D02*
G75*
G02*
X180870000Y-104600000I3270000J0D01*
G01*
%TO.C,J1*%
X157140000Y-83180000D02*
X164580000Y-83180000D01*
X157140000Y-93220000D02*
X157140000Y-83180000D01*
X165180000Y-83180000D02*
X167540000Y-83180000D01*
X167540000Y-83180000D02*
X167540000Y-93220000D01*
X167540000Y-83800000D02*
X157140000Y-83800000D01*
X167540000Y-85300000D02*
X157140000Y-85300000D01*
X167540000Y-90200000D02*
X157140000Y-90200000D01*
X167540000Y-93220000D02*
X157140000Y-93220000D01*
X164880000Y-83180000D02*
X164440000Y-82570000D01*
X165320000Y-82570000D01*
X164880000Y-83180000D01*
G36*
X164880000Y-83180000D02*
G01*
X164440000Y-82570000D01*
X165320000Y-82570000D01*
X164880000Y-83180000D01*
G37*
%TO.C,RV1*%
X93590000Y-98190000D02*
X109590000Y-98190000D01*
X93590000Y-104410000D02*
X93590000Y-98190000D01*
X109590000Y-96190000D02*
X118590000Y-96190000D01*
X109590000Y-98190000D02*
X109590000Y-104410000D01*
X109590000Y-104410000D02*
X93590000Y-104410000D01*
X109590000Y-106410000D02*
X109590000Y-96190000D01*
X118590000Y-93190000D02*
X126810000Y-93190000D01*
X118590000Y-96190000D02*
X118590000Y-106410000D01*
X118590000Y-106410000D02*
X109590000Y-106410000D01*
X118590000Y-109410000D02*
X118590000Y-93190000D01*
X126810000Y-93190000D02*
X126810000Y-109410000D01*
X126810000Y-109410000D02*
X118590000Y-109410000D01*
%TO.C,C4*%
X142220000Y-116700000D02*
G75*
G02*
X136980000Y-116700000I-2620000J0D01*
G01*
X136980000Y-116700000D02*
G75*
G02*
X142220000Y-116700000I2620000J0D01*
G01*
%TO.C,C5*%
X168380000Y-100480000D02*
X169101000Y-100480000D01*
X168380000Y-104520000D02*
X168380000Y-100480000D01*
X169101000Y-104520000D02*
X168380000Y-104520000D01*
X170499000Y-100480000D02*
X171220000Y-100480000D01*
X171220000Y-100480000D02*
X171220000Y-104520000D01*
X171220000Y-104520000D02*
X170499000Y-104520000D01*
%TO.C,D1*%
X171510000Y-87155000D02*
X171510000Y-90245000D01*
X171510000Y-87155170D02*
G75*
G02*
X177060000Y-88700000I2560000J-1544830D01*
G01*
X177060000Y-88700000D02*
G75*
G02*
X171510000Y-90244830I-2990000J0D01*
G01*
X176570000Y-88700000D02*
G75*
G02*
X171570000Y-88700000I-2500000J0D01*
G01*
X171570000Y-88700000D02*
G75*
G02*
X176570000Y-88700000I2500000J0D01*
G01*
%TO.C,R4*%
X132830000Y-104630000D02*
X133160000Y-104630000D01*
X132830000Y-111170000D02*
X132830000Y-104630000D01*
X133160000Y-111170000D02*
X132830000Y-111170000D01*
X135240000Y-111170000D02*
X135570000Y-111170000D01*
X135570000Y-104630000D02*
X135240000Y-104630000D01*
X135570000Y-111170000D02*
X135570000Y-104630000D01*
%TO.C,C6*%
X152380000Y-124480000D02*
X156420000Y-124480000D01*
X152380000Y-125201000D02*
X152380000Y-124480000D01*
X152380000Y-127320000D02*
X152380000Y-126599000D01*
X156420000Y-124480000D02*
X156420000Y-125201000D01*
X156420000Y-126599000D02*
X156420000Y-127320000D01*
X156420000Y-127320000D02*
X152380000Y-127320000D01*
%TO.C,C2*%
X135220000Y-98300000D02*
G75*
G02*
X129980000Y-98300000I-2620000J0D01*
G01*
X129980000Y-98300000D02*
G75*
G02*
X135220000Y-98300000I2620000J0D01*
G01*
%TO.C,C1*%
X142720000Y-107625000D02*
G75*
G02*
X137480000Y-107625000I-2620000J0D01*
G01*
X137480000Y-107625000D02*
G75*
G02*
X142720000Y-107625000I2620000J0D01*
G01*
%TO.C,D3*%
X161230000Y-105600000D02*
X164170000Y-105600000D01*
X161230000Y-105720000D02*
X164170000Y-105720000D01*
X161230000Y-105840000D02*
X164170000Y-105840000D01*
X162700000Y-100160000D02*
X162700000Y-101180000D01*
X162700000Y-107640000D02*
X162700000Y-106620000D01*
X161230000Y-101180000D02*
X164170000Y-101180000D01*
X164170000Y-106620000D01*
X161230000Y-106620000D01*
X161230000Y-101180000D01*
%TO.C,C7*%
X177120000Y-116800000D02*
G75*
G02*
X166880000Y-116800000I-5120000J0D01*
G01*
X166880000Y-116800000D02*
G75*
G02*
X177120000Y-116800000I5120000J0D01*
G01*
%TO.C,R7*%
X178440000Y-94130000D02*
X184980000Y-94130000D01*
X178440000Y-94460000D02*
X178440000Y-94130000D01*
X178440000Y-96540000D02*
X178440000Y-96870000D01*
X178440000Y-96870000D02*
X184980000Y-96870000D01*
X184980000Y-94130000D02*
X184980000Y-94460000D01*
X184980000Y-96870000D02*
X184980000Y-96540000D01*
%TO.C,J2*%
X183980000Y-104440000D02*
X194020000Y-104440000D01*
X183980000Y-114840000D02*
X183980000Y-104440000D01*
X187000000Y-114840000D02*
X187000000Y-104440000D01*
X191900000Y-114840000D02*
X191900000Y-104440000D01*
X193400000Y-114840000D02*
X193400000Y-104440000D01*
X194020000Y-104440000D02*
X194020000Y-111880000D01*
X194020000Y-112480000D02*
X194020000Y-114840000D01*
X194020000Y-114840000D02*
X183980000Y-114840000D01*
X194020000Y-112180000D02*
X194630000Y-111740000D01*
X194630000Y-112620000D01*
X194020000Y-112180000D01*
G36*
X194630000Y-112620000D02*
G01*
X194020000Y-112180000D01*
X194630000Y-111740000D01*
X194630000Y-112620000D01*
G37*
%TO.C,R1*%
X145330000Y-112930000D02*
X145330000Y-119470000D01*
X145330000Y-119470000D02*
X145660000Y-119470000D01*
X145660000Y-112930000D02*
X145330000Y-112930000D01*
X147740000Y-112930000D02*
X148070000Y-112930000D01*
X148070000Y-112930000D02*
X148070000Y-119470000D01*
X148070000Y-119470000D02*
X147740000Y-119470000D01*
%TO.C,R3*%
X128780000Y-104630000D02*
X129110000Y-104630000D01*
X128780000Y-111170000D02*
X128780000Y-104630000D01*
X129110000Y-111170000D02*
X128780000Y-111170000D01*
X131190000Y-111170000D02*
X131520000Y-111170000D01*
X131520000Y-104630000D02*
X131190000Y-104630000D01*
X131520000Y-111170000D02*
X131520000Y-104630000D01*
%TO.C,R5*%
X144130000Y-100330000D02*
X150670000Y-100330000D01*
X144130000Y-100660000D02*
X144130000Y-100330000D01*
X144130000Y-102740000D02*
X144130000Y-103070000D01*
X144130000Y-103070000D02*
X150670000Y-103070000D01*
X150670000Y-100330000D02*
X150670000Y-100660000D01*
X150670000Y-103070000D02*
X150670000Y-102740000D01*
%TD*%
M02*
